<svg xmlns="http://www.w3.org/2000/svg" viewBox="0 0 137.47 137.49"><defs><style>.cls-1{fill:#111;}.cls-2{fill:#fff;}</style></defs><g id="Слой_2" data-name="Слой 2"><g id="Слой_1-2" data-name="Слой 1"><path class="cls-1" d="M135.42,85.38A68.72,68.72,0,1,1,85.36,2.06a68.74,68.74,0,0,1,50.06,83.32Z"/><path class="cls-2" d="M99.05,59c1.36-9.15-5.6-14.06-15.12-17.34L87,29.22l-7.55-1.88-3,12.06c-2-.49-4-1-6-1.42l3-12.15L65.91,24,62.82,36.34C61.18,36,59.57,35.6,58,35.21v0l-10.4-2.6-2,8.06S51.2,41.91,51.08,42c3.06.76,3.61,2.79,3.52,4.39L51.07,60.55,46.13,80.32a2.74,2.74,0,0,1-3.45,1.79c.07.11-5.48-1.36-5.48-1.36l-3.75,8.63,9.82,2.45c1.82.46,3.61.94,5.37,1.39l-3.12,12.53,7.54,1.88,3.09-12.4c2.06.56,4.05,1.08,6,1.56l-3.08,12.34L66.62,111,69.74,98.5c12.86,2.44,22.54,1.46,26.6-10.17C99.62,79,96.18,73.56,89.42,70c4.92-1.14,8.64-4.38,9.63-11.08ZM81.81,83.12c-2.33,9.36-18.1,4.3-23.21,3l4.14-16.6c5.11,1.27,21.5,3.8,19.07,13.57Zm2.33-24.3C82,67.34,68.89,63,64.63,62l3.76-15.06C72.65,48,86.36,49.93,84.14,58.82Z"/></g></g></svg>