<svg xmlns="http://www.w3.org/2000/svg" viewBox="0 0 137.49 137.49"><defs><style>.cls-1{fill:#111;}.cls-2{fill:#fff;fill-rule:evenodd;}</style></defs><g id="Слой_2" data-name="Слой 2"><g id="Слой_1-2" data-name="Слой 1"><circle class="cls-1" cx="68.74" cy="68.74" r="68.74" transform="translate(-21.42 32.39) rotate(-23.04)"/><g id="Слой_1-3" data-name="Слой_1"><path class="cls-2" d="M27.23,66.15c.64.08.51,0,.74.76L33,83l6.44,0,4-12.89c.35-1.21.91-3.86,1.65-4L45.15,83c.76.2,6.7.15,8.31.12l.9-.21-.08-28.46c-2.89-.07-6-.06-8.86,0A5.2,5.2,0,0,0,40.32,58c-.9,2.55-2.09,7.23-3,10.19-.3,1-.62,2.83-1.15,3.13-.57-.2-.46-.31-.67-1l-1-3.59c-.46-1.62-.94-3.22-1.42-4.9-.68-2.34-1.43-7.14-5.21-7.18-.21-.12.22-.06-.4-.18a3.82,3.82,0,0,0-.68,0L18,54.44,18,83l9.17.06Zm74.38-.1c1.94.28,10,.11,12.93.12,1.23,0,3.35.33,4.32-.17,1.62-5.62-4-11.29-8.45-11.36-.67-.46-20.43-.2-21.12-.2,0,2.74,2.81,6.7,4.09,7.8A14.16,14.16,0,0,0,101.61,66.05Zm16.75,1.78.1-.48-28,.06,0,15.67L99.66,83V73.9c2.12.22,10.31.2,12.11-.27a9.4,9.4,0,0,0,4.08-2.23A11,11,0,0,0,118.36,67.83ZM58.08,54.46h.24l8.44-.08h.52c-.08,2-.29,16.19.16,16.91.79-.13,1.81-3,2.39-4.26.73-1.55,1.41-3.06,2.15-4.66,3.28-7,2.55-8,10.14-8a38.26,38.26,0,0,1,4.56.06l0,28.58-9.16.06-.11-16.93c-.77,0-.67.39-1.4,2L70.68,79.81a5.57,5.57,0,0,1-4.76,3.28L60.66,83H58.08Z"/></g></g></g></svg>