<svg xmlns="http://www.w3.org/2000/svg" viewBox="0 0 137.49 137.49"><defs><style>.cls-1{fill:#111;}.cls-2{fill:#fff;}</style></defs><g id="Слой_2" data-name="Слой 2"><g id="Слой_1-2" data-name="Слой 1"><circle class="cls-1" cx="68.74" cy="68.74" r="68.74" transform="translate(-21.42 32.39) rotate(-23.04)"/><path class="cls-2" d="M68.65,122.42a53.68,53.68,0,1,1,53.81-53.58A53.8,53.8,0,0,1,68.65,122.42Zm.2-101.61a47.94,47.94,0,1,0,47.87,48.08A47.87,47.87,0,0,0,68.85,20.81Z"/><path class="cls-2" d="M45.82,83.87H65.48V88.3H40.23a13.9,13.9,0,0,1,3.29-9.76,40.69,40.69,0,0,1,6-5.16c2.38-1.77,5-3.21,7.35-5,2.8-2.15,4.42-5,3.8-8.68a6.63,6.63,0,0,0-5.36-5.61c-3.47-.68-6.52.41-8,3.19a17.63,17.63,0,0,0-1.44,4.88c-.19,1-.37,1.52-1.49,1.42s-2,0-2.93,0c-1.26-4,1.29-9.93,5.41-12.19a13.65,13.65,0,0,1,13.76,0c5.55,3,7,11.06,3.05,16.54a23.66,23.66,0,0,1-5.16,4.92C56,74.69,53.09,76.22,50.39,78A10,10,0,0,0,45.82,83.87Z"/><path class="cls-2" d="M92.07,74.59h5.18v4.46h-5.1v9.27h-4.6v-9.2H70.68c-.16-2.71-.21-5,1.49-7.34C77,65.15,81.66,58.34,86.26,51.53c1-1.45,2-2.22,3.78-1.94a13.46,13.46,0,0,0,2,0Zm-4.65-.09V57L75.6,74.5Z"/></g></g></svg>