<svg xmlns="http://www.w3.org/2000/svg" viewBox="0 0 137.49 137.49"><defs><style>.cls-1{fill:#111;}.cls-2{fill:#fff;}</style></defs><g id="Слой_2" data-name="Слой 2"><g id="Слой_1-2" data-name="Слой 1"><circle class="cls-1" cx="68.74" cy="68.74" r="68.74" transform="translate(-21.42 32.39) rotate(-23.04)"/><path class="cls-2" d="M95.75,34.79l-8.09,6.07c-1.27-.72-2.48-1.46-3.74-2.1a33.61,33.61,0,0,0-42.27,10,32.25,32.25,0,0,0-6.11,14.82A33.62,33.62,0,0,0,54.93,99.13,32.21,32.21,0,0,0,72,102c12-1.35,20.93-7.46,26.62-18.13a31.63,31.63,0,0,0,3.63-15.65.77.77,0,0,1,.31-.71l8.51-6.23c.08-.06.17-.1.34-.2.15,1,.31,2,.43,3a43.4,43.4,0,0,1-14.64,37.82A42.36,42.36,0,0,1,74.49,112a43.6,43.6,0,0,1-42.4-20.1,42.49,42.49,0,0,1-6.62-20.19C24.6,57.47,29.39,45.44,40,35.88A41.38,41.38,0,0,1,62.61,25.55a42.33,42.33,0,0,1,30.48,7.38c.81.55,1.6,1.14,2.41,1.71A2,2,0,0,0,95.75,34.79Z"/><path class="cls-2" d="M51.92,57.15l3.63,2.24,12.62,7.82a.61.61,0,0,0,.83,0l22.94-17L103,42c.12.17.23.31.32.46,1.57,2.59,3.12,5.18,4.7,7.76.2.32.17.47-.14.69L89,64.86,70.58,78.5c-.45.33-.91.65-1.33,1a.64.64,0,0,1-.86,0c-2.44-1.49-4.88-3-7.32-4.43l-8.71-5.25a.73.73,0,0,1-.4-.7c0-3.16,0-6.32,0-9.49C51.91,58.86,51.92,58,51.92,57.15Z"/></g></g></svg>