<svg xmlns="http://www.w3.org/2000/svg" viewBox="0 0 137.49 137.49"><defs><style>.cls-1{fill:#010101;fill-rule:evenodd;}.cls-2{fill:#fff;}</style></defs><g id="Слой_2" data-name="Слой 2"><g id="Слой_1-2" data-name="Слой 1"><path class="cls-1" d="M68.74,0A68.74,68.74,0,1,1,0,68.74,68.78,68.78,0,0,1,68.74,0Z"/><path class="cls-2" d="M68.26,102.4a12.86,12.86,0,0,1-1.64-1.34,4.75,4.75,0,0,0-2.7-.86c-1,0-2,0-3.05,0a4.29,4.29,0,0,1-1.39,0c-.75-.26-1.55-.16-2.26-.48a22.06,22.06,0,0,1-2.34-1.15,7.41,7.41,0,0,1-2.25-1.94A8.75,8.75,0,0,1,51,93.27c0-.13-.21-.26-.2-.38.08-1.07-.28-2.1-.27-3.18,0-8.2,0-16.39,0-24.59a9.65,9.65,0,0,0-1.12-4.34c-.16-.32-.3-.65-.47-1a5.85,5.85,0,0,1,.92-.33,6.13,6.13,0,0,1,1.05,0c2.16,0,4.3.41,6.47.23.32,0,.67.12,1-.18.13-.12.45-.08.68,0a2.9,2.9,0,0,0,1.8-.13,15.06,15.06,0,0,0-1.59-2.24,3.79,3.79,0,0,0-3-1.39c-.31,0-.62,0-.93,0a1.33,1.33,0,0,0-.53.12,3.77,3.77,0,0,0-1.87,2c-.24.64-.22.65-.83.66h-.71a1.19,1.19,0,0,1,.12-1.15A5.74,5.74,0,0,1,54,54.66c1.79-1,3.58-2,5.28-3.11.6-.4,1.28-.67,1.91-1,.23-.13.52-.35.36-.64-.27-.5,0-1.11-.26-1.52s0-1.1-.23-1.42c-.39-.48.1-1.12-.43-1.48a7.09,7.09,0,0,0-.23-1.89c-.09-1.15-.49-2.26-.5-3.44,0-.19-.3-.46-.19-.71A6,6,0,0,1,60.46,38a4.65,4.65,0,0,1,1.68-1.28,12.84,12.84,0,0,1,3.38-1.2,20.79,20.79,0,0,1,4.59-.15,7.1,7.1,0,0,1,2.64.67,14,14,0,0,1,2.31,1.2,4.45,4.45,0,0,1,1.5,2.17A3.6,3.6,0,0,0,76.34,41c-.53.5-.11,1.2-.42,1.82s-.11,1.41-.3,2.09A28.52,28.52,0,0,1,75,48.08c-.19.49,0,1.09-.24,1.65s.25.82.68,1c1.86.92,3.57,2.1,5.41,3.06a12,12,0,0,1,2.68,1.7A4.32,4.32,0,0,1,85,58.44H83.42a3,3,0,0,0-1.87-2.58,5.31,5.31,0,0,0-3.4.22c-1.23.7-1.84,2-2.71,3,0,.05,0,.14,0,.22s0,.22,0,.3c.28.34.59-.41.88.08.06.09.52.07.65,0,.32-.3.66-.16,1-.16,2.3,0,4.61,0,6.91,0a11.1,11.1,0,0,1,1.29,0,10.65,10.65,0,0,1,1.21.3,18.21,18.21,0,0,0-1.59,3.76,3,3,0,0,0,0,1c0,8.47,0,16.94,0,25.41A14.32,14.32,0,0,1,85,94.23a10.49,10.49,0,0,1-1.1,2,8.83,8.83,0,0,1-5.43,3.51,13.61,13.61,0,0,1-2.27.45c-.82,0-1.65,0-2.46,0a11.54,11.54,0,0,0-2.61.17,4.4,4.4,0,0,0-2.11,1.14C68.78,101.8,68.53,102.09,68.26,102.4Zm-15.59-23c.32.54.78.38,1.19.38H75.38v-1.4l-.91-.82c0-.44.1-.9-.56-1.08a14.53,14.53,0,0,1-1.51,1.25c-.52.32-1,.84-1.62.88a6.5,6.5,0,0,1-3.46-.7,2.25,2.25,0,0,0-.61-.23A35.74,35.74,0,0,1,63,76.63a4.93,4.93,0,0,0-2.58-.55,4.83,4.83,0,0,1-1.26.88c-.38.1-.84-.16-1.32-.27-.4-1.27-.07-2.59-.24-3.94a1.12,1.12,0,0,1-1.36-.6c0-.31,0-.62,0-.93a1.1,1.1,0,0,1,1.71-1.06l.67.28a34.67,34.67,0,0,1,.27-6.34L61.25,62H62c.28.53.45,1.07.76,1.58a2.39,2.39,0,0,1,.4,2.32c-.53,1-.59,2.26-1.3,3.21.14.64-.62,1-.45,1.7a4,4,0,0,1,2.42,1.48h.46a15.73,15.73,0,0,1,2.93.27,9.74,9.74,0,0,0,1.91.19,1.22,1.22,0,0,0,1-.43c.35-.37,1-.59.88-1.33a3.75,3.75,0,0,1-1-1.3,1,1,0,0,0-.93-.72,1.2,1.2,0,0,1-.9-.57c-.35-.79-.94-1.53-.74-2.51a1,1,0,0,0-.13-.64,13.56,13.56,0,0,0-.91-1.37.87.87,0,0,0-.47-.26,3.93,3.93,0,0,1-2.35-1.4c-.21-.28-.45-.53-.55-.65H51.86c.23.36.51.62.56.92a22.26,22.26,0,0,1,.24,2.59c0,1.13,0,2.26,0,3.39ZM81.09,96.3a9.08,9.08,0,0,0,1.61-2,10.44,10.44,0,0,0,.91-3.72c0-2.23,0-4.45,0-6.68a4.43,4.43,0,0,0-.21-2.25c0-.08.12-.26.19-.4H63.2c.42.6,1,.69,1.57,1a6.49,6.49,0,0,1,3.12,4.17c0,.09-.12.23-.2.39A7.65,7.65,0,0,0,71.4,87c.66-.08,1.31-.25,2-.35a.63.63,0,0,1,.41.12c.36.2.8,0,1.18.3.12.09.53-.15.81-.23a3.31,3.31,0,0,1,3.59.81c.25.25.49.5.75.74s.35.58.71.76.38.53.6.79.55.55.82.83a1.58,1.58,0,0,1,.44,1.31A2.4,2.4,0,0,1,80,93.13a8,8,0,0,1-3-3.9h-.57a8,8,0,0,0,.23,1.68,8.48,8.48,0,0,0,.87,1.39,6.55,6.55,0,0,1,.41.66c.07.16.16.45.09.52-.44.44-.11,1-.26,1.5a.93.93,0,0,0-.41,1.15c.11.45-.58.79-.09,1.29L78,96.08c-.34-.22-.11-.39.07-.49a6.43,6.43,0,0,1,.88-.39c0,1.1-.76,1.79-1,2.58-.33.45-.52-.3-.92,0s-.75.06-1.14.07-.69,0-1.15,0l.2-1.67c-1,.18-.5,1.31-1.34,1.67-.22,0-.6,0-1,0l-1.27,0c.45-1,.83-1.92,1.26-2.79a2,2,0,0,0-.26-2.54,1.91,1.91,0,0,0-.72,0,4.65,4.65,0,0,1-2.16.46c-.21,0-.41.15-.62.19s-.45.07-.54,0c-.23-.26-.5-.16-.76-.16-.66,0-1.32,0-2.09,0l-.6.75a5.12,5.12,0,0,1-1.3-.17,4,4,0,0,0-2.06-.34l-.85.61a1.13,1.13,0,0,1,.09,1.49s0,.13.07.2l1,.11c-.38.78-.69,1.47-1.08,2.12-.08.14-.44.1-.88.19.31-.69.54-1.17.75-1.67a6.12,6.12,0,0,0,.16-.67c-.61.44-1.11.66-1.2,1.26s-.82.79-.65,1.51h2.55c.47,0,1-.17,1.38,0s.76,0,1.12,0a6.65,6.65,0,0,1,3.63,1.13c.59.34.69.34,1.3,0a7.48,7.48,0,0,1,3.52-1.14,11.6,11.6,0,0,1,2.13.27c.85.11,1.65-.3,2.48-.23a4.13,4.13,0,0,0,1.41-.3,1.28,1.28,0,0,0,.93-.86,14.34,14.34,0,0,1,.94-1.88C81,95.13,81,95.71,81.09,96.3ZM76.53,80A3.81,3.81,0,0,0,78,80a8,8,0,0,1-.2-1.15c0-.38-.39-.65-.21-1.06s.21-.67.33-1c.52,1.09.47,2.33,1.14,3.26H81.2c-.74-1-.66-2-.61-3.23.59,1.23.69,2.39,1.61,3.27a15.56,15.56,0,0,0,1.64,0c0-5.05,0-10,0-15a13.89,13.89,0,0,1,.24-2.13,7,7,0,0,1,.41-1,3.25,3.25,0,0,0,.06-.59H73.49l-2.32,1.85a1.37,1.37,0,0,0,1.15.69c.7.14.73.15.74.87a5.48,5.48,0,0,1,0,.81,2.12,2.12,0,0,0,.4,1.44,6,6,0,0,0-.38,1,2.09,2.09,0,0,0,0,.93,2.43,2.43,0,0,0,.46.85,4.57,4.57,0,0,0,.69.63c.14.45-.55.82,0,1.36.27.27.34.72.76.95a2.73,2.73,0,0,0,1.55.31,2.34,2.34,0,0,0-1.06,2.5,2.34,2.34,0,0,0,1.51.94c-.35.13-.58.24-.82.3s-.5,0-.85.09c.35.73,1,.76,1.52,1a7.33,7.33,0,0,1,0,1A9.76,9.76,0,0,1,76.53,80ZM78.26,54.1c-.79-.43-1.53-.82-2.25-1.23-.51-.3-1-.62-1.49-.94a1.38,1.38,0,0,0-1.65.08c-1.31.91-2.82,1.48-4.18,2.31a1.07,1.07,0,0,1-1.13,0c-1-.44-1.94-1.15-3-1.61A6.71,6.71,0,0,1,63.16,52a.93.93,0,0,0-1.22-.06c-.81.49-1.66.88-2.48,1.34-.48.27-.93.59-1.43.9,2,1,3.17,2.84,4.37,4.63h1.23a3.56,3.56,0,0,0,1.82,2.8A5.54,5.54,0,0,0,70,62a3.61,3.61,0,0,0,2.67-3.25h1.27A12,12,0,0,1,78.26,54.1ZM75,88.1a2.68,2.68,0,0,0-2.55-.47,7,7,0,0,1-2.18.38l-3.18-.28a2.78,2.78,0,0,1-1-2,3.77,3.77,0,0,0-.48-1.2,4.35,4.35,0,0,0-2.58-1.81v-.62l-.74.83-1.28-.27c-.22.63.81.4.6,1.11a9.37,9.37,0,0,0-.79.78c-.28.34-.51.73-.79,1.14,0,.3-.12.72.38.9.73-.77,1.8-.17,2.76-.83-.2.61,0,1-.26,1.42a4.15,4.15,0,0,0-.3,1.51c-.06.6.4,1,.64,1.49s.37.68.62,1.12c-1,0-1.92,0-2.81,0-.4,0-.9.13-1,.37-.37,1-1.31,1.86-.91,3.12l.62.55c.44-.27.64-.51.39-1A1.05,1.05,0,0,1,60,93.5c.32-.52.42-1.22,1-1.46l3.65.72.71-.77a15.07,15.07,0,0,1,2.57.2,6.65,6.65,0,0,0,2.25-.14,14.13,14.13,0,0,0,2-.75,14.31,14.31,0,0,1,1.2.88,3.74,3.74,0,0,0,1.28.59,9.25,9.25,0,0,1,1.45.86c.19,1.27-.48,2.34-.42,3.49h.7c.25-1.37.49-2.71.73-4.05-1.47-1.17-1.26-3-1.87-4.47l.52-.58H77l1.72,2.59.18-.07V89.6a3.28,3.28,0,0,1,1.16,1.81c.17.52.44.87.76.84l.77-.77c-.11-.15-.27-.4-.45-.64a9.43,9.43,0,0,1-1.06-1.32,3.41,3.41,0,0,0-1.22-1.28c-.52-.35-1-.82-1.7-.7-.37-.42-.73,0-1.1,0A1.53,1.53,0,0,0,75,88.1ZM52.67,81.24v.82c0,2.53,0,5.07,0,7.61,0,1.08.33,2.11.26,3.18a.32.32,0,0,0,0,.22c.67,1.14,1.07,2.48,2.35,3.16.5-.65.74-.74,1.4-.55L56,97.09a1.63,1.63,0,0,0,.4.28,1.25,1.25,0,0,0,.43,0,6.05,6.05,0,0,1,.95-1.88l.63,0-1.08,2.17.92.42a7,7,0,0,1,.15-1,2.51,2.51,0,0,1,.42-.87c.35-.4.18-.63-.07-1-.37-.56-.88-1.13-.6-1.89.34-.18.34-.18.52-1-.54.16-.76.67-1.19,1a3.61,3.61,0,0,1-1-3.17c.81-.64,1.62-1.32,2.46-1.95a1.48,1.48,0,0,1,.83-.23c.44,0,.9-.14,1.33.2.16.12.5,0,.73,0V87c-.34.06-.63.09-.91.17A1.36,1.36,0,0,1,59,86.42c-.09-.19-.17-.4-.19-.42.27-1.13,1.3-1.69,1.39-2.72-.55-.75-1.39-1.18-1.78-2ZM74.79,39.16a3.84,3.84,0,0,0-2.1-1.71A14.16,14.16,0,0,0,69,36.71a14.83,14.83,0,0,0-4.6.48,4.28,4.28,0,0,0-2.9,1.93c.17.15.29.33.45.39,1.79.58,3.52,1.32,5.25,2a2.19,2.19,0,0,0,1.84,0c.69-.3,1.41-.55,2.11-.84ZM68.65,43v9.49c1.37-.74,2.75-1.26,4-2.09a1.23,1.23,0,0,0,.66-1.12c0-.27-.06-.61.07-.78s.1-.59.16-.88a8,8,0,0,0,.23-.84A10.41,10.41,0,0,1,74,44.67c.37-1,.26-2.11.66-3.11a2,2,0,0,0,0-.71C72.63,41.69,70.56,42.13,68.65,43Zm-1,9.51V43.39c0-.37-.23-.49-.54-.6a36.32,36.32,0,0,1-4.59-1.63,6.52,6.52,0,0,0-1-.27l1.58,9.23A43.57,43.57,0,0,0,67.67,52.51Zm2.1,15.63.4-.25c.5,1.08.9,2.23,2.42,2.33,0-.29.09-.57,0-.73-.41-.65-.16-1.35-.21-2,0-.23.28-.55.2-.71a5.14,5.14,0,0,1-.23-1.84L69.9,63.55c-.71.24-1.5,0-2.2.14a3,3,0,0,0,2,1.9v.55c-.49.39-.91-.51-1.37,0A3.15,3.15,0,0,0,69.77,68.14ZM59.7,64.71c0,.76,0,1.54,0,2.32s-.51,1.44-.16,2.21c.68.18.28-.45.45-.66s.11-.57.2-.85a7.34,7.34,0,0,1,.34-.8c.39.92-.3,1.73,0,2.63.17-.07.33-.09.35-.16a22.56,22.56,0,0,1,1.4-4,.68.68,0,0,0,0-.54c-.24-.51-.52-1-.81-1.54Zm2.23,24.41c-.69-.06-1.42-.12-2.16-.16a.94.94,0,0,0-.53.11c-.61.42-1.18.89-1.79,1.3a.87.87,0,0,0-.3,1,2.77,2.77,0,0,0,.51.81l.68-.34-.29-1,1.62-1.31,2.65.43Zm8.23-11.68c.77-1.29.11-2.49-.23-3.68H69.1a12.67,12.67,0,0,1-.3,3.68Zm2.66-1.55a3.86,3.86,0,0,0-1.23-3.28l-1,.59c1.18,1.1,1.1,2.47,1.11,3.9ZM58.44,72.64c.41.17.64.4,1.05.17a.64.64,0,0,1,.81.16l-.15,1.35,1.08,1,.35-1.76-1.44-1.45C59.64,72.22,58.9,71.76,58.44,72.64Zm8.43.79c.36,1.25-.21,2.25-.38,3.24l1.09.35a6,6,0,0,0,.53-3.22Zm-1.36,2.92A6.26,6.26,0,0,0,66,73.58a3.23,3.23,0,0,0-.53-.29,2.37,2.37,0,0,0-.53,0L64.25,76Zm-2.2-.75A5,5,0,0,0,63.69,73H62.48c-.07.52-.12,1-.23,1.53-.22.94-.18,1,.76,1Zm9-4.11c.77,1,1.57,2,1.4,3.42.75-.32.75-.32,1.19-1.29a3,3,0,0,1-1.7-3Zm.88,25.64,1.47-3.58a.69.69,0,0,0-.95-.3,3.28,3.28,0,0,1-.38,1.64c-.25.55-.46,1.13-.76,1.67-.08.14,0,.36,0,.57ZM62.66,81.31a2.75,2.75,0,0,0-.75-.31,14.28,14.28,0,0,0-1.85,0c-.2,0-.4.19-.63.32l2.08.79ZM58.85,91.72c.69.25.42-.78,1-.69.33-.46.9,0,1.27-.31a.47.47,0,0,0,0-.12,1.8,1.8,0,0,0-.08-.21c-1.24,0-1.55,0-2.06.57A.54.54,0,0,0,58.85,91.72Z"/><path class="cls-2" d="M84.25,42.81a8.54,8.54,0,0,0,2.63-.24,5,5,0,0,0,1.65-.82A2.32,2.32,0,0,0,89,39.08,5.43,5.43,0,0,0,87.52,37a11,11,0,0,1,3.14,0,2.24,2.24,0,0,1,1.62,1.06c.15.26.34.5.53.79,1.64-1.13,3.24-1.4,4.87.1a21.63,21.63,0,0,0-3,3.71A8.47,8.47,0,0,1,91,45.79a3.85,3.85,0,0,0,.7.47,6.35,6.35,0,0,0,5.74-1.16,11.55,11.55,0,0,0,2.29-2.58c.43.7.86,1.34,1.23,2a6.1,6.1,0,0,1,.7,2.15,4.94,4.94,0,0,1-1,3.89,7,7,0,0,1-1.9,1.89c-.05,0-.05.13-.08.22.78.58,1.65,1,2.47,1.56A16,16,0,0,1,105,58c.29.4.83.59.91,1.15,1.19,1.21,1.94,2.74,3,4,.59.7,1.22,1.36,1.86,2a12.31,12.31,0,0,0,3.73,2.57c-.56,1.91-2.4,2.33-4.26,1.79a2.81,2.81,0,0,0,.33.83,6.3,6.3,0,0,1,1.14,2.81,21.65,21.65,0,0,1,.45,2.51,10.6,10.6,0,0,0,1,2.64,7.32,7.32,0,0,0,1.95,1.49,5.15,5.15,0,0,0,.59.27c-.68,2.17-1.6,2.9-3.08,2.63l1.45,1.45c-.17.52-.43.53-.74.59s-.88.38-1.34.43a4.27,4.27,0,0,1-1.3-.22,2,2,0,0,1-.8-.32,6.55,6.55,0,0,1-2.4-3.92c-.14-.68-.31-1.34-.47-2-.83,0-1.06.19-.92.86a3.76,3.76,0,0,0,.26.82,4.23,4.23,0,0,1,.44,1.81,9.66,9.66,0,0,1-.88,5c-.28.75-.65,1.44-1,2.17a20.68,20.68,0,0,0-1.33,3.42,4.33,4.33,0,0,0,.16,2.9c.1.23.18.46.3.76-1.09-.37-2.09,0-3-.24a25.81,25.81,0,0,1-2.6-.89c-.17.88-.74,1.69-.51,2.73-1.22.32-1.52-.7-2.13-1.4a10.85,10.85,0,0,1-4,3.83,10.15,10.15,0,0,1-5.41,1.13c.33-.78.75-1.48,1-2.25.18-.5-.12-1.09.36-1.49a11.7,11.7,0,0,1,.25-3,8.66,8.66,0,0,1,2.25-5.51s0-.13.08-.19c-2.39-2.05-2.18-2.67-2.07-4l.8.25a7.79,7.79,0,0,0,3.18.22,7.92,7.92,0,0,0,5.15-2.25,10.37,10.37,0,0,0,.82-1.11l-.65-.17.14-.21a3.65,3.65,0,0,0-.93.75c-.29.47-.86.28-1.15.65A9.06,9.06,0,0,1,93,83.18a3.29,3.29,0,0,0-.43-.09c-.75-.12-.85-.32-.48-1a3.62,3.62,0,0,1,.25-.48c.37-.54.35-.69-.25-1a1.76,1.76,0,0,1-.94-1.6l2.62-.38a4.94,4.94,0,0,1-.48-1.05,4.81,4.81,0,0,1,0-1.14c.76.06,1.47.15,2.17.18a7.86,7.86,0,0,0,3.48-.93c.44-.2.5-.62.66-1s-.12-.55-.44-.68a8.32,8.32,0,0,1-4.83,1.65c-.21,0-.42.15-.63.16a8,8,0,0,1-1.1,0c-.14,0-.28-.13-.42-.12a3.29,3.29,0,0,1-2.45-.93l1.78-1.26A6.36,6.36,0,0,0,90.28,73c-1.11-.26-2.42-1.23-2.45-2.42A5.09,5.09,0,0,1,90,70.19a8.73,8.73,0,0,0,1.54-.35c-.82-.59-1.79-.84-1.84-1.88,2.65-.33,3.79-1.4,3.9-3.36a4.16,4.16,0,0,1-3,.67,2.71,2.71,0,0,1-2.3-1.2c-.13-.23-.31-.4-.29-.7s0-.85,0-1.26c.52-.34,1.13-.36,1.59-.83a2.81,2.81,0,0,0,.08-3.13,10.71,10.71,0,0,0-3.44-2.69,45.56,45.56,0,0,1-5.38-3.11A12.63,12.63,0,0,1,77.5,49a5.66,5.66,0,0,1-.73-4,3.86,3.86,0,0,1,1.12-2c1.14-1.36,2.71-2.23,4-3.47.07-.07.27,0,.3-.09.14-.31.22-.72.66-.62.27.06.48.35.75.44a2,2,0,0,1,1.19,1.52c.18.54-.25,1.05-.35,1.58C84.37,42.47,84.32,42.58,84.25,42.81Zm5.93,20.92-.14.15h1.63a1.29,1.29,0,0,0,.56-.08c1-.48,1.89-1,2.83-1.48a9.61,9.61,0,0,1-.42,4,2.4,2.4,0,0,1-.59,1L92.56,68.7a8.14,8.14,0,0,0,.79.33c.26.1.55.16.92.26a6.37,6.37,0,0,1-3.48,2.11c-.07,0-.09.27-.12.36l2.6.36c-.16.44-.32.8-.44,1.17s-.53.67-.23,1.1A6.92,6.92,0,0,0,96,73.94a12.77,12.77,0,0,0,2.44-1.18,1.45,1.45,0,0,1,1.75.15,1.59,1.59,0,0,1,.69,1.67,3.18,3.18,0,0,1-1.55,2.28,9.57,9.57,0,0,1-3.89,1.08c-.06,0-.11.1-.21.19l.67.89-2.3,1c.22.47.68.73,1,1.22l-.69.67.27.26a18.65,18.65,0,0,0,1.94-.77A8.25,8.25,0,0,1,98,80.52l.68.37c1,.5,1.09,1.06.71,2.08a4.87,4.87,0,0,1-1.64,1.9,8.91,8.91,0,0,1-3.3,1.68,9.76,9.76,0,0,1-3.3.53H90L92.37,89c-.29.29-.54.57-.82.82a7.47,7.47,0,0,0-1.37,1.9,11.82,11.82,0,0,0-1.15,5,14.05,14.05,0,0,1-.62,3,4.26,4.26,0,0,0-.13.62,9.54,9.54,0,0,0,3.25-1,7.39,7.39,0,0,0,2.63-2.25,6.84,6.84,0,0,0,1.46-3.07c.61.45.55,1.35,1.22,1.61l1.57-3.31c1,1.67,1.73,2,3.73,1.9a4.55,4.55,0,0,1,.3-2.43,35,35,0,0,1,1.39-3.28A15.89,15.89,0,0,0,105.29,85a5.2,5.2,0,0,0,.33-2.2,9.65,9.65,0,0,0-.73-2.62,1.77,1.77,0,0,1,0-1.7,2.32,2.32,0,0,1,1.45-1.12,1.35,1.35,0,0,1,1.16.15c.45.19.53.62.66,1,.44,1.11.81,2.24,1.19,3.38a3,3,0,0,0,2,2l-.93-2.89c1.29.2,2.47,1.13,3.64-.12a3.54,3.54,0,0,0-.61-.49c-1.53-.8-2-2.25-2.49-3.76-.3-1-.45-2.08-.67-3.11a9.16,9.16,0,0,0-1.87-3.8c-.43-.54-.81-1.12-1.32-1.84a15.17,15.17,0,0,1,2.81.35,10.63,10.63,0,0,0,2.62.15,23.17,23.17,0,0,1-1.95-1.43,26.2,26.2,0,0,1-4.59-5.47,19.69,19.69,0,0,0-2.14-2.63c-.62-.69-1.32-1.32-2-2a13,13,0,0,0-1.78-1.35A30.6,30.6,0,0,0,95.8,53a27,27,0,0,0,3.55-3,4.12,4.12,0,0,0,.21-4.84,1.27,1.27,0,0,0-.27.18,6.73,6.73,0,0,1-4.82,2c-.78,0-1.56.06-2.34,0a9.16,9.16,0,0,1-1.91-.46c-.82-.28-1.62-.63-2.56-1a4.57,4.57,0,0,1,.71-.39A12.67,12.67,0,0,0,95,40.61a7.35,7.35,0,0,0,.59-1.34c-1.51,0-2.44,1-3.54,1.62-.54-.89-.51-2.21-1.87-2.58a5,5,0,0,0,.19.78A3.19,3.19,0,0,1,89.09,43a9,9,0,0,1-4,1.17c-1,0-1.94-.18-2.91-.28.32-.76.69-1.46,1-2.18s-.1-.9-.28-1.35c-.47.39-.84.71-1.22,1a12.47,12.47,0,0,0-3.06,2.73,3.21,3.21,0,0,0-.38,3.34,10.09,10.09,0,0,0,3.52,3.79c1.31,1,2.75,1.69,4.12,2.53,1.15.71,2.37,1.28,3.48,2.09a6.39,6.39,0,0,1,2.15,2.89,2.22,2.22,0,0,1,.07,1.69A3.34,3.34,0,0,1,90.79,62c-.45.4-.91.77-1.47,1.25Z"/><path class="cls-2" d="M42.6,64.54c.23,2.11,1.5,3.23,3.7,3.39.35,1.2-.81,1.28-1.57,1.88a6.16,6.16,0,0,0,1.59.4,4.78,4.78,0,0,0,.93,0c.3-.09.45.3.79.12s.47.16.4.46a1.78,1.78,0,0,1-.32.8A3.54,3.54,0,0,1,45.68,73a2.64,2.64,0,0,0-.71.3,3.38,3.38,0,0,0,1.77,1.26l-.49.3a3.28,3.28,0,0,1-2.41.71,1.79,1.79,0,0,0-.54.11c-.13,0-.34.12-.39.06-.33-.35-.74-.15-1.1-.17a8.17,8.17,0,0,1-4.32-1.47,4,4,0,0,0-.7-.27l-.07,1.06c.5,1.06,4.29,2.15,5.91,1.38.55.53.55.53,0,2.34a10.9,10.9,0,0,1,1.28,0,11.33,11.33,0,0,1,1.25.31c.15.23.08.48-.18.73s-.27.42-.44.58-.66.52-1,.79c.46.49,1,.88,1,1.7a4.22,4.22,0,0,1-2.14.56c-.67-.08-1.35.15-2-.19a3.18,3.18,0,0,1-.77-.41c-.32-.29-.68-.55-1-.8l-.4.35a4.37,4.37,0,0,0,2.6,2.46,8,8,0,0,1,1.29.56c.46.27.93,0,1.41.31a3.29,3.29,0,0,0,1.72.06c.51,0,1,.19,1.56-.19.29-.22.77-.17,1.22-.24.33,1.81-.63,3-2.09,3.83.44.75.87,1.46,1.28,2.19a9,9,0,0,1,1.11,4.23c0,.56.24,1.12.2,1.66a8.06,8.06,0,0,0,.27,1.78,7.18,7.18,0,0,0,.47,1.56,7.39,7.39,0,0,0,.66,1.07,9.85,9.85,0,0,1-9.34-4.93c-.53.7-1,1.49-2.12,1.46a3.83,3.83,0,0,0-.74-2.76,8.38,8.38,0,0,1-3.93.91c-.43,0-.93-.21-1.44.32.1-.54.14-1,.26-1.37a4,4,0,0,0,.08-2.3,22.41,22.41,0,0,0-1.9-4.72,10.48,10.48,0,0,1-1.12-3c-.13-.95-.76-1.95-.11-2.94a4.89,4.89,0,0,1,.63-2.43,3.37,3.37,0,0,0,.09-.77l-.89-.43c-.19.73-.41,1.39-.52,2.06a6.73,6.73,0,0,1-2.32,4c-.45.41-1,.3-1.54.55a1.31,1.31,0,0,1-1,0c-.58-.27-1.38-.09-1.76-.9.34-.59,1.33-.66,1.45-1.55a2,2,0,0,1-1.42-.17,3.25,3.25,0,0,1-1.63-2c-.13-.31.11-.53.33-.67s.6-.27.88-.43a4.48,4.48,0,0,0,2-2.87,17.6,17.6,0,0,0,.48-2.38,12.4,12.4,0,0,1,1.18-3.73c.08-.17.24-.29.33-.45a2.11,2.11,0,0,0,.18-.42c-1.89.48-3.61.15-4.27-1.83a13.12,13.12,0,0,0,4.95-3.8c1.1-1.3,2.08-2.71,3.05-4.11a22.31,22.31,0,0,1,4.12-4.61,14.24,14.24,0,0,1,3.92-2.47c-.54-.5-1-.92-1.46-1.35a6,6,0,0,1-1.62-2.84,4.64,4.64,0,0,1,.18-2.8,10.86,10.86,0,0,1,1.77-3.22,5.91,5.91,0,0,0,1.06,1.52,6.36,6.36,0,0,0,3.61,2.25,4.51,4.51,0,0,0,1.89.24,4.59,4.59,0,0,0,2.11-.7c-.31-.19-.5-.35-.71-.45a6,6,0,0,1-2.49-2.21A28,28,0,0,0,40.4,41c-.35-.44-.7-.89-1.08-1.3a4.88,4.88,0,0,0-.74-.54c.29-.82,1.09-1,1.76-1.17,1.15-.33,2.12.34,3.13.85a3.36,3.36,0,0,1,1.92-1.72c.1,0,.2-.12.3-.12h2.92c-.42.6-.78,1-1.06,1.5-.87,1.48-.75,3,.89,3.76a5.7,5.7,0,0,0,3.51.53c-.05-.68-.63-1.25-.39-2a2.31,2.31,0,0,1,.91-1.38,2.14,2.14,0,0,1,1.23-.57c.26.35.37.9.95,1,1.33,1.25,3,2.17,4.1,3.65a3.83,3.83,0,0,1,.83,3.41,9,9,0,0,1-4.09,5.37c-.78.55-1.61,1-2.4,1.56a6.61,6.61,0,0,1-.84.53,26.09,26.09,0,0,0-3.79,2.13,6.57,6.57,0,0,0-1.66,1.33,4,4,0,0,0-.67,3A3.17,3.17,0,0,0,48.22,62c0,.28,0,.54,0,.81a2.05,2.05,0,0,1-1.31,2A4.26,4.26,0,0,1,42.6,64.54ZM25.81,81a5.35,5.35,0,0,0-.53,1.46c0,.51-.71.81-.41,1.38a2,2,0,0,0,1.48-1,10.21,10.21,0,0,0,1.23-3.11,3.62,3.62,0,0,1,1.34-2.42,3.18,3.18,0,0,1,.87,0,3.92,3.92,0,0,1,1,.46,2,2,0,0,1,.65,2.17,12.5,12.5,0,0,0-.79,3.43c0,.39.25.7.25,1.07a5.43,5.43,0,0,0,.68,2.3c.56,1.21,1,2.48,1.66,3.64a6.13,6.13,0,0,1,.25.72,8.16,8.16,0,0,1,.72,3.29c2.22.18,2.81-.66,3.7-2l1.56,3.42,1.16-1.72A8.1,8.1,0,0,0,48,100.3l-.28-.61a15.11,15.11,0,0,1-.66-4,17.44,17.44,0,0,0-.53-2.72,6.88,6.88,0,0,0-2-3.28c-.23-.2-.43-.42-.71-.71A14.58,14.58,0,0,0,45.06,88c.32-.3.92-.3,1-.85a20.83,20.83,0,0,1-3.29-.35A6.3,6.3,0,0,1,41,86.27c-.53-.31-1.12-.53-1.64-.84a5.44,5.44,0,0,1-2.45-2.52A1.64,1.64,0,0,1,37,81.32c.29-.48.91-.57,1.4-.8a.17.17,0,0,1,.11,0,4.37,4.37,0,0,1,.87.42A8.49,8.49,0,0,0,42,82.1c.09,0,.25-.18.54-.41L41.81,81l.89-1a3,3,0,0,0-.35-.18,4.37,4.37,0,0,1-1.71-.67,1.06,1.06,0,0,1-.17-.26l.54-.82c-.61-.14-1.11-.28-1.61-.35a6.93,6.93,0,0,1-2.66-.94,2.77,2.77,0,0,1-1.4-2.63,1.68,1.68,0,0,1,2.44-1.37c.56.25,1.14.46,1.68.75a7.13,7.13,0,0,0,4.34.87L43,72.12c.69-.09,1.35-.16,2-.28a4.1,4.1,0,0,0,.79-.4c-1.81-.08-2.74-1.31-4-2.1l1.88-.64s0-.12-.1-.15c-1.23-.82-2.27-1.75-2.22-3.4-.46-1-.13-1.93-.19-2.83a21.14,21.14,0,0,0,2.84,1.45,7.83,7.83,0,0,0,2.18.14l.67-.82A3.4,3.4,0,0,1,45.5,62a3,3,0,0,1-.63-3.74A6.21,6.21,0,0,1,47,55.68a24,24,0,0,1,3.48-2.07A45.64,45.64,0,0,0,54.81,51c.37-.26.63-.74,1-.9.63-.26.84-.82,1.24-1.24A4.17,4.17,0,0,0,58,47.36a2.64,2.64,0,0,0,.27-1.64,3.65,3.65,0,0,0-.52-1.41,17.91,17.91,0,0,0-2.24-2.2,28.11,28.11,0,0,0-2.32-1.6,1.2,1.2,0,0,0-.08,1.43c.35.64.6,1.33.89,2a15.68,15.68,0,0,0-1.84.21A4.44,4.44,0,0,1,49.94,44a8.76,8.76,0,0,1-2.65-1,3.33,3.33,0,0,1-1.67-3c0-.6.35-1.08.44-1.76-.48.26-1,.28-1.17.91a13.12,13.12,0,0,1-.77,1.72,11,11,0,0,0-1.6-1.08c-.55-.25-1.08-.83-1.85-.42a10,10,0,0,0,3.27,4,19.58,19.58,0,0,0,4.62,2.31,12.21,12.21,0,0,1-6.76,1.58h-.23a5.61,5.61,0,0,1-3.51-1.14c-.63-.08-.78-.82-1.4-1a5.13,5.13,0,0,0-.61,3.43,6.77,6.77,0,0,0,1.67,2.34A32.13,32.13,0,0,0,40.52,53c-1.1.65-2.23,1.14-3.3,1.75a27.61,27.61,0,0,0-3.84,2.84,13,13,0,0,0-1.92,2.13c-1.12,1.48-2.14,3-3.3,4.49a15,15,0,0,1-3.07,3c-.43.31-.81.68-1.44,1.21l3.78-.32c.49-.41,1-.22,1.57-.17a7.9,7.9,0,0,1-.44.72c-.52.69-1.09,1.33-1.56,2a7.35,7.35,0,0,0-1.09,2.49c-.27,1.28-.51,2.57-.86,3.84A6.37,6.37,0,0,1,23,80.27a6,6,0,0,1-.87.57,2,2,0,0,0,2.33.4A5.16,5.16,0,0,1,25.81,81Z"/><path class="cls-2" d="M58.93,111.08l.47-1.46c-1.61-.53-3.25-1.09-4.9-1.62a24.31,24.31,0,0,1-4.79-2.08l3.64-1.56V101c.54-.23,1,.09,1.38.26A23.41,23.41,0,0,0,59,102.57c.44.1,1,0,1.28.25.45.38.95,0,1.41.33s.9,0,1.35.1a12.86,12.86,0,0,1,1.3.31c.25,1.12.25,1.12.1,1.48.69,0,1.39.07,2.08.07s1.23.43,1.89.24a13.15,13.15,0,0,1,3.44-.24,1.2,1.2,0,0,1,.29-1.6c.43.08,1-.37,1.64-.28s1.15-.38,1.77-.22a35,35,0,0,0,5.95-1.75,9,9,0,0,1,1-.36,1.23,1.23,0,0,1,.36,0v3.41l3.59,1.53A4.46,4.46,0,0,1,84.58,107c-1.85.71-3.7,1.46-5.62,2-.73.19-1.44.44-2.1.65l.48,1.49a33.87,33.87,0,0,1-18.41,0Zm1.14-.61a35.12,35.12,0,0,0,4.07.7c1.34.08,2.65.3,4,.3a31.06,31.06,0,0,0,4.11-.32,15.64,15.64,0,0,0,3.92-.77,12.91,12.91,0,0,1-.47-1.59c-.16-1-.75-1.75-.77-2.73a.5.5,0,0,0-.55-.48c-.23,0-.54-.09-.68,0-.54.41-1.12.13-1.68.22a13.32,13.32,0,0,1-1.65.22c-1.49,0-3,0-4.45,0-.24,0-.56.1-.69,0-.49-.43-1-.12-1.56-.21s-1.1-.17-1.65-.23-.58.18-.69.58c-.27,1-.61,2.08-.92,3.12C60.3,109.64,60.2,110,60.07,110.47Zm16.56-1.78A37.22,37.22,0,0,0,84.47,106L82,105c0-.46,0-1,0-1.46a7.62,7.62,0,0,0,0-1.44,64.83,64.83,0,0,1-6.77,2ZM61.12,104a51,51,0,0,1-6.84-1.89v2.81L51.87,106a38.19,38.19,0,0,0,7.75,2.71Z"/><path class="cls-2" d="M116.94,57.57a1.92,1.92,0,0,1-1.84.92,2,2,0,0,0-.35,0,3.38,3.38,0,0,1-2.33-.59,2.19,2.19,0,0,0-.27-.13L110,61a11.4,11.4,0,0,1-1.91-1.8c-.45-.49-.75-1.11-1.18-1.61C106,56.47,105,55.39,104,54.42a11.44,11.44,0,0,0-2.53-1.79c-.18-.1-.36-.23-.54-.34a6,6,0,0,1,2.41-2.47,13.29,13.29,0,0,0,1.82-1.53,2.79,2.79,0,0,0,.76-1.7h-1.52c-1.07-1.07-1.07-1.07-1.07-2.09l1.16-.4c-.08-.23-.16-.46-.25-.69l-.25-.73a1,1,0,0,1,1.15.12c.28.23.54.5.94.86l.05-1.17.94-.81c.63.68.65,1,0,2.42l1-.6h1.39a1.84,1.84,0,0,1-.76,1.34c-.32.28-.9.15-1.27.84a3.09,3.09,0,0,1,.61-.3,8.4,8.4,0,0,1,.88,0l.51.77-1.11,1.11a2.14,2.14,0,0,1-1.83-.51,4.56,4.56,0,0,1-2.26,3.34A6.84,6.84,0,0,0,103,51.23a16.37,16.37,0,0,1,1.91-.45,16.33,16.33,0,0,1,2,0c.71,0,1.41,0,2.11,0a17.11,17.11,0,0,1,1.89.23c.65.12,1.28.3,1.92.47s1.19.33,1.79.46c1.39.28,1.4.27,1.79.67a3.23,3.23,0,0,1-1.73,1.81Zm-7.13,2a3.29,3.29,0,0,0,.88-2.26,9.43,9.43,0,0,0-.33-2.27l2.2,1.39a4.61,4.61,0,0,0,2.67.89c-.55-.69-.94-1.24-1.4-1.71s-1.08-.94-1.64-1.42c.7-.41,1.58-.45,2.27-1.17-1.14-.29-2.15-.56-3.17-.81-.39-.1-.79-.16-1.19-.24a8,8,0,0,0-1.19-.22c-.93,0-1.87,0-2.8,0a5.14,5.14,0,0,0-2.07.66C106.71,54.26,108.27,56.86,109.81,59.53Z"/><path class="cls-2" d="M21.56,54.41c-.95-.33-1.31-1.21-2-2l1.86-.52c.81-.21,1.63-.4,2.43-.64.46-.14,1,.11,1.4-.29a28.19,28.19,0,0,1,3.18-.25,18.44,18.44,0,0,0,2.23,0,5.36,5.36,0,0,1,2.27.46c.05,0,.13,0,.29-.09-.68-.59-1.31-1.16-2-1.71a3.78,3.78,0,0,1-1.4-2.62,2.32,2.32,0,0,1-1.64.45,2.07,2.07,0,0,1-1.32-1l.5-.88,1.35.15c-.07-.11-.13-.33-.22-.34-1-.09-1.4-.72-1.74-1.61a2.89,2.89,0,0,1,2.36.41,1.86,1.86,0,0,0-.19-.53.78.78,0,0,1-.23-.61c0-.22,0-.46.09-.67a3.92,3.92,0,0,1,.35-.64l1,1v.94l.82-.83h.92c.36.68,0,1.21-.46,1.78a1.67,1.67,0,0,1,1.47.17c-.08,1.55-.57,2-2.55,2.1a2.86,2.86,0,0,0,.62,1.6,8.17,8.17,0,0,0,2,1.63,10.75,10.75,0,0,1,2.29,2.44,19.11,19.11,0,0,0-4.86,3.95c-.88,1-1.65,2.14-2.5,3.18-.44.53-1,1-1.49,1.5-1.15-.78-1.5-2.06-2.32-3.12-.12,0-.38,0-.52.12a2.63,2.63,0,0,1-1.64.58c-.28,0-.55,0-.82,0a1.94,1.94,0,0,1-1.82-.92Zm10.68-2a3.79,3.79,0,0,0-2.5-.71H27.52c-.24,0-.52-.08-.7,0a8.51,8.51,0,0,1-1.92.45c-.63.19-1.28.31-1.91.48-.36.1-.71.25-1.32.47l2.43,1.06a8.37,8.37,0,0,0-3,3.2c.39-.07.6-.09.8-.15a10,10,0,0,0,2.51-1.3,3.31,3.31,0,0,1,1.26-.74c0,.47.16,1,0,1.21-.53.7.07,1.3.07,1.94,0,.39.41.77.64,1.19.85-1.32,1.57-2.59,2.43-3.76A12.38,12.38,0,0,1,32.24,52.41Z"/><path class="cls-2" d="M60.5,36a17.65,17.65,0,0,0-1.78-4.85,4.57,4.57,0,0,1,2.48.19l1.55-3.1,2.6,1.29L67.94,27a7,7,0,0,1,1.57,1.38c.45.42.88.87,1.3,1.29l2.7-1.38,1.55,3.05c.77.09,1.59-.54,2.5-.11a14.3,14.3,0,0,0-1.74,4.84A22.25,22.25,0,0,0,73.7,34.9a9,9,0,0,0-3.92-1c-.4,0-.69-.24-1.07-.26a31.18,31.18,0,0,0-4.32.58c-.71.2-1.35.58-2,.78S61.23,35.82,60.5,36Zm14.66-1.37c-.08-1,.81-1.49.71-2.29l-1.36.14-1.36-2.65L70.6,31.14,68.06,28.6l-2.47,2.5-2.54-1.28-1.24,2.67a7,7,0,0,1-.93,0,4.21,4.21,0,0,1-.71-.26c.22.47.4.82.56,1.18s.3.8.43,1.13c.57-.22,1.12-.4,1.65-.64A11.83,11.83,0,0,1,66.64,33a1.61,1.61,0,0,0,1.2-.21.67.67,0,0,1,.66,0c.32.3.66.19,1,.18a12,12,0,0,1,3.14.62A21.85,21.85,0,0,1,75.16,34.67Z"/><path class="cls-2" d="M82.44,58.44H78.3A1.77,1.77,0,0,1,80,57.31,2.47,2.47,0,0,1,82.44,58.44Z"/><path class="cls-2" d="M53.77,58.49l1.11-1.15c1.21,0,2.45-.25,3.16,1.15Z"/><path class="cls-2" d="M59.88,29.85,59.61,28c.69.47,1.39.57,1.75,1.22l-.32.68Z"/><path class="cls-2" d="M76.34,29.91a4.12,4.12,0,0,1-.87,0,.79.79,0,0,1-.51-.37.71.71,0,0,1,.16-.6,12.1,12.1,0,0,1,1.13-.87C77.05,28.65,76.22,29.27,76.34,29.91Z"/><path class="cls-2" d="M70.25,27.28l.86-1.07a1.57,1.57,0,0,1,.55,1.41c0,.42-.21.62-.6.65s-.72-.11-.81-.56A3.08,3.08,0,0,1,70.25,27.28Z"/><path class="cls-2" d="M65,26.37c.64.15.75.69,1,1.07s-.08.74-.37.83a.77.77,0,0,1-1-.48A2,2,0,0,1,65,26.37Z"/><path class="cls-2" d="M70.13,95.51,69,97.83h-.78c0-.11-.08-.24,0-.32.25-.59.53-1.18.8-1.75,0-.1.16-.23.25-.24A9,9,0,0,1,70.13,95.51Z"/><path class="cls-2" d="M65.65,97.82h-.77c-.16-1,.68-1.5.91-2.26h1Z"/><path class="cls-2" d="M68.48,95.41c-.64,1-.55,2.29-1.94,2.49a3,3,0,0,1,.85-2.18C67.53,95.52,68,95.54,68.48,95.41Z"/><path class="cls-2" d="M65,95.51c.07.72-.54,1.09-.65,1.72a.81.81,0,0,1-1.14.55,3.43,3.43,0,0,1,1-2.17C64.35,95.45,64.76,95.53,65,95.51Z"/><path class="cls-2" d="M69.77,97.8c0-.91.71-1.45.86-2.27l.53,0h.48a14.83,14.83,0,0,1-.7,1.69A.93.93,0,0,1,69.77,97.8Z"/><path class="cls-2" d="M63.4,95.43l-.92,2.38h-.85c-.19-.57.33-.9.39-1.34a1.14,1.14,0,0,1,.51-.83C62.68,95.52,62.93,95.53,63.4,95.43Z"/><path class="cls-2" d="M83.28,74.89l.29.61a2.92,2.92,0,0,1-1.29.28c-1.25-.59-1.69-.21-1.77-2.46-1.71-.38-2.08-1.4-2.25-2.9l1.33,1.51a2.73,2.73,0,0,0,1.91.66c0,.14.06.34,0,.42-.44.46-.2.93.05,1.31a1.36,1.36,0,0,0,1.26.57C83,74.88,83.11,74.89,83.28,74.89Z"/><path class="cls-2" d="M77.13,72.32a12.8,12.8,0,0,1,.66,1.1A2,2,0,0,0,80,74.66l.3.63c-.25.1-.63.37-.76.28-.47-.34-1.11-.12-1.53-.54A2.53,2.53,0,0,1,77.13,72.32Z"/><path class="cls-2" d="M83.11,70v1c-1.07-.31-2.14-.5-2.58-1.64-.19-.52-.84-1.06-.09-1.7A2.84,2.84,0,0,0,83.11,70Z"/><path class="cls-2" d="M80.31,64.15v.61a1.66,1.66,0,0,1-1.41-.18c-.53-.36-1.14-.62-1.4-1.31a2.9,2.9,0,0,1-.14-1.72A3.62,3.62,0,0,0,80.31,64.15Z"/><path class="cls-2" d="M67.45,56.67a1.68,1.68,0,0,0-1.59.45V55.75c.48-.16.9-.5,1.53-.11.36.23,1,0,1.49,0h1.56v1.37c-.51-.2-1-.63-1.61-.34.09,1.26-.23,2.59.47,3.86H67C67.66,59.35,67.38,58,67.45,56.67Z"/><path class="cls-2" d="M69.6,45V44a28.78,28.78,0,0,1,3.65-1.34A9.85,9.85,0,0,1,69.6,45Z"/><path class="cls-2" d="M69.6,49.6v-1l3.2-1.32C72.49,48.22,71.67,48.81,69.6,49.6Z"/><path class="cls-2" d="M72.89,45.21a8,8,0,0,1-3.3,1.88v-1c.93-.31,1.91-.65,2.91-1C72.59,45.12,72.71,45.18,72.89,45.21Z"/><path class="cls-2" d="M66.74,44.07l0,.89a15.55,15.55,0,0,1-3.95-2.34c.79-.13,1.32.45,2,.61A4.64,4.64,0,0,1,66.74,44.07Z"/><path class="cls-2" d="M63.06,44.89l3.65,1.23V47c-.1,0-.23.08-.31,0-.78-.37-1.57-.73-2.32-1.14A9.85,9.85,0,0,1,63,45Z"/><path class="cls-2" d="M66.43,49.54a20.28,20.28,0,0,1-2-1,6.1,6.1,0,0,1-1-1c.35-.31.6,0,.91.1a11.82,11.82,0,0,1,1.9.73C66.88,48.69,66.88,48.88,66.43,49.54Z"/><path class="cls-2" d="M81.37,46.63c.28-.06.37-.11.42-.08a16.78,16.78,0,0,0,4.82,1.65c.84.17,1.7.27,2.49.51s1.84.09,2.77.36a10.09,10.09,0,0,0,2.91,0,2.6,2.6,0,0,0,1.44-.19c.29-.17.76,0,1.26,0a2.57,2.57,0,0,1-1.57.67,6.36,6.36,0,0,1-2.12.26,8,8,0,0,1-3.07.23,15.87,15.87,0,0,1-1.66-.13,8,8,0,0,0,2.1,1.91c1,.82,2.09,1.52,3.16,2.25,1.7,1.17,3.38,2.37,5.14,3.44.44.28.82.63,1.25.91a21.28,21.28,0,0,1,3.4,3.11,2.33,2.33,0,0,1,.22.57c-1.7-1.32-3.18-2.62-5.41-3,.48.76.82,1.36,1.22,1.92a18.39,18.39,0,0,1,2.43,4.26,29.43,29.43,0,0,0,2.14,3.8,1.38,1.38,0,0,0,.23.26c.88,1,1.75,1.93,2.65,2.88a7.5,7.5,0,0,1,1.56,3.22,2.61,2.61,0,0,1,0,.64c-.5-.51-.36-1.23-.92-1.57a3.77,3.77,0,0,0-1.33-1.79c-.92-.94-1.86-1.86-2.8-2.8,0,.08-.12.16-.1.21.44,1.55.09,3.14.24,4.7a15.61,15.61,0,0,1-.29,2.83,8.59,8.59,0,0,1-.74,2.49c-.12.27-.08.52-.17.75s.3.68,0,1.12,0,.76,0,1.15A7.4,7.4,0,0,1,102.4,86a6.51,6.51,0,0,1-1.15,2.1c-.1-.82.6-1.27.66-2s.35-1.27.43-1.91-.06-1.39,0-2.15c-.55.76-1.07,1.53-1.64,2.27s-1.19,1.54-1.82,2.29-1.26,1.43-1.9,2.14L95,91l-2,2.28c0-.28-.05-.41,0-.48a12.24,12.24,0,0,1,.83-1.07c.62-.72,1.29-1.41,1.89-2.14,1.39-1.68,2.83-3.3,4.08-5.1a36.06,36.06,0,0,0,2.46-4.25,3.29,3.29,0,0,0,.55-1.79c-.65.17-1.12.71-1.81.67a6.09,6.09,0,0,1-1.93-.24,6.59,6.59,0,0,0,.89,0,6.83,6.83,0,0,0,.73-.23,3.56,3.56,0,0,0,2.4-1.79c0-.07.15-.11.16-.17a22.85,22.85,0,0,0,.27-4.45c-.53-.5,0-1.29-.47-1.8a4.86,4.86,0,0,0-.48-1.79,13.82,13.82,0,0,0-.68-1.59l-.75-1.68s-.05-.06-.2-.22A4.79,4.79,0,0,1,100.2,68a4.94,4.94,0,0,1-1.47,1.72,8.75,8.75,0,0,1-1.81,1c-.11,0-.28,0-.36,0,.67-.63,1.35-1.24,2-1.9A4.42,4.42,0,0,0,100,65.48c.38-.64-.09-1.27,0-1.91a1.26,1.26,0,0,0-.29-.81A35.26,35.26,0,0,0,96.9,59a5.82,5.82,0,0,1-.53-.76c-.12.84-.18,1.47-.7,1.91s-1,1.22-1.9,1.42c0-.14-.12-.3-.07-.35A3,3,0,0,0,94,57.8a5,5,0,0,0-1.14-1.88,2.69,2.69,0,0,1-.39-.73l1,.25c0-.57-.4-.76-.68-1-.65-.56-1.36-1-2-1.59a25,25,0,0,0-3.61-2.33c-1.39-.8-2.81-1.54-4.16-2.39a10,10,0,0,1-1.15-.91A5.51,5.51,0,0,1,81.37,46.63Z"/><path class="cls-2" d="M39.78,70.55a4.26,4.26,0,0,1-3.16-1.79,7,7,0,0,1-1.52-3.29,2.68,2.68,0,0,0-.39.56c-.48,1.25-1,2.49-1.4,3.75A10.93,10.93,0,0,0,33,71.41a11.9,11.9,0,0,0-.23,1.19c0,.38,0,.78,0,1.17A9.15,9.15,0,0,0,33,76.48a2.54,2.54,0,0,0,1.39,1.68A5.22,5.22,0,0,0,37,79a3.88,3.88,0,0,1-3.54-.61,5.8,5.8,0,0,0,.26,1.33,23.53,23.53,0,0,0,3,5.19c1.08,1.34,2.09,2.72,3.16,4.07.52.66,1.1,1.27,1.65,1.89l1.74,2s0,.15,0,.23a2.63,2.63,0,0,1-1.16-1,2.92,2.92,0,0,0-.24-.37c-1-1.13-2.14-2.22-3.13-3.39s-2.08-2.38-3-3.65a25.51,25.51,0,0,0-1.87-2.56c-.41.73.22,1.32.11,2a5.24,5.24,0,0,0,.28,1.85c.13.63.62,1.15.61,2a2.59,2.59,0,0,1-.92-1.49,8.6,8.6,0,0,1-.72-3.57A7.76,7.76,0,0,1,33,80.06,2.55,2.55,0,0,0,32.73,79c-.4-.68-.31-1.48-.65-2.19a3.57,3.57,0,0,1,0-1.39c0-1.37,0-2.73,0-4.1A9.56,9.56,0,0,1,32.24,70c-.08,0-.31-.06-.32,0a4.79,4.79,0,0,1-1.26,1.46c-.62.65-1.29,1.25-1.9,1.92a5.57,5.57,0,0,0-1.49,2.77,2.06,2.06,0,0,1,.16-1.88,9,9,0,0,1,1.45-2.22A27.14,27.14,0,0,0,32.28,68c.57-1,1.16-2,1.63-3.07a32.78,32.78,0,0,1,2.93-5c.13-.2.22-.43.4-.77a12,12,0,0,0-5.2,2.8,2,2,0,0,1,.25-.51,28.92,28.92,0,0,1,6-4.84c2-1.25,3.89-2.66,5.85-4a20.5,20.5,0,0,0,3.16-2.76c-.39.06-.77.16-1.15.19a11.42,11.42,0,0,1-1.17,0,9.24,9.24,0,0,1-1.29,0A16.42,16.42,0,0,1,39,49.12c-.05,0-.08-.09-.22-.26.61.12,1.13-.16,1.62.25.12.09.38,0,.58,0,1,0,2,0,3,0,.52,0,1-.15,1.55-.22a4.32,4.32,0,0,0,1.44-.2,7.2,7.2,0,0,1,1.53-.24,32,32,0,0,0,4.22-1.12c.66-.23,1.24-.62,1.92-.82-.14.49-.19.45-.49.77A17,17,0,0,1,50,50a36.18,36.18,0,0,0-5.7,3.79c-.45.4-.95.75-1.37,1.19-.09.09-.11.24-.23.55l.93-.33c0,.09.06.17,0,.2A9.32,9.32,0,0,0,42,58.55a3.29,3.29,0,0,0,.27,2.28c.09.22.22.42.33.66a3.76,3.76,0,0,1-2.67-3.05c-.14.08-.31.11-.38.21-1,1.35-1.93,2.71-2.91,4.06a5.06,5.06,0,0,0-.43,1.35,2.14,2.14,0,0,0,0,1.37,9.36,9.36,0,0,0,.41,1.72,6.25,6.25,0,0,0,2.76,3.06A3.26,3.26,0,0,1,39.78,70.55Z"/><path class="cls-2" d="M70.93,107.59l.79-.78a1.31,1.31,0,0,1,1.41.39,1.42,1.42,0,0,1,.4,1.23,5.18,5.18,0,0,1-.12.88A1.27,1.27,0,0,1,73,110a1.41,1.41,0,0,1-.8.3,2.67,2.67,0,0,1-.78-.3v-.54c.1,0,.23-.1.31-.07a8.68,8.68,0,0,1,.8.41.61.61,0,0,0,.24-.83C71.33,108.82,71.22,108.75,70.93,107.59Zm1.69,1.26c-.06-.86.12-1.5-.68-1.94v1Z"/><path class="cls-2" d="M68.63,107.46v.62c1.41.11,1.91.34,1.85,1.59-1,1-1.38,1-2.32.51v-.81h.65l0,.76.67-.67-.22-1H68.4V107h1.95c-.16.2-.24.4-.33.41C69.56,107.48,69.1,107.46,68.63,107.46Z"/><path class="cls-2" d="M65.33,107.57V107c.67,0,1.35,0,2.15,0-.08.3-.12.53-.2.75-.17.47-.36.94-.55,1.4a6.19,6.19,0,0,1-.23.6c-.37.74-.56.75-1.21,0L67,107.6A2.64,2.64,0,0,0,65.33,107.57Z"/><path class="cls-2" d="M63.84,110l-1.6-.3c.33-.22.79-.25.76-.78,0-.35.5-.71,0-1.07l1.3-1.3c.22.58-.27,1.07-.33,1.63a1.87,1.87,0,0,1-.24.71C63.55,109.28,63.73,109.63,63.84,110Z"/></g></g></svg>