<svg xmlns="http://www.w3.org/2000/svg" viewBox="0 0 137.49 137.49"><defs><style>.cls-1{fill:#010101;}.cls-2{fill:#fff;}</style></defs><g id="Слой_2" data-name="Слой 2"><g id="Слой_1-2" data-name="Слой 1"><path class="cls-1" d="M68.74,0A68.75,68.75,0,1,1,0,68.74,68.75,68.75,0,0,1,68.74,0"/><path class="cls-2" d="M77.23,59.59V49.36h23.38V33.78H36.94V49.36H60.32V59.58c-19,.87-33.3,4.63-33.3,9.14s14.3,8.28,33.3,9.16v32.75H77.23V77.87c19-.87,33.24-4.63,33.24-9.14s-14.26-8.27-33.24-9.14m0,15.51h0c-.47,0-2.92.18-8.38.18-4.37,0-7.44-.13-8.52-.18h0C43.54,74.36,31,71.43,31,67.93s12.54-6.41,29.33-7.16V72.19c1.1.07,4.25.26,8.59.26,5.21,0,7.84-.22,8.32-.26V60.77c16.76.75,29.26,3.67,29.26,7.16S94,74.35,77.24,75.09"/></g></g></svg>