<svg xmlns="http://www.w3.org/2000/svg" xmlns:xlink="http://www.w3.org/1999/xlink" viewBox="0 0 150.4 160.91"><defs><style>.cls-1{fill:none;}.cls-2{clip-path:url(#clip-path);}.cls-3{fill:#080708;}.cls-4{fill:#fdfdfd;}.cls-5{fill:#f9f8f9;}.cls-6{fill:#1f2020;}.cls-7{fill:#111;}</style><clipPath id="clip-path" transform="translate(6.08 6.08)"><circle class="cls-1" cx="68.74" cy="68.74" r="68.74" transform="translate(-21.42 32.39) rotate(-23.04)"/></clipPath></defs><g id="Слой_2" data-name="Слой 2"><g id="Слой_1-2" data-name="Слой 1"><g class="cls-2"><path class="cls-3" d="M69.4,154.82q-34,0-68.07,0c-6.73,0-7.41-1.08-7.41-11.87q0-68.77,0-137.54c0-9.89,1.06-11.5,7.2-11.49H136.82c6.85,0,7.47,1,7.47,12.54V138.73c0,1.76.05,3.51,0,5.26-.23,9.32-1.15,10.82-6.82,10.82Q103.45,154.86,69.4,154.82Z" transform="translate(6.08 6.08)"/><path class="cls-4" d="M109.19,58.41c-1.47,0-2.53-.08-3.56,0-1.61.15-2.86,0-2.91-2a1.94,1.94,0,0,0-.32-1.09c-.85-1.14-8.48-.45-8.83.88-.52,2-1.68,2.51-3.57,2.28a32.67,32.67,0,0,0-3.85,0,9.9,9.9,0,0,1,1.3-3.52q3.84-8.77,7.72-17.51c1-2.3,6.37-3.89,8.49-2.6.48.29.47.77.58,1.23C105.86,43.38,107.49,50.73,109.19,58.41Z" transform="translate(6.08 6.08)"/><path class="cls-5" d="M86.28,40.28a12.88,12.88,0,0,0-6.71-1A2.47,2.47,0,0,0,77.16,41c-.28,1.18.76,1.68,1.56,2.15,1.31.78,2.75,1.35,4,2.16,4.48,2.81,4.79,8,.48,11.12-4.51,3.22-9.56,2.81-14.63,1.46-.88-.24-.92-.84-.78-1.56.25-1.29.5-2.58.77-4a15.13,15.13,0,0,0,7.69,1.44c1.3-.13,2.61-.41,3-1.78.46-1.55-.89-2.16-1.94-2.79-1.48-.88-3.11-1.53-4.48-2.54a5.73,5.73,0,0,1-1.22-8.55c2.57-3.42,10.9-5.23,14.62-3.2A1.11,1.11,0,0,1,87,36.29C86.73,37.49,86.55,38.72,86.28,40.28Z" transform="translate(6.08 6.08)"/><path class="cls-5" d="M43.63,46.7l1.6,3.93c1.81-4.54,3.69-8.69,5.09-13,.8-2.49,2-3.39,4.51-3a21.62,21.62,0,0,0,3.23,0c.09,1.35-.68,2.26-1.11,3.26-2.61,6.13-5.31,12.23-7.85,18.39A2.85,2.85,0,0,1,46,58.44c-4.66-.09-4.66,0-6-4.59s-2.55-9-4-13.43c-.37-1.1-.27-1.45.76-1.67a2,2,0,0,0,.36.18C39.66,41.18,42.52,43.2,43.63,46.7Z" transform="translate(6.08 6.08)"/><path class="cls-5" d="M57.07,58.12c1.27-7.32,2.58-14.63,3.76-22,.2-1.27.68-1.57,1.82-1.53,1.52.07,3.05,0,4.89,0-1,5.73-1.87,11.24-2.8,16.76-.09.57-.24,1.12-.32,1.69C63.52,59.07,63.52,59.07,57.07,58.12Z" transform="translate(6.08 6.08)"/><path class="cls-5" d="M36.71,38.75c-.67-1.81-2.54-1.89-3.93-2.62-1.07-.56-2.3-.81-3.45-1.49,3.71,0,7.4-.48,11.08.08,1,.16,1.41,1.14,1.61,2.15.48,2.33,1,4.65,1.56,7-.85.73-1.43.18-1.88-.47a23,23,0,0,0-5-4.67Z" transform="translate(6.08 6.08)"/><path class="cls-6" d="M36.67,38.7c2.5.24,3.53,2.4,5.09,3.88.53.51.54,1.82,1.82,1.26a2.18,2.18,0,0,1,.05,2.86c-2-2.51-4-5.06-6.61-6.94C36.73,39.55,36.12,39.27,36.67,38.7Z" transform="translate(6.08 6.08)"/><path class="cls-5" d="M69.3,106.54c-7.26,5.34-15.17,7.29-23.85,4.1-9.29-3.42-14.83-10.21-15.93-20-1.16-10.38,3-18.65,12.15-23.81,8.93-5,17.92-4.36,26.27,1.57,1.74,1.24,2.54,1,4-.12a24.24,24.24,0,1,1,17.87,43.49c-7.32,1.14-13.6-1.13-19.4-5.32-1.19-.62,1-2.19-.86-2.76C68.82,104.64,70.18,105.75,69.3,106.54Z" transform="translate(6.08 6.08)"/><path class="cls-7" d="M69.3,106.54c.85-1.66-1.62-1.87-1.43-3.33H72c.28,1.51-2.23,1.65-1.54,3.29Z" transform="translate(6.08 6.08)"/><path class="cls-6" d="M99.4,41.24c.71,3.1,1.31,5.75,2,8.67-1.75.44-3.42.15-5.36.2A61.48,61.48,0,0,1,99.4,41.24Z" transform="translate(6.08 6.08)"/><path class="cls-7" d="M37.54,87.58c.83-.72.79-1.81,1.11-2.73,1.18-3.37,1.15-3.38,5.23-2.82-.48,2.86-1,5.72-1.45,8.58l.07,0a9.24,9.24,0,0,0-.35,1.35c-.25,2-.24,2-2.84,2-.08-2.35.87-4.59,1-7.26-1.34,2.06-1.61,4.15-2.39,6-.28.67-.48,1.5-1.54,1.36s-.87-1.08-.89-1.77a14.76,14.76,0,0,0-.56-4.57A28.28,28.28,0,0,0,34.14,92c-.06,2-.91,2.52-2.87,1.87.57-3.52,1.08-7.08,1.73-10.6.49-2.69,2.54-1,4-1.45l.31,5.58C37.2,87.6,37.27,87.69,37.54,87.58Z" transform="translate(6.08 6.08)"/><path class="cls-7" d="M104.77,84.66c.3-1.58.08-3.79,3.08-2.63-.56,3.57-1.13,7.19-1.68,10.81-.07.49-.14.92-.67,1.14-.74.32-6-.16-6.47-.61-1.3-1.24-1.59-4.37-.61-6.49C99.73,84,101.39,83.43,104.77,84.66Z" transform="translate(6.08 6.08)"/><path class="cls-7" d="M42.43,90.61c1.58-2,3.42-3.57,6.68-2.94-1.54-2.19-3.27-.86-4.62-1.45-.47-2.69,1.7-2.27,3.11-2.4,2.21-.2,3.59.86,3.73,2.67.19,2.39-1,4.58-1,7,0,.18-.41.56-.56.52-1.6-.4-3.14.38-4.68.26-2.16-.17-1.82-2.21-2.28-3.61,0,0-.19,0-.28,0Z" transform="translate(6.08 6.08)"/><path class="cls-7" d="M91,87.15c-1.57-1.52-3.21-.41-4.55-.87.36-2.08,1.29-2.7,3.71-2.49,2.15.19,3.35,1.33,3.16,3.25s-.56,3.93-.83,5.9c0,.37-.07,1-.4.94-2-.51-3.94,1-5.87,0a2.54,2.54,0,0,1-1.32-2.64A3.71,3.71,0,0,1,87.28,88C88.36,87.48,89.66,87.82,91,87.15Z" transform="translate(6.08 6.08)"/><path class="cls-7" d="M65.42,90.21c1.17,2.61,3.09,1.5,4.8,1.3.29,1.09.29,2-.8,2.48a5.1,5.1,0,0,1-4.94-.52c-1.52-1-2.16-3.58-1.41-5.76.67-2,1.73-3.71,4.07-3.95a3.41,3.41,0,0,1,3.27,1.41c.93,1.3.67,2.75.45,4.15-.11.67-.88.56-1.44.6C68.2,90,67,89.7,65.42,90.21Z" transform="translate(6.08 6.08)"/><path class="cls-7" d="M76.82,87A23.75,23.75,0,0,1,78.1,84.2a5.41,5.41,0,0,1,5-2.74c2.3.09,2.54.48,2.14,3.29-1.89-.87-3.74-1-4.91,1A4.7,4.7,0,0,0,80,90.43c.9,1.78,2.56,1.13,4.18.9,0,1.39,0,2.62-1.62,2.92a4.42,4.42,0,0,1-4.77-1.84c-1.19-1.69-1-3.6-.89-5.51Z" transform="translate(6.08 6.08)"/><path class="cls-7" d="M54.25,86.55c1.91,2.07,5,3.15,2.89,6.25-1.12,1.63-3.28,1.89-6.22.84C50.6,90,54.23,93.25,55,91c-1.54-1.39-4.47-2.6-2.6-5.61,1.36-2.21,3.58-1.59,5.65-1.35C58.39,87,56.15,86.14,54.25,86.55Z" transform="translate(6.08 6.08)"/><path class="cls-7" d="M58,91.35c.39-2.33.75-4.68,1.2-7,.15-.75,0-1.62,1.24-1.93,1.75-.44,1.61,1.22,2.32,1.84s.39,1.54-.54,2.27A3.76,3.76,0,0,0,62,91.77a1.45,1.45,0,0,1,.2,1.59c-.32.83-1.14,1-1.91,1a1.81,1.81,0,0,1-1.89-1A8.89,8.89,0,0,1,58,91.35Z" transform="translate(6.08 6.08)"/><path class="cls-7" d="M76.89,86.9c-1.75-.39-2,1-2.3,2.09a23.8,23.8,0,0,0-.6,3.07c-.37,2-.37,2-2.91,1.84.41-2.78.85-5.54,1.21-8.31.17-1.35,1.11-2.08,2.08-1.42s1.71-.33,2.54-.12c.64,1-1.11,1.9-.09,2.9Z" transform="translate(6.08 6.08)"/><path class="cls-7" d="M98.94,84.23a18.6,18.6,0,0,0-3.33,8.86c-.14,1.64-1.66.91-2.8.81.45-3,.93-5.75,1.28-8.55.14-1.18.83-1.58,1.73-1.25A6.58,6.58,0,0,0,98.94,84.23Z" transform="translate(6.08 6.08)"/><path class="cls-7" d="M64.37,98.08H75.5c-.35,2.13-1.5,2.9-3.55,2.7a22.06,22.06,0,0,0-4.3,0C65.79,101,64.79,100.21,64.37,98.08Z" transform="translate(6.08 6.08)"/><path class="cls-7" d="M76.58,80H63.52c.22-1.79,1-2.56,2.85-2.46,2.38.13,4.78,0,7.17,0C75.62,77.6,75.62,77.61,76.58,80Z" transform="translate(6.08 6.08)"/><path class="cls-7" d="M66.36,74.86c.4-1.89,1.48-2.51,3.28-2.46s3.68-.09,4.14,2.46Z" transform="translate(6.08 6.08)"/><path class="cls-5" d="M37.54,87.58l-.24.4c-.25-.22-.28-.43,0-.63A2.39,2.39,0,0,0,37.54,87.58Z" transform="translate(6.08 6.08)"/><path class="cls-5" d="M104,88.56c0,1.38-.25,2.82-1.94,3-1.3.12-1.45-1.13-1.37-2,.12-1.3.28-2.87,2-3C103.94,86.4,103.94,87.6,104,88.56Z" transform="translate(6.08 6.08)"/><path class="cls-5" d="M48.36,89.84c-.41,1.23-.71,2.27-2.08,2.11a.82.82,0,0,1-.68-1.07C46,89.58,47,89.56,48.36,89.84Z" transform="translate(6.08 6.08)"/><path class="cls-5" d="M90.11,89.65c.09,1.38-.36,2.2-1.57,2.35-.69.09-1-.51-.88-1.11C88,89.49,89.05,89.75,90.11,89.65Z" transform="translate(6.08 6.08)"/><path class="cls-5" d="M68.74,87.5a4.35,4.35,0,0,1-2.76.21C67.1,85.81,67.1,85.81,68.74,87.5Z" transform="translate(6.08 6.08)"/></g></g></g></svg>