<?xml version="1.0" encoding="utf-8"?>
<!-- Generator: Adobe Illustrator 28.1.0, SVG Export Plug-In . SVG Version: 6.00 Build 0)  -->
<svg version="1.1" id="Layer_1" xmlns="http://www.w3.org/2000/svg" xmlns:xlink="http://www.w3.org/1999/xlink" x="0px" y="0px"
	 viewBox="0 0 137.5 137.5" style="enable-background:new 0 0 137.5 137.5;" xml:space="preserve">
<style type="text/css">
	.st0{clip-path:url(#SVGID_00000021828951740370168100000006378361996570346938_);}
	.st1{fill:#080708;}
	.st2{fill:#FDFDFD;}
	.st3{fill:#F9F8F9;}
	.st4{fill:#1F2020;}
	.st5{fill:#111111;}
</style>
<g id="Слой_2">
	<g id="Слой_1-2">
		<g>
			<defs>
				<circle id="SVGID_1_" cx="68.7" cy="68.7" r="68.7"/>
			</defs>
			<clipPath id="SVGID_00000069372208901397643170000007938524944281644955_">
				<use xlink:href="#SVGID_1_"  style="overflow:visible;"/>
			</clipPath>
			<g style="clip-path:url(#SVGID_00000069372208901397643170000007938524944281644955_);">
				<path class="st1" d="M69.4,154.8c-22.7,0-45.4,0-68.1,0c-6.7,0-7.4-1.1-7.4-11.9c0-45.8,0-91.7,0-137.5C-6.1-4.5-5-6.1,1.1-6.1
					h135.7c6.8,0,7.5,1,7.5,12.5v132.3c0,1.8,0.1,3.5,0,5.3c-0.2,9.3-1.1,10.8-6.8,10.8C114.8,154.8,92.1,154.8,69.4,154.8z"/>
				<path class="st2" d="M109.2,58.4c-1.5,0-2.5-0.1-3.6,0c-1.6,0.1-2.9,0-2.9-2c0-0.4-0.1-0.8-0.3-1.1c-0.8-1.1-8.5-0.4-8.8,0.9
					c-0.5,2-1.7,2.5-3.6,2.3c-1.3-0.1-2.6-0.1-3.8,0c0.2-1.2,0.6-2.4,1.3-3.5c2.6-5.8,5.1-11.7,7.7-17.5c1-2.3,6.4-3.9,8.5-2.6
					c0.5,0.3,0.5,0.8,0.6,1.2C105.9,43.4,107.5,50.7,109.2,58.4z"/>
				<path class="st3" d="M86.3,40.3c-2.1-0.9-4.4-1.3-6.7-1c-1.1,0-2.1,0.7-2.4,1.7c-0.3,1.2,0.8,1.7,1.6,2.1c1.3,0.8,2.7,1.3,4,2.2
					c4.5,2.8,4.8,8,0.5,11.1c-4.5,3.2-9.6,2.8-14.6,1.5c-0.9-0.2-0.9-0.8-0.8-1.6c0.2-1.3,0.5-2.6,0.8-4c2.4,1.1,5,1.6,7.7,1.4
					c1.3-0.1,2.6-0.4,3-1.8c0.5-1.5-0.9-2.2-1.9-2.8c-1.5-0.9-3.1-1.5-4.5-2.5c-2.7-1.7-3.4-5.3-1.7-7.9c0.1-0.2,0.3-0.4,0.5-0.6
					c2.6-3.4,10.9-5.2,14.6-3.2c0.6,0.2,0.9,0.8,0.8,1.4c0,0,0,0,0,0C86.7,37.5,86.6,38.7,86.3,40.3z"/>
				<path class="st3" d="M43.6,46.7l1.6,3.9c1.8-4.5,3.7-8.7,5.1-13c0.8-2.5,2-3.4,4.5-3c1.1,0.1,2.2,0.1,3.2,0
					c0.1,1.3-0.7,2.3-1.1,3.3c-2.6,6.1-5.3,12.2-7.8,18.4c-0.3,1.4-1.7,2.3-3.1,2.2c-4.7-0.1-4.7,0-6-4.6c-1.3-4.6-2.5-9-4-13.4
					c-0.4-1.1-0.3-1.4,0.8-1.7c0.1,0.1,0.2,0.1,0.4,0.2C39.7,41.2,42.5,43.2,43.6,46.7z"/>
				<path class="st3" d="M57.1,58.1c1.3-7.3,2.6-14.6,3.8-22c0.2-1.3,0.7-1.6,1.8-1.5c1.5,0.1,3,0,4.9,0c-1,5.7-1.9,11.2-2.8,16.8
					c-0.1,0.6-0.2,1.1-0.3,1.7C63.5,59.1,63.5,59.1,57.1,58.1z"/>
				<path class="st3" d="M36.7,38.8c-0.7-1.8-2.5-1.9-3.9-2.6c-1.1-0.6-2.3-0.8-3.4-1.5c3.7,0,7.4-0.5,11.1,0.1
					c1,0.2,1.4,1.1,1.6,2.1c0.5,2.3,1,4.6,1.6,7c-0.8,0.7-1.4,0.2-1.9-0.5C40.3,41.6,38.6,40,36.7,38.8L36.7,38.8z"/>
				<path class="st4" d="M36.7,38.7c2.5,0.2,3.5,2.4,5.1,3.9c0.5,0.5,0.5,1.8,1.8,1.3c0.7,0.8,0.7,2,0,2.9c-2-2.5-4-5.1-6.6-6.9
					C36.7,39.6,36.1,39.3,36.7,38.7z"/>
				<path class="st3" d="M69.3,106.5c-7.3,5.3-15.2,7.3-23.8,4.1c-9.3-3.4-14.8-10.2-15.9-20c-1.2-10.4,3-18.6,12.1-23.8
					c8.9-5,17.9-4.4,26.3,1.6c1.7,1.2,2.5,1,4-0.1c10.8-8,25.9-5.7,33.9,5.1c8,10.8,5.7,25.9-5.1,33.9c-3.2,2.4-7,3.9-10.9,4.5
					c-7.3,1.1-13.6-1.1-19.4-5.3c-1.2-0.6,1-2.2-0.9-2.8C68.8,104.6,70.2,105.7,69.3,106.5z"/>
				<path class="st5" d="M69.3,106.5c0.8-1.7-1.6-1.9-1.4-3.3H72c0.3,1.5-2.2,1.6-1.5,3.3L69.3,106.5z"/>
				<path class="st4" d="M99.4,41.2c0.7,3.1,1.3,5.7,2,8.7c-1.7,0.4-3.4,0.1-5.4,0.2C96.9,47.1,98.1,44.1,99.4,41.2z"/>
				<path class="st5" d="M37.5,87.6c0.8-0.7,0.8-1.8,1.1-2.7c1.2-3.4,1.1-3.4,5.2-2.8c-0.5,2.9-1,5.7-1.4,8.6h0.1
					c-0.2,0.4-0.3,0.9-0.3,1.3c-0.2,2-0.2,2-2.8,2c-0.1-2.3,0.9-4.6,1-7.3c-1.3,2.1-1.6,4.1-2.4,6c-0.3,0.7-0.5,1.5-1.5,1.4
					s-0.9-1.1-0.9-1.8c0.1-1.5-0.1-3.1-0.6-4.6c-0.4,1.4-0.6,2.8-0.8,4.3c-0.1,2-0.9,2.5-2.9,1.9c0.6-3.5,1.1-7.1,1.7-10.6
					c0.5-2.7,2.5-1,4-1.4l0.3,5.6C37.2,87.6,37.3,87.7,37.5,87.6z"/>
				<path class="st5" d="M104.8,84.7c0.3-1.6,0.1-3.8,3.1-2.6c-0.6,3.6-1.1,7.2-1.7,10.8c-0.1,0.5-0.1,0.9-0.7,1.1
					c-0.7,0.3-6-0.2-6.5-0.6c-1.3-1.2-1.6-4.4-0.6-6.5C99.7,84,101.4,83.4,104.8,84.7z"/>
				<path class="st5" d="M42.4,90.6c1.6-2,3.4-3.6,6.7-2.9c-1.5-2.2-3.3-0.9-4.6-1.4c-0.5-2.7,1.7-2.3,3.1-2.4
					c2.2-0.2,3.6,0.9,3.7,2.7c0.2,2.4-1,4.6-1,7c0,0.2-0.4,0.6-0.6,0.5c-1.6-0.4-3.1,0.4-4.7,0.3c-2.2-0.2-1.8-2.2-2.3-3.6
					C42.8,90.7,42.6,90.7,42.4,90.6L42.4,90.6z"/>
				<path class="st5" d="M91,87.1c-1.6-1.5-3.2-0.4-4.5-0.9c0.4-2.1,1.3-2.7,3.7-2.5c2.1,0.2,3.3,1.3,3.2,3.2
					c-0.2,1.9-0.6,3.9-0.8,5.9c0,0.4-0.1,1-0.4,0.9c-2-0.5-3.9,1-5.9,0c-1-0.5-1.5-1.6-1.3-2.6c0.1-1.5,1-2.7,2.4-3.2
					C88.4,87.5,89.7,87.8,91,87.1z"/>
				<path class="st5" d="M65.4,90.2c1.2,2.6,3.1,1.5,4.8,1.3c0.3,1.1,0.3,2-0.8,2.5c-1.6,0.7-3.5,0.5-4.9-0.5
					c-1.5-1-2.2-3.6-1.4-5.8c0.7-2,1.7-3.7,4.1-3.9c1.3-0.2,2.5,0.4,3.3,1.4c0.9,1.3,0.7,2.7,0.4,4.1c-0.1,0.7-0.9,0.6-1.4,0.6
					C68.2,90,67,89.7,65.4,90.2z"/>
				<path class="st5" d="M76.8,87c0.4-1,0.8-1.9,1.3-2.8c1-1.8,2.9-2.8,5-2.7c2.3,0.1,2.5,0.5,2.1,3.3c-1.9-0.9-3.7-1-4.9,1
					c-0.9,1.4-1.1,3.2-0.3,4.7c0.9,1.8,2.6,1.1,4.2,0.9c0,1.4,0,2.6-1.6,2.9c-1.8,0.5-3.7-0.3-4.8-1.8C76.6,90.7,76.8,88.8,76.8,87
					L76.8,87z"/>
				<path class="st5" d="M54.3,86.5c1.9,2.1,5,3.1,2.9,6.2c-1.1,1.6-3.3,1.9-6.2,0.8C50.6,90,54.2,93.2,55,91
					c-1.5-1.4-4.5-2.6-2.6-5.6c1.4-2.2,3.6-1.6,5.6-1.3C58.4,87,56.2,86.1,54.3,86.5z"/>
				<path class="st5" d="M58,91.3c0.4-2.3,0.7-4.7,1.2-7c0.1-0.7,0-1.6,1.2-1.9c1.7-0.4,1.6,1.2,2.3,1.8c0.7,0.6,0.4,1.5-0.5,2.3
					c-1.5,1.4-1.6,3.7-0.2,5.2c0.4,0.4,0.5,1.1,0.2,1.6c-0.3,0.8-1.1,1-1.9,1c-0.8,0.1-1.5-0.3-1.9-1C58.2,92.7,58.1,92,58,91.3z"/>
				<path class="st5" d="M76.9,86.9c-1.7-0.4-2,1-2.3,2.1c-0.3,1-0.5,2-0.6,3.1c-0.4,2-0.4,2-2.9,1.8c0.4-2.8,0.8-5.5,1.2-8.3
					c0.2-1.3,1.1-2.1,2.1-1.4c1,0.7,1.7-0.3,2.5-0.1C77.6,85,75.8,85.9,76.9,86.9L76.9,86.9z"/>
				<path class="st5" d="M98.9,84.2c-1.9,2.6-3,5.7-3.3,8.9c-0.1,1.6-1.7,0.9-2.8,0.8c0.4-3,0.9-5.7,1.3-8.5
					c0.1-1.2,0.8-1.6,1.7-1.2C96.8,84.4,97.9,84.4,98.9,84.2z"/>
				<path class="st5" d="M64.4,98.1h11.1c-0.3,2.1-1.5,2.9-3.5,2.7c-1.4-0.1-2.9-0.1-4.3,0C65.8,101,64.8,100.2,64.4,98.1z"/>
				<path class="st5" d="M76.6,80H63.5c0.2-1.8,1-2.6,2.8-2.5c2.4,0.1,4.8,0,7.2,0C75.6,77.6,75.6,77.6,76.6,80z"/>
				<path class="st5" d="M66.4,74.9c0.4-1.9,1.5-2.5,3.3-2.5c1.8,0.1,3.7-0.1,4.1,2.5H66.4z"/>
				<path class="st3" d="M37.5,87.6L37.3,88c-0.2-0.2-0.3-0.4,0-0.6C37.4,87.4,37.5,87.5,37.5,87.6z"/>
				<path class="st3" d="M104,88.6c0,1.4-0.2,2.8-1.9,3c-1.3,0.1-1.4-1.1-1.4-2c0.1-1.3,0.3-2.9,2-3C103.9,86.4,103.9,87.6,104,88.6
					z"/>
				<path class="st3" d="M48.4,89.8c-0.4,1.2-0.7,2.3-2.1,2.1c-0.4-0.1-0.8-0.5-0.7-0.9c0-0.1,0-0.1,0-0.2
					C46,89.6,47,89.6,48.4,89.8z"/>
				<path class="st3" d="M90.1,89.6c0.1,1.4-0.4,2.2-1.6,2.3c-0.7,0.1-1-0.5-0.9-1.1C88,89.5,89.1,89.7,90.1,89.6z"/>
				<path class="st3" d="M68.7,87.5c-0.9,0.4-1.8,0.4-2.8,0.2C67.1,85.8,67.1,85.8,68.7,87.5z"/>
			</g>
		</g>
	</g>
</g>
</svg>
