<svg xmlns="http://www.w3.org/2000/svg" viewBox="0 0 137.49 137.49"><defs><style>.cls-1{fill:#111;}.cls-2{fill:#fff;}</style></defs><g id="Слой_2" data-name="Слой 2"><g id="Слой_1-2" data-name="Слой 1"><circle class="cls-1" cx="68.74" cy="68.74" r="68.74" transform="translate(-21.42 32.39) rotate(-23.04)"/><path class="cls-2" d="M26.4,49.43c.66,0,1.13-.12,1.61-.12,6.3,0,12.61,0,18.92,0,1.46,0,1.91.45,1.89,1.9-.07,4.58,0,9.17,0,13.76a4.52,4.52,0,0,0,.35,1.83c1.37-9.39,5.71-16.87,13.92-21.72S79.93,39.7,88.74,43.1A27.45,27.45,0,0,1,106,72.66,28.37,28.37,0,0,1,79.66,96.52C66.47,97.38,51.05,88.14,49,70.79a12.61,12.61,0,0,0-.23,1.73c0,5,0,10.06,0,15.09,0,1.47-.37,2.12-2,2a54,54,0,0,0-6,0,1.9,1.9,0,0,1-2.25-1.57c-3-9.36-6-18.71-9-28.06-.9-2.84-1.82-5.68-2.73-8.52C26.75,50.86,26.61,50.22,26.4,49.43ZM78,79.44c5.84,0,11-5.11,11-10.84S83.77,58.08,77.87,58.09,66.79,63,66.82,68.8,72,79.46,78,79.44Z"/></g></g></svg>