<svg xmlns="http://www.w3.org/2000/svg" xmlns:xlink="http://www.w3.org/1999/xlink" viewBox="0 0 235.39 137.31"><defs><style>.cls-1{fill:none;}.cls-2{fill:#fff;}.cls-3{clip-path:url(#clip-path);}.cls-4{clip-path:url(#clip-path-2);}.cls-5{clip-path:url(#clip-path-3);}.cls-6{fill:#d50e39;}</style><clipPath id="clip-path" transform="translate(50.16 1.76)"><circle class="cls-1" cx="66.89" cy="66.89" r="66.89"/></clipPath><clipPath id="clip-path-2" transform="translate(50.16 1.76)"><rect class="cls-2" x="-50.16" y="-1.76" width="235.39" height="137.31"/></clipPath><clipPath id="clip-path-3" transform="translate(50.16 1.76)"><rect class="cls-1" x="-50.16" y="-1.76" width="235.39" height="137.31"/></clipPath></defs><g id="Слой_2" data-name="Слой 2"><g id="Слой_1-2" data-name="Слой 1"><g class="cls-3"><g id="GEORGIA"><rect class="cls-2" width="235.39" height="137.31"/><g class="cls-4"><g class="cls-5"><path class="cls-6" d="M5.68,29.21a71,71,0,0,1-.76,7.47c-.13.79-.28,1.57-.41,2.35a37.72,37.72,0,0,1,4.69-.3,37.89,37.89,0,0,1,4.67.3c-.15-.78-.28-1.56-.41-2.35a68.44,68.44,0,0,1-.73-7.47,68.23,68.23,0,0,1,9.78,1.17,40.78,40.78,0,0,1,0-9.37,69.68,69.68,0,0,1-9.78,1.16,63.76,63.76,0,0,1,1.14-9.82,37.9,37.9,0,0,1-4.67.29,37.74,37.74,0,0,1-4.69-.29,77.24,77.24,0,0,1,1.17,9.82A70.54,70.54,0,0,1-4.16,21a34.54,34.54,0,0,1,.3,4.69,34.7,34.7,0,0,1-.3,4.68,69.07,69.07,0,0,1,9.84-1.17" transform="translate(50.16 1.76)"/><path class="cls-6" d="M122.38,29.21a71,71,0,0,1-.76,7.47c-.1.79-.25,1.57-.4,2.35a37.77,37.77,0,0,1,4.67-.3,38.18,38.18,0,0,1,4.68.3c-.15-.78-.26-1.56-.38-2.35a66.09,66.09,0,0,1-.77-7.47,69.45,69.45,0,0,1,9.83,1.17,34.46,34.46,0,0,1,0-9.37,70.93,70.93,0,0,1-9.83,1.16,79.09,79.09,0,0,1,1.15-9.82,38.18,38.18,0,0,1-4.68.29,37.78,37.78,0,0,1-4.67-.29,70.61,70.61,0,0,1,1.16,9.82A70.79,70.79,0,0,1,112.56,21a38,38,0,0,1,0,9.37,69.31,69.31,0,0,1,9.82-1.17" transform="translate(50.16 1.76)"/><path class="cls-6" d="M12.73,104.56a67.54,67.54,0,0,1,.73-7.46c.13-.78.26-1.58.41-2.36A37.89,37.89,0,0,1,9.2,95a37.72,37.72,0,0,1-4.69-.3c.13.78.28,1.58.41,2.36a70,70,0,0,1,.76,7.46,73.68,73.68,0,0,1-9.84-1.16,34.29,34.29,0,0,1,.3,4.68,34.24,34.24,0,0,1-.3,4.67,70.54,70.54,0,0,1,9.84-1.15,77.08,77.08,0,0,1-1.17,9.81,37.91,37.91,0,0,1,9.36,0,63.64,63.64,0,0,1-1.14-9.81,69.68,69.68,0,0,1,9.78,1.15,40.61,40.61,0,0,1,0-9.35,72.79,72.79,0,0,1-9.78,1.16" transform="translate(50.16 1.76)"/><path class="cls-6" d="M129.42,104.56a72.74,72.74,0,0,1,.77-7.46c.12-.78.23-1.58.38-2.36a38.18,38.18,0,0,1-4.68.3,37.77,37.77,0,0,1-4.67-.3c.15.78.3,1.58.4,2.36a70,70,0,0,1,.76,7.46,74,74,0,0,1-9.82-1.16,37.83,37.83,0,0,1,0,9.35,70.78,70.78,0,0,1,9.82-1.15,70.47,70.47,0,0,1-1.16,9.81,37.78,37.78,0,0,1,4.67-.29,38.18,38.18,0,0,1,4.68.29,78.93,78.93,0,0,1-1.15-9.81,70.93,70.93,0,0,1,9.83,1.15,34.31,34.31,0,0,1,0-9.35,74.12,74.12,0,0,1-9.83,1.16" transform="translate(50.16 1.76)"/><rect class="cls-6" x="103.87" width="27.66" height="137.31"/><rect class="cls-6" y="54.79" width="235.39" height="27.7"/></g></g></g></g></g></g></svg>