<svg xmlns="http://www.w3.org/2000/svg" xmlns:xlink="http://www.w3.org/1999/xlink" viewBox="0 0 229.97 135.86"><defs><style>.cls-1{fill:none;}.cls-2{clip-path:url(#clip-path);}.cls-3{fill:#fff;}.cls-4{fill:#264b9b;}.cls-5{fill:#4a4e9c;}.cls-6{fill:#87b9e5;}.cls-7{fill:#474e9c;}.cls-8{fill:#e1d8ed;}.cls-9{fill:#e3ddef;}.cls-10{fill:#284c9c;}.cls-11{fill:#8978b6;}.cls-12{fill:#2a68b1;}.cls-13{fill:#def1fd;}.cls-14{fill:#2867b1;}.cls-15{fill:#dff2fd;}.cls-16{fill:#feffff;}.cls-17{fill:#fbfcfe;}.cls-18{fill:#fcfcfe;}.cls-19{fill:#8dbee8;}.cls-20{fill:#8fbde7;}.cls-21{fill:#8979b6;}.cls-22{fill:#daebfa;}.cls-23{fill:#e0dbee;}.cls-24{fill:#dedaee;}</style><clipPath id="clip-path" transform="translate(46.74 0.36)"><circle class="cls-1" cx="68.15" cy="68.15" r="68.15"/></clipPath></defs><g id="Слой_2" data-name="Слой 2"><g id="Слой_1-2" data-name="Слой 1"><g class="cls-2"><path class="cls-3" d="M183.23,25.84v83.64H183c-.39,0-.78,0-1.17,0H-45.39l-1.17,0-.18-.13V26H182c.27,0,.54,0,.81,0,.09,0,.18-.11.27-.17h.18Zm-146.16,60c.19.33.5.17.75.17H57.91c.16.25.33.5.48.75,1,1.77,2,3.54,3,5.29q3.2,5.51,6.4,11c.14.25.3.48.52.82l.63-1.09c1-1.71,1.94-3.42,2.93-5.12,1.5-2.61,3-5.22,4.53-7.82.75-1.29,1.53-2.56,2.29-3.84h6.18q6.84,0,13.69,0a5.06,5.06,0,0,0,1-.2l-.17-.32c-.15-.29-.3-.58-.46-.87l-5-8.67-4.75-8.2c3.44-6,6.85-11.89,10.25-17.81,0-.11,0-.31,0-.32a2.32,2.32,0,0,0-.53,0H78.74c-1.37-2.31-2.75-4.62-4.09-6.94-2-3.43-4-6.88-5.92-10.32-.11-.19-.26-.36-.5-.69L57.9,49.5c-.54,0-1.07,0-1.61,0H38a5.59,5.59,0,0,0-.91.16c.66,1.2,1.31,2.4,2,3.59l4.66,8.07C44.83,63.25,45.89,65.15,47,67a1.13,1.13,0,0,1,0,1.38c-.62,1-1.17,2-1.75,3L38.4,83.26c-.4.7-.78,1.41-1.18,2.11Z" transform="translate(46.74 0.36)"/><path class="cls-4" d="M-46.74,25.84V0H183c0,.36,0,.72,0,1.08q0,12.38,0,24.76H-46.74Z" transform="translate(46.74 0.36)"/><path class="cls-4" d="M-46.74,135.5V109.66H183c0,.36,0,.72,0,1.07q0,12.39,0,24.77H-46.74Z" transform="translate(46.74 0.36)"/><path class="cls-5" d="M-46.56-.23l1.16,0H181.87l1.17,0A.33.33,0,0,1,183,0H-46.74V-.18Z" transform="translate(46.74 0.36)"/><path class="cls-6" d="M-46.74,25.84H183.05c-.09.06-.18.16-.27.17-.27,0-.54,0-.81,0H-46.74Z" transform="translate(46.74 0.36)"/><path class="cls-7" d="M183,109.66H-46.74v-.18l.18,0,1.17,0H181.87c.39,0,.78,0,1.17,0A.33.33,0,0,1,183,109.66Z" transform="translate(46.74 0.36)"/><path class="cls-8" d="M-46.56,109.43l-.18,0v-.18Z" transform="translate(46.74 0.36)"/><path class="cls-9" d="M-46.56-.23l-.18.05V-.36Z" transform="translate(46.74 0.36)"/><path class="cls-10" d="M99.43,49.89C96,55.81,92.62,61.72,89.18,67.7l4.75,8.2,5,8.67c.16.29.31.58.46.87a6,6,0,0,1-1,.16H79.76a6.06,6.06,0,0,0-1,.18.28.28,0,0,0,0,.16c-.76,1.28-1.54,2.55-2.29,3.84-1.51,2.6-3,5.21-4.53,7.82-1,1.7-2,3.41-2.93,5.12l-.63,1.09c-.22-.34-.38-.57-.52-.82q-3.2-5.49-6.4-11c-1-1.75-2-3.52-3-5.29-.15-.25-.32-.5-.48-.75l-.17-.21a7.31,7.31,0,0,0-1-.15H38.31c-.37,0-.79.15-1.09-.23.4-.7.78-1.41,1.18-2.11L45.25,71.4c.58-1,1.13-2,1.75-3A1.13,1.13,0,0,0,47,67c-1.13-1.86-2.19-3.76-3.28-5.65l-4.66-8.07c-.67-1.19-1.32-2.39-2-3.59H56.9a4.92,4.92,0,0,0,1-.2L68.23,31.59c.24.33.39.5.5.69,2,3.44,3.93,6.89,5.92,10.32,1.34,2.32,2.72,4.63,4.09,6.94a6,6,0,0,0,1,.16l18.65,0A6,6,0,0,1,99.43,49.89ZM64.57,85.8l.17.34,3.51,6.21c.2-.32.34-.51.46-.71.6-1,1.2-2.06,1.78-3.1.49-.85,1-1.72,1.43-2.58l.06-.18c-.11-.06-.22-.17-.33-.17-2.17,0-4.35,0-6.52,0A2.06,2.06,0,0,0,64.57,85.8ZM75.32,80l.16-.12,1.78-3.09c1.62-2.78,3.23-5.56,4.86-8.34a1.33,1.33,0,0,0,0-1.5Q81,65.18,80,63.39l-4.53-7.91a2.19,2.19,0,0,0-.63-.2H61.7a2,2,0,0,0-.56.17c-1.14,2-2.29,3.9-3.43,5.86q-1.86,3.19-3.7,6.41c.15.23.32.47.46.73l5.87,10.14c.25.44.52.86.79,1.28a.29.29,0,0,0,0,.16,3.61,3.61,0,0,0,.84.18q6.25,0,12.51,0a4.15,4.15,0,0,0,.84-.16ZM47.09,55.63,50.71,62l3.64-6.34a1.05,1.05,0,0,0,0-.28,1.61,1.61,0,0,0-.44,0H47.5a1.25,1.25,0,0,0-.43.07A1.07,1.07,0,0,0,47.09,55.63Zm42.43-.18a.57.57,0,0,0,0-.13s-.05,0-.08,0h-7c-.09,0-.17.11-.26.18,1.13,2.16,2.4,4.24,3.68,6.45.6-1,1.13-1.91,1.63-2.81C88.18,57.9,88.85,56.67,89.52,55.45ZM72,49.36,68.3,43l-.81,1.34q-1.45,2.57-2.9,5.13a2.58,2.58,0,0,0,.71.19c2,0,4,0,6,0a3.17,3.17,0,0,0,.61-.07A1,1,0,0,0,72,49.36ZM54.36,79.86l-2.85-5c-.24-.42-.5-.84-.82-1.39-1.24,2.18-2.39,4.22-3.54,6.26L47,80l.32,0h6.82Zm28-.21c-.15.14-.31.27,0,.36h7l.22,0,0-.12Q87.74,76.76,86,73.66s-.09,0-.2-.07Q84,76.62,82.31,79.65Z" transform="translate(46.74 0.36)"/><path class="cls-11" d="M99.43,49.89a6,6,0,0,0-1-.17l-18.65,0a6,6,0,0,1-1-.16H98.87a2.32,2.32,0,0,1,.53,0S99.42,49.78,99.43,49.89Z" transform="translate(46.74 0.36)"/><path class="cls-12" d="M78.74,85.79a6.06,6.06,0,0,1,1-.18H98.37a6,6,0,0,0,1-.16l.17.32-.9,0Z" transform="translate(46.74 0.36)"/><path class="cls-13" d="M57.74,85.76l.17.21H37.82c-.25,0-.56.16-.75-.17h19.6Z" transform="translate(46.74 0.36)"/><path class="cls-11" d="M57.9,49.5a4.92,4.92,0,0,1-1,.2H37.1a5.59,5.59,0,0,1,.91-.16H56.29C56.83,49.53,57.36,49.51,57.9,49.5Z" transform="translate(46.74 0.36)"/><path class="cls-14" d="M57.74,85.76l-1.07,0H37.07l.15-.42c.3.38.72.23,1.09.23h18.4A7.31,7.31,0,0,1,57.74,85.76Z" transform="translate(46.74 0.36)"/><path class="cls-15" d="M78.74,85.79H98.66l.9,0a5.06,5.06,0,0,1-1,.2q-6.84,0-13.69,0H78.69A.28.28,0,0,1,78.74,85.79Z" transform="translate(46.74 0.36)"/><path class="cls-16" d="M61.13,79.87c-.27-.42-.54-.84-.79-1.28L54.47,68.45c-.14-.26-.31-.5-.46-.73q1.85-3.21,3.7-6.41c1.14-2,2.29-3.9,3.43-5.86h6.18l8.16,0L80,63.39q1,1.78,2.1,3.54a1.33,1.33,0,0,1,0,1.5c-1.63,2.78-3.24,5.56-4.86,8.34l-1.78,3.09-.16.12,0,.07-5.89,0-8.12,0Z" transform="translate(46.74 0.36)"/><path class="cls-17" d="M89.33,80h-7l0-.36q1.72-3,3.44-6.06c.11,0,.18,0,.2.07q1.78,3.11,3.56,6.21Z" transform="translate(46.74 0.36)"/><path class="cls-17" d="M54.15,80H47.33l-.18-.32c1.15-2,2.3-4.08,3.54-6.26.32.55.58,1,.82,1.39l2.85,5Z" transform="translate(46.74 0.36)"/><path class="cls-17" d="M64.59,49.51q1.44-2.57,2.9-5.13L68.3,43,72,49.36a2.06,2.06,0,0,1-.57.17Z" transform="translate(46.74 0.36)"/><path class="cls-18" d="M89.52,55.45c-.67,1.22-1.34,2.45-2,3.66-.5.9-1,1.79-1.63,2.81-1.28-2.21-2.55-4.29-3.68-6.45Z" transform="translate(46.74 0.36)"/><path class="cls-18" d="M54.35,55.61,50.71,62c-1.27-2.23-2.44-4.27-3.62-6.32a3.6,3.6,0,0,1,.76-.17h5.83A3.23,3.23,0,0,1,54.35,55.61Z" transform="translate(46.74 0.36)"/><path class="cls-18" d="M71.92,86c-.47.86-.94,1.73-1.43,2.58-.58,1-1.18,2.07-1.78,3.1-.12.2-.26.39-.46.71l-3.51-6.21a5.06,5.06,0,0,1,.93-.17Z" transform="translate(46.74 0.36)"/><path class="cls-19" d="M75.48,55.48l-8.16,0H61.14a2,2,0,0,1,.56-.17H74.85A2.19,2.19,0,0,1,75.48,55.48Z" transform="translate(46.74 0.36)"/><path class="cls-5" d="M61.33,80l8.12,0,5.89,0a4.15,4.15,0,0,1-.84.16q-6.25,0-12.51,0a3.61,3.61,0,0,1-.84-.18Z" transform="translate(46.74 0.36)"/><path class="cls-20" d="M54.35,55.61a3.23,3.23,0,0,0-.67-.15H47.85a3.6,3.6,0,0,0-.76.17,1.07,1.07,0,0,1,0-.28,1.25,1.25,0,0,1,.43-.07h6.43a1.61,1.61,0,0,1,.44,0A1.05,1.05,0,0,1,54.35,55.61Z" transform="translate(46.74 0.36)"/><path class="cls-21" d="M64.59,49.51l6.81,0a2.06,2.06,0,0,0,.57-.17,1,1,0,0,1,0,.28,3.17,3.17,0,0,1-.61.07c-2,0-4,0-6,0A2.58,2.58,0,0,1,64.59,49.51Z" transform="translate(46.74 0.36)"/><path class="cls-19" d="M89.52,55.45l-7.34,0c.09-.07.17-.18.26-.18h7s.07,0,.08,0A.57.57,0,0,1,89.52,55.45Z" transform="translate(46.74 0.36)"/><path class="cls-14" d="M64.57,85.8a2.06,2.06,0,0,1,.56-.19c2.17,0,4.35,0,6.52,0,.11,0,.22.11.33.17Z" transform="translate(46.74 0.36)"/><path class="cls-22" d="M64.57,85.8l7.41,0-.06.18H65.67a5.06,5.06,0,0,0-.93.17Z" transform="translate(46.74 0.36)"/><path class="cls-23" d="M47.15,79.69l.18.32L47,80Z" transform="translate(46.74 0.36)"/><path class="cls-24" d="M82.31,79.65l0,.36C82,79.92,82.16,79.79,82.31,79.65Z" transform="translate(46.74 0.36)"/><path class="cls-23" d="M54.15,80l.21-.15Z" transform="translate(46.74 0.36)"/><path class="cls-24" d="M89.33,80l.18-.14,0,.12Z" transform="translate(46.74 0.36)"/><path class="cls-9" d="M61.33,80l-.18,0a.29.29,0,0,1,0-.16Z" transform="translate(46.74 0.36)"/><path class="cls-9" d="M75.32,80l.16-.12Z" transform="translate(46.74 0.36)"/></g></g></g></svg>