<svg xmlns="http://www.w3.org/2000/svg" xmlns:xlink="http://www.w3.org/1999/xlink" viewBox="0 0 240.27 140.16"><defs><style>.cls-1{fill:none;}.cls-2{clip-path:url(#clip-path);}.cls-3{clip-path:url(#clip-path-2);}.cls-4{fill:#4fafc5;}.cls-5{fill:#f5c833;}</style><clipPath id="clip-path" transform="translate(59.38 3.19)"><circle class="cls-1" cx="66.89" cy="66.89" r="66.89"/></clipPath><clipPath id="clip-path-2" transform="translate(59.38 3.19)"><rect class="cls-1" x="-59.38" y="-3.19" width="240.27" height="140.16"/></clipPath></defs><g id="Слой_2" data-name="Слой 2"><g id="Слой_1-2" data-name="Слой 1"><g class="cls-2"><g id="KAZAKHSTAN"><g class="cls-3"><rect class="cls-4" width="240.27" height="140.16"/><g class="cls-3"><path class="cls-5" d="M-43.62,95.67a4.39,4.39,0,0,1,4.52-4.25c2.65,0,4.09,1.59,4.09,3.66a6.26,6.26,0,0,1-.77,3.08s-4.41,9.11-6.12,12.67a3.87,3.87,0,0,0-.28,1.67,2.27,2.27,0,0,0,2.27,2.1,2.28,2.28,0,0,0,2.19-2.15c0-1.37-.71-2-1.44-2-.94,0-1.31.37-1.31,1,0,.45.22.64.54.64.77,0,.55-1.06.55-1.06a.73.73,0,0,1,.54,1,1.46,1.46,0,0,1,.74.45,1.43,1.43,0,0,1-.74.42c.18.61-.07.89-.61,1a.94.94,0,0,0,.09-.61,1.63,1.63,0,0,1-2.13-1.6,2.29,2.29,0,0,1,2.86-2.35,1.36,1.36,0,0,1-.71-1.11,3.31,3.31,0,0,0,.71.13,2.38,2.38,0,0,1-.49-1.48c.32.2.66.48,1.11.31-.7-1.4.15-3.27,2.33-3.72a4.52,4.52,0,0,0-1.19,2.94c0,3.24.91,3.8.91,6a3.43,3.43,0,0,1-1.44,2.68v0a1.79,1.79,0,0,1,1.26.9,8.87,8.87,0,0,1-4.7-.06,3.45,3.45,0,0,1-2.49-1.65,4.92,4.92,0,0,1,0-4c.87-1.82,4.95-10.46,6.21-13.18a4.13,4.13,0,0,0,.45-1.84A2.29,2.29,0,0,0-39.06,93a2,2,0,0,0-2.11,1.79.88.88,0,0,0,.84,1c1.17,0,1.1-1,.85-1.62.74.33,1.19.89,1,1.51a1.83,1.83,0,0,1,1.17.7,1.5,1.5,0,0,1-1.17.61c.24,1-.41,1.34-1,1.57.22-.67.35-1.48-.85-1.48a2.29,2.29,0,0,1-2-.7c0,.72-.1,3.69-.1,3.69,0,1.12,1.51,1.09,2.48.78-.37,1.29-1.12,2-2.89,1.82a1.37,1.37,0,0,1,.89,1.34,3.55,3.55,0,0,1-1.42,2.55Z" transform="translate(59.38 3.19)"/><path class="cls-5" d="M-43,95.67a4.37,4.37,0,0,0-4.51-4.25c-2.66,0-4.07,1.59-4.07,3.66a6.22,6.22,0,0,0,.74,3.08s4.42,9.11,6.14,12.67a3.72,3.72,0,0,1,.28,1.67,2.28,2.28,0,0,1-2.27,2.1,2.28,2.28,0,0,1-2.21-2.15c0-1.37.72-2,1.46-2,.92,0,1.28.37,1.28,1,0,.45-.21.64-.53.64-.77,0-.56-1.06-.56-1.06a.75.75,0,0,0-.53,1,1.63,1.63,0,0,0-.75.45,1.59,1.59,0,0,0,.75.42c-.17.61.07.89.6,1a.93.93,0,0,1-.08-.61,1.63,1.63,0,0,0,2.12-1.6A2.27,2.27,0,0,0-48,109.34a1.3,1.3,0,0,0,.71-1.11,3,3,0,0,1-.71.13,2.38,2.38,0,0,0,.52-1.48c-.35.2-.69.48-1.12.31.7-1.4-.16-3.27-2.34-3.72a4.37,4.37,0,0,1,1.19,2.94c0,3.24-.91,3.8-.91,6a3.37,3.37,0,0,0,1.46,2.68v0a1.9,1.9,0,0,0-1.29.9,8.9,8.9,0,0,0,4.71-.06,3.47,3.47,0,0,0,2.5-1.65,5,5,0,0,0,0-4c-.89-1.82-5-10.46-6.23-13.18A4.55,4.55,0,0,1-50,95.28,2.29,2.29,0,0,1-47.59,93a2,2,0,0,1,2.08,1.79c0,.59-.33,1-.82,1-1.16,0-1.11-1-.87-1.62-.73.33-1.15.89-1,1.51a1.9,1.9,0,0,0-1.18.7,1.53,1.53,0,0,0,1.18.61c-.24,1,.4,1.34,1,1.57-.21-.67-.33-1.48.87-1.48a2.3,2.3,0,0,0,2-.7c0,.72.09,3.69.09,3.69.06,1.12-1.49,1.09-2.49.78.37,1.29,1.14,2,2.91,1.82a1.35,1.35,0,0,0-.89,1.34,3.55,3.55,0,0,0,1.42,2.55Z" transform="translate(59.38 3.19)"/><path class="cls-5" d="M-43.33,126s1.32,1.09,1.79.53c.73-.89-2.23-5.36-2.23-7,0-2.6,1.72-3.3,3.86-3.66a15,15,0,0,1,3.77.11,1.59,1.59,0,0,1-1.45.81,3.1,3.1,0,0,1,1.67,2.8c0,2.23-.92,3.16-.92,5.65a7.38,7.38,0,0,0,1.13,3.18,2.7,2.7,0,0,1-2.44-3.58.94.94,0,0,0-.87.28,1.57,1.57,0,0,1,.39-1.34c-.26-.11-.43,0-.85.06a2,2,0,0,1,.92-1.32,2.19,2.19,0,0,1-2.93-2.12,1.61,1.61,0,0,1,1.38-1.71,1.19,1.19,0,0,1,.75.23,1.06,1.06,0,0,0-.09-.9c.51.11.82.39.61,1a1.18,1.18,0,0,1,.9.39,1,1,0,0,1-.9.42c.28.58,0,.92-.5,1.17,0,0,.31-1.17-.43-1.17-.35,0-.66.14-.66.61a1.11,1.11,0,0,0,1.27,1c.84-.06,1.55-.62,1.55-2,0-1.25-1-1.9-2.39-1.92a1.86,1.86,0,0,0-2.15,1.9c0,1.65,2.43,5.45,2.43,7a1.84,1.84,0,0,1-2,1.73,3.73,3.73,0,0,1-2.35-1.25Z" transform="translate(59.38 3.19)"/><path class="cls-5" d="M-43.33,126s-1.32,1.09-1.77.53c-.74-.89,2.23-5.36,2.23-7,0-2.6-1.74-3.3-3.87-3.66a15.23,15.23,0,0,0-3.8.11,1.67,1.67,0,0,0,1.47.81,3.1,3.1,0,0,0-1.64,2.8c0,2.23.9,3.16.9,5.65A7.31,7.31,0,0,1-51,128.44a2.74,2.74,0,0,0,2.47-3.58,1,1,0,0,1,.87.28,1.68,1.68,0,0,0-.4-1.34c.23-.11.43,0,.83.06a1.91,1.91,0,0,0-.93-1.32,2.2,2.2,0,0,0,2.95-2.12,1.61,1.61,0,0,0-1.4-1.71,1.21,1.21,0,0,0-.73.23,1.1,1.1,0,0,1,.07-.9c-.49.11-.82.39-.6,1a1.16,1.16,0,0,0-.89.39,1,1,0,0,0,.89.42c-.28.58,0,.92.49,1.17,0,0-.28-1.17.46-1.17.34,0,.65.14.65.61a1.11,1.11,0,0,1-1.26,1c-.86-.06-1.55-.62-1.55-2,0-1.25,1-1.9,2.39-1.92a1.85,1.85,0,0,1,2.14,1.9c0,1.65-2.42,5.45-2.42,7a1.83,1.83,0,0,0,2,1.73,3.64,3.64,0,0,0,2.36-1.25Z" transform="translate(59.38 3.19)"/><path class="cls-5" d="M-43.62,46.56a4.41,4.41,0,0,1,4.52-4.25c2.65,0,4.09,1.62,4.09,3.69a6,6,0,0,1-.77,3s-4.41,9.15-6.12,12.67a4.07,4.07,0,0,0-.28,1.68,2.26,2.26,0,0,0,2.27,2.1,2.27,2.27,0,0,0,2.19-2.13c0-1.4-.71-2-1.44-2-.94,0-1.31.34-1.31,1,0,.45.22.64.54.64.77,0,.55-1.09.55-1.09a.77.77,0,0,1,.54,1,1.23,1.23,0,0,1,.74.45,1.58,1.58,0,0,1-.74.42c.18.58-.07.89-.61,1a1,1,0,0,0,.09-.64,1.6,1.6,0,0,1-2.13-1.59,2.27,2.27,0,0,1,2.86-2.32,1.4,1.4,0,0,1-.71-1.15,2.15,2.15,0,0,0,.71.14,2.25,2.25,0,0,1-.49-1.46c.32.17.66.45,1.11.28-.7-1.37.15-3.24,2.33-3.71a4.67,4.67,0,0,0-1.19,3c0,3.24.91,3.78.91,6a3.41,3.41,0,0,1-1.44,2.68v0a1.75,1.75,0,0,1,1.26.86,8.4,8.4,0,0,1-4.7,0,3.46,3.46,0,0,1-2.49-1.62,4.94,4.94,0,0,1,0-4c.87-1.82,4.95-10.46,6.21-13.17a4.11,4.11,0,0,0,.45-1.85A2.31,2.31,0,0,0-39.06,44a2,2,0,0,0-2.11,1.76.86.86,0,0,0,.84,1c1.17,0,1.1-1,.85-1.59.74.34,1.19.92,1,1.51a1.83,1.83,0,0,1,1.17.7,1.62,1.62,0,0,1-1.17.61c.24,1-.41,1.37-1,1.57.22-.7.35-1.48-.85-1.48a2.29,2.29,0,0,1-2-.7l-.1,3.69c0,1.15,1.51,1.09,2.48.75-.37,1.32-1.12,2-2.89,1.82A1.44,1.44,0,0,1-41.91,55a3.55,3.55,0,0,1-1.42,2.55Z" transform="translate(59.38 3.19)"/><path class="cls-5" d="M-43,46.56a4.39,4.39,0,0,0-4.51-4.25c-2.66,0-4.07,1.62-4.07,3.69a6,6,0,0,0,.74,3s4.42,9.15,6.14,12.67a3.91,3.91,0,0,1,.28,1.68,2.27,2.27,0,0,1-2.27,2.1,2.27,2.27,0,0,1-2.21-2.13c0-1.4.72-2,1.46-2,.92,0,1.28.34,1.28,1,0,.45-.21.64-.53.64-.77,0-.56-1.09-.56-1.09a.78.78,0,0,0-.53,1,1.35,1.35,0,0,0-.75.45,1.79,1.79,0,0,0,.75.42.7.7,0,0,0,.6,1,1,1,0,0,1-.08-.64,1.6,1.6,0,0,0,2.12-1.59A2.25,2.25,0,0,0-48,60.27a1.33,1.33,0,0,0,.71-1.15,2,2,0,0,1-.71.14,2.25,2.25,0,0,0,.52-1.46c-.35.17-.69.45-1.12.28.7-1.37-.16-3.24-2.34-3.71a4.51,4.51,0,0,1,1.19,3c0,3.24-.91,3.78-.91,6a3.35,3.35,0,0,0,1.46,2.68v0a1.86,1.86,0,0,0-1.29.86,8.42,8.42,0,0,0,4.71,0,3.48,3.48,0,0,0,2.5-1.62,5,5,0,0,0,0-4c-.89-1.82-5-10.46-6.23-13.17A4.52,4.52,0,0,1-50,46.2,2.31,2.31,0,0,1-47.59,44a2,2,0,0,1,2.08,1.76c0,.62-.33,1-.82,1-1.16,0-1.11-1-.87-1.59-.73.34-1.15.92-1,1.51a1.9,1.9,0,0,0-1.18.7,1.67,1.67,0,0,0,1.18.61c-.24,1,.4,1.37,1,1.57-.21-.7-.33-1.48.87-1.48a2.3,2.3,0,0,0,2-.7c0,.73.09,3.69.09,3.69.06,1.15-1.49,1.09-2.49.75.37,1.32,1.14,2,2.91,1.82A1.43,1.43,0,0,0-44.75,55a3.55,3.55,0,0,0,1.42,2.55Z" transform="translate(59.38 3.19)"/><path class="cls-5" d="M-43,38.15a4.37,4.37,0,0,1-4.51,4.25c-2.66,0-4.07-1.57-4.07-3.69a6,6,0,0,1,.74-3L-44.75,23a3.66,3.66,0,0,0,.28-1.68,2.3,2.3,0,0,0-2.27-2.1,2.31,2.31,0,0,0-2.21,2.13c0,1.43.72,2,1.46,2,.92,0,1.28-.39,1.28-1,0-.45-.21-.65-.53-.65-.77,0-.56,1.07-.56,1.07a.74.74,0,0,1-.53-1,1.55,1.55,0,0,1-.75-.45,1.51,1.51,0,0,1,.75-.42c-.17-.62.07-.92.6-1a1.18,1.18,0,0,0-.08.68,1.59,1.59,0,0,1,2.12,1.56A2.24,2.24,0,0,1-48,24.44a1.36,1.36,0,0,1,.71,1.15,3.35,3.35,0,0,0-.71-.14,2.33,2.33,0,0,1,.52,1.48c-.35-.17-.69-.47-1.12-.28.7,1.37-.16,3.27-2.34,3.69a4.46,4.46,0,0,0,1.19-2.93c0-3.25-.91-3.81-.91-6.07a3.28,3.28,0,0,1,1.46-2.63v0a2.07,2.07,0,0,1-1.29-.9,8.43,8.43,0,0,1,4.71,0,3.59,3.59,0,0,1,2.5,1.65,5,5,0,0,1,0,4c-.89,1.82-5,10.46-6.23,13.17A4.6,4.6,0,0,0-50,38.54a2.33,2.33,0,0,0,2.39,2.26A2,2,0,0,0-45.51,39c0-.64-.33-1-.82-1-1.16,0-1.11,1-.87,1.62a1.45,1.45,0,0,1-1-1.51,1.9,1.9,0,0,1-1.18-.67,1.46,1.46,0,0,1,1.18-.65c-.24-.95.4-1.37,1-1.56-.21.67-.33,1.48.87,1.48a2.16,2.16,0,0,1,2,.73c0-.76.09-3.75.09-3.75.06-1.12-1.49-1.09-2.49-.76.37-1.28,1.14-2,2.91-1.81a1.39,1.39,0,0,1-.89-1.35,3.55,3.55,0,0,1,1.42-2.54Z" transform="translate(59.38 3.19)"/><path class="cls-5" d="M-43.62,38.15A4.39,4.39,0,0,0-39.1,42.4c2.65,0,4.09-1.57,4.09-3.69a6.06,6.06,0,0,0-.77-3L-41.9,23a3.8,3.8,0,0,1-.28-1.68,2.3,2.3,0,0,1,2.27-2.1,2.31,2.31,0,0,1,2.19,2.13c0,1.43-.71,2-1.44,2-.94,0-1.31-.39-1.31-1,0-.45.22-.65.54-.65.77,0,.55,1.07.55,1.07a.73.73,0,0,0,.54-1,1.4,1.4,0,0,0,.74-.45,1.37,1.37,0,0,0-.74-.42.72.72,0,0,0-.61-1,1.19,1.19,0,0,1,.09.68,1.59,1.59,0,0,0-2.13,1.56,2.26,2.26,0,0,0,2.86,2.32,1.42,1.42,0,0,0-.71,1.15,3.73,3.73,0,0,1,.71-.14,2.33,2.33,0,0,0-.49,1.48c.32-.17.66-.47,1.11-.28-.7,1.37.15,3.27,2.33,3.69a4.62,4.62,0,0,1-1.19-2.93c0-3.25.91-3.81.91-6.07a3.34,3.34,0,0,0-1.44-2.63v0a1.94,1.94,0,0,0,1.26-.9,8.41,8.41,0,0,0-4.7,0,3.57,3.57,0,0,0-2.49,1.65,4.93,4.93,0,0,0,0,4c.87,1.82,4.95,10.46,6.21,13.17a4.17,4.17,0,0,1,.45,1.85,2.33,2.33,0,0,1-2.39,2.26A2.05,2.05,0,0,1-41.17,39c0-.64.36-1,.84-1,1.17,0,1.1,1,.85,1.62.74-.31,1.19-.92,1-1.51a1.83,1.83,0,0,0,1.17-.67,1.43,1.43,0,0,0-1.17-.65c.24-.95-.41-1.37-1-1.56.22.67.35,1.48-.85,1.48a2.15,2.15,0,0,0-2,.73l-.1-3.75c0-1.12,1.51-1.09,2.48-.76-.37-1.28-1.12-2-2.89-1.81a1.4,1.4,0,0,0,.89-1.35,3.55,3.55,0,0,0-1.42-2.54Z" transform="translate(59.38 3.19)"/><path class="cls-5" d="M-43,87.25a4.39,4.39,0,0,1-4.51,4.25c-2.66,0-4.07-1.62-4.07-3.69a6.11,6.11,0,0,1,.74-3s4.42-9.14,6.14-12.67a3.78,3.78,0,0,0,.28-1.67,2.33,2.33,0,0,0-2.27-2.13,2.3,2.3,0,0,0-2.21,2.13c0,1.42.72,2,1.46,2,.92,0,1.28-.37,1.28-1,0-.44-.21-.64-.53-.64-.77,0-.56,1.09-.56,1.09a.78.78,0,0,1-.53-1,1.28,1.28,0,0,1-.75-.44,1.44,1.44,0,0,1,.75-.42.73.73,0,0,1,.6-1,1.17,1.17,0,0,0-.08.67,1.59,1.59,0,0,1,2.12,1.57A2.26,2.26,0,0,1-48,73.55a1.31,1.31,0,0,1,.71,1.15,2.54,2.54,0,0,0-.71-.17A2.38,2.38,0,0,1-47.53,76c-.35-.17-.69-.45-1.12-.28.7,1.37-.16,3.24-2.34,3.69a4.41,4.41,0,0,0,1.19-2.93c0-3.25-.91-3.78-.91-6.07a3.27,3.27,0,0,1,1.46-2.63v0a1.93,1.93,0,0,1-1.29-.93,8.9,8.9,0,0,1,4.71.06,3.59,3.59,0,0,1,2.5,1.65,5,5,0,0,1,0,4c-.89,1.82-5,10.46-6.23,13.17A4.6,4.6,0,0,0-50,87.62a2.28,2.28,0,0,0,2.39,2.23,2,2,0,0,0,2.08-1.76c0-.61-.33-1-.82-1-1.16,0-1.11,1-.87,1.63a1.47,1.47,0,0,1-1-1.54,1.86,1.86,0,0,1-1.18-.65,1.45,1.45,0,0,1,1.18-.61c-.24-1,.4-1.4,1-1.62-.21.72-.33,1.51.87,1.51a2.18,2.18,0,0,1,2,.72c0-.75.09-3.74.09-3.74.06-1.12-1.49-1.06-2.49-.76.37-1.28,1.14-2,2.91-1.79a1.37,1.37,0,0,1-.89-1.34,3.67,3.67,0,0,1,1.42-2.6Z" transform="translate(59.38 3.19)"/><path class="cls-5" d="M-43.62,87.25A4.4,4.4,0,0,0-39.1,91.5c2.65,0,4.09-1.62,4.09-3.69a6.15,6.15,0,0,0-.77-3s-4.41-9.14-6.12-12.67a3.93,3.93,0,0,1-.28-1.67,2.32,2.32,0,0,1,2.27-2.13,2.3,2.3,0,0,1,2.19,2.13c0,1.42-.71,2-1.44,2-.94,0-1.31-.37-1.31-1,0-.44.22-.64.54-.64.77,0,.55,1.09.55,1.09a.76.76,0,0,0,.54-1,1.17,1.17,0,0,0,.74-.44,1.31,1.31,0,0,0-.74-.42c.18-.59-.07-.9-.61-1a1.18,1.18,0,0,1,.09.67,1.6,1.6,0,0,0-2.13,1.57,2.28,2.28,0,0,0,2.86,2.35,1.37,1.37,0,0,0-.71,1.15,2.79,2.79,0,0,1,.71-.17A2.38,2.38,0,0,0-39.12,76c.32-.17.66-.45,1.11-.28-.7,1.37.15,3.24,2.33,3.69a4.56,4.56,0,0,1-1.19-2.93c0-3.25.91-3.78.91-6.07a3.33,3.33,0,0,0-1.44-2.63v0a1.82,1.82,0,0,0,1.26-.93,8.87,8.87,0,0,0-4.7.06,3.57,3.57,0,0,0-2.49,1.65,4.93,4.93,0,0,0,0,4c.87,1.82,4.95,10.46,6.21,13.17a4.17,4.17,0,0,1,.45,1.85,2.28,2.28,0,0,1-2.39,2.23,2,2,0,0,1-2.11-1.76.9.9,0,0,1,.84-1c1.17,0,1.1,1,.85,1.63.74-.34,1.19-.9,1-1.54a1.79,1.79,0,0,0,1.17-.65,1.42,1.42,0,0,0-1.17-.61c.24-1-.41-1.4-1-1.62.22.72.35,1.51-.85,1.51a2.17,2.17,0,0,0-2,.72l-.1-3.74c0-1.12,1.51-1.06,2.48-.76-.37-1.28-1.12-2-2.89-1.79a1.39,1.39,0,0,0,.89-1.34,3.67,3.67,0,0,0-1.42-2.6Z" transform="translate(59.38 3.19)"/><path class="cls-5" d="M-43.33,7.86s1.32-1.12,1.79-.59c.73.93-2.23,5.43-2.23,7,0,2.61,1.72,3.3,3.86,3.67a17.14,17.14,0,0,0,3.77-.09A1.46,1.46,0,0,0-37.59,17a3.14,3.14,0,0,0,1.67-2.82c0-2.24-.92-3.13-.92-5.68a7.38,7.38,0,0,1,1.13-3.16,2.67,2.67,0,0,0-2.44,3.55A.9.9,0,0,1-39,8.67,1.51,1.51,0,0,0-38.63,10c-.26.14-.43,0-.85,0a1.94,1.94,0,0,0,.92,1.31,2.19,2.19,0,0,0-2.93,2.13,1.59,1.59,0,0,0,1.38,1.7,1.43,1.43,0,0,0,.75-.25,1.16,1.16,0,0,1-.09,1c.51-.14.82-.42.61-1.06a1.34,1.34,0,0,0,.9-.39,1.09,1.09,0,0,0-.9-.45c.28-.56,0-.89-.5-1.15,0,0,.31,1.15-.43,1.15-.35,0-.66-.11-.66-.59s.38-1,1.27-1,1.55.58,1.55,2-1,1.9-2.39,1.93a1.85,1.85,0,0,1-2.15-1.85c0-1.7,2.43-5.53,2.43-7a1.87,1.87,0,0,0-2-1.77,3.71,3.71,0,0,0-2.35,1.29Z" transform="translate(59.38 3.19)"/><path class="cls-5" d="M-43.33,7.86s-1.32-1.12-1.77-.59c-.74.93,2.23,5.43,2.23,7,0,2.61-1.74,3.3-3.87,3.67a17.46,17.46,0,0,1-3.8-.09A1.52,1.52,0,0,1-49.07,17a3.13,3.13,0,0,1-1.64-2.82c0-2.24.9-3.13.9-5.68A7.3,7.3,0,0,0-51,5.37a2.71,2.71,0,0,1,2.47,3.55.94.94,0,0,0,.87-.25A1.61,1.61,0,0,1-48,10c.23.14.43,0,.83,0a1.84,1.84,0,0,1-.93,1.31,2.21,2.21,0,0,1,2.95,2.13,1.58,1.58,0,0,1-1.4,1.7,1.49,1.49,0,0,1-.73-.25,1.2,1.2,0,0,0,.07,1c-.49-.14-.82-.42-.6-1.06a1.32,1.32,0,0,1-.89-.39,1.1,1.1,0,0,1,.89-.45c-.28-.56,0-.89.49-1.15,0,0-.28,1.15.46,1.15.34,0,.65-.11.65-.59s-.38-1-1.26-1-1.55.58-1.55,2,1,1.9,2.39,1.93a1.84,1.84,0,0,0,2.14-1.85c0-1.7-2.42-5.53-2.42-7a1.86,1.86,0,0,1,2-1.77,3.62,3.62,0,0,1,2.36,1.29Z" transform="translate(59.38 3.19)"/><path class="cls-4" d="M-45.95,87c0-.2-.51-.08-.86,0s-.61.28-.59.5.48.12.86,0,.61-.28.59-.53Z" transform="translate(59.38 3.19)"/><path class="cls-4" d="M-47.16,87.76h-.14l-.23-.26c0-.3.22-.53.68-.64a3.83,3.83,0,0,1,.69-.11H-46l.22.25c0,.31-.23.56-.68.67a3,3,0,0,1-.66.09Z" transform="translate(59.38 3.19)"/><path class="cls-5" d="M66.06,92.06A33.35,33.35,0,0,1,32.81,61.94s-.74-.28-.86.4c-.21,1.59.47,6.51.2,6.18-.45-.65-3.89-9.82-4.5-8.84-.84,1.34,3.84,11.8,3.56,12.14-.93,1.11-6.3-10.24-6.74-9.4-1.63,3.19,6.63,13.48,6.58,13.9-.17,1.37-6.3-5.54-6.81-4.81-1.16,1.68,6.6,7.77,7,8.25,1.21,1.37-4.23-2.46-4.39-1.12-.14,1.06,2.63,3.27,4.28,4.19s2.19.67,2.67,1.49c.35.61-3.12-.4-3,.36.17,1.51,3.8,1.2,4.33,1.87s-2.46.17-2.32.73c.2,1,3.26,1.12,3.3,1.54s-1.93.14-1.8.92,3.12.56,3.84,1.06-2.68.06,0,1.37A36.09,36.09,0,0,0,48,95.81c4.18.84,6.29-.08,6.46-.36s-2,.22-4.93-.31A31.24,31.24,0,0,1,41,91.75c-.52-.25,1.56-.86,1.13-1.45s-2.11.08-2.75-.73c-.42-.53.79-.53.75-.86s-2.31-.84-2.71-1.43,1-.45,1.09-.84-1.44-.78-1.54-1.15,1.64-.28.83-.75-3.28-1.09-3.72-2,1.81.11,1.23-.67c-.41-.56-2.6-1.48-3.07-2.74-.3-.87,1.57-.11,1.6-.67,0-.87-1.11-.31-1.47-2.8-.13-.81,1.45-.25,1.45-.25l.24-.42a17.57,17.57,0,0,1,4.22,3.8c2.4,2.77,3.07,5.37,5.32,7.25,1.09.92,1.12-.34,3.55,1.17a45.44,45.44,0,0,1,6,4.78c.36.31,2-.3,6.94.73,2.65.56,3.18,1.93,3.18,1.93a7.11,7.11,0,0,0,2.19-1.93c.28-.45.56,0,.64-.11.27-.25,0-.59,0-.59Z" transform="translate(59.38 3.19)"/><path class="cls-5" d="M51.17,96.31A19.88,19.88,0,0,1,48,96a37.79,37.79,0,0,1-9.91-3.67c-.82-.42-1.13-.67-1.09-1s.41-.33.78-.39c.14,0,.34,0,.38-.11a7.57,7.57,0,0,0-1.82-.34c-1.12-.14-2.08-.28-2.14-.75l0,0,.11-.33c.19-.28.7-.37,1.1-.42a2.93,2.93,0,0,0,.6-.17,4.42,4.42,0,0,0-1-.31c-1-.25-2.16-.53-2.31-1.23.21-.42.64-.45,1.36-.45.36,0,1,0,1-.14-.2-.28-.9-.39-1.58-.5-1.27-.22-2.69-.48-2.82-1.48.36-.73,1.06-.48,1.92-.39.32,0,.62.05.85.05,0-.42-.25-.47-.74-.67A8.54,8.54,0,0,1,31.05,83c-1.54-.86-4.52-3.16-4.35-4.36,0-.17.11-.42.51-.42a9.17,9.17,0,0,1,2.93,1.18,7.34,7.34,0,0,0,1.23.56,8.24,8.24,0,0,1-1-.76c-3.58-3.1-7.12-6.4-6.23-7.72.69-.14,1.77.81,3.44,2.35,1.26,1.12,2.84,2.57,3.3,2.57a6.83,6.83,0,0,0-1-1.67c-2.19-3.19-6.78-9.85-5.49-12.34.56-.14,1.19.93,2.81,3.72,1.3,2.24,3.28,5.68,3.9,5.68a19.21,19.21,0,0,0-1-3.13c-1.69-4.42-3-8.17-2.5-9,.73-.13,1.83,2.1,3.69,6.49.42.93.77,1.76.95,2.16a14.15,14.15,0,0,1-.21-1.6,30.53,30.53,0,0,1-.12-4.33.59.59,0,0,1,.64-.56,1.22,1.22,0,0,1,.39.08A33.15,33.15,0,0,0,66,91.89a.58.58,0,0,1,.4.54v0l-.17.28L66,92.62l-.22.08a7.84,7.84,0,0,1-2.47,2.16,4.39,4.39,0,0,0-3.21-2,27.62,27.62,0,0,0-5.43-.61h-.89c-.36,0-.56,0-.7-.14l-1.45-1.23a30.69,30.69,0,0,0-4.53-3.53,3.74,3.74,0,0,0-2.1-.75h-.49a1.39,1.39,0,0,1-1-.39,14.56,14.56,0,0,1-2.89-3.78,24.5,24.5,0,0,0-2.45-3.55A17.31,17.31,0,0,0,34,75.12v.39c-.18.08-.66-.09-1.06-.09a.49.49,0,0,0-.35.09c.17,1.65.65,2,1,2.26a.74.74,0,0,1,.43.73c0,.36-.46.36-.63.36h-.54c-.29,0-.38,0-.41.06a4.64,4.64,0,0,0,2.07,2.15,4.27,4.27,0,0,1,1,.76l.05.08,0,.31c-.07.14-.26.14-.41.14l-.7,0c.07.7,1.27,1.2,2.22,1.59a6.94,6.94,0,0,1,1.23.51c.15,0,.31.19.28.36s-.26.25-.58.31a1.14,1.14,0,0,0-.46.17,2.89,2.89,0,0,0,.78.5c.47.25.78.45.75.67s-.36.36-.65.45a1.83,1.83,0,0,0-.51.19,3.89,3.89,0,0,0,1.63,1c.79.27,1.14.44,1.17.67s-.25.33-.49.44-.32.14-.35.23c.35.5,1,.5,1.55.53s1,0,1.26.33l.09.31c-.06.31-.45.56-.82.78a1.66,1.66,0,0,0-.44.37A31.72,31.72,0,0,0,49.54,95a14.87,14.87,0,0,0,3.05.31c.42,0,.79,0,1.08,0l.47,0c.26,0,.37,0,.44.11-.16.45-1.32,1-3.41,1ZM31.48,84.51c-.43,0-.53.06-.56.11.1.87,1.48,1.09,2.57,1.32a3,3,0,0,1,1.74.53l.05.08,0,.25c-.13.26-.57.26-1.3.28-.36,0-1,.06-1.09.17.1.48,1.26.79,2.1,1s1.19.31,1.21.56-.39.36-.84.42a2.3,2.3,0,0,0-.93.3c0,.48,1.1.62,1.88.7a6.27,6.27,0,0,1,1.88.42l.17.31c0,.17-.28.2-.6.28-.16,0-.51.08-.56.17s0,.19,1,.64A35.73,35.73,0,0,0,48,95.67a14.43,14.43,0,0,0,3.15.36c2,0,3.06-.5,3.16-.67l-.65.17c-.3,0-.67,0-1.09,0a18,18,0,0,1-3.1-.28,31.38,31.38,0,0,1-8.59-3.39c-.14-.42.11-.56.44-.78a2.09,2.09,0,0,0,.7-.59c-.19-.33-.61-.33-1.07-.33a2.13,2.13,0,0,1-1.7-.53l-.13-.37c.06-.22.31-.3.53-.42s.31-.11.32-.16a6.3,6.3,0,0,0-1-.45,3.32,3.32,0,0,1-1.7-.9L37.21,87c.07-.2.37-.28.67-.39.14,0,.46-.11.46-.2a2.94,2.94,0,0,0-.61-.39c-.5-.28-.85-.45-.92-.7.12-.36.39-.42.68-.47a1.91,1.91,0,0,0,.38-.12,12,12,0,0,0-1.34-.58c-1.05-.39-2.27-.87-2.59-1.48l0-.09v-.33c.16-.26.53-.17.87-.14h.32c-.06-.28-.39-.51-.81-.81-.83-.56-1.85-1.21-2.17-2.1a.5.5,0,0,1,0-.42.78.78,0,0,1,.64-.2l.54,0c.16,0,.35,0,.37-.11,0-.25-.11-.34-.34-.5a3,3,0,0,1-1.13-2.27.47.47,0,0,1,.11-.39c.3-.36,1.5,0,1.53,0l0-.36h0c.3,0,2.11,1,4.48,3.77a25.75,25.75,0,0,1,2.47,3.58A13.45,13.45,0,0,0,43.69,86a1.05,1.05,0,0,0,.78.31H45a4.27,4.27,0,0,1,2.26.84,30.08,30.08,0,0,1,4.55,3.5l1.47,1.28c.07.09.37.09.5.09l.89,0a26.53,26.53,0,0,1,5.48.64c2.7.56,3.28,2,3.3,2,0-.11,1.29-1.06,2-1.95a.43.43,0,0,1,.38-.28l.29.08,0-.42L66,92.2A33.31,33.31,0,0,1,32.67,62.06h-.2c-.21,0-.33,0-.36.3a29.24,29.24,0,0,0,.12,4.25c.14,1.65.17,1.91.06,2-.39-.22-.73-1-1.31-2.43-.9-2.07-2.72-6.38-3.22-6.41-.52.81,1.4,5.82,2.52,8.78,1.06,2.77,1.19,3.22,1.06,3.33l-.28.14c-.73,0-2.11-2.26-4.14-5.76a20.75,20.75,0,0,0-2.4-3.75c-1.14,2.32,3.38,8.87,5.56,12,.94,1.4,1.12,1.65,1.11,1.82l0,.14-.31.16c-.53,0-1.67-1-3.49-2.63-1.22-1.14-2.63-2.43-3-2.43-.88,1.29,4.43,5.85,6.17,7.33.45.39.74.64.81.73s.24.33.19.44c-.36.09-.75-.08-1.51-.5a10,10,0,0,0-2.81-1.12.23.23,0,0,0-.25.17c-.11,1,2.42,3,4.23,4a6.8,6.8,0,0,0,1.56.73,1.78,1.78,0,0,1,1.16.81c-.14.84-.75.45-1.38.37a6.67,6.67,0,0,0-1.05-.09Z" transform="translate(59.38 3.19)"/><path class="cls-5" d="M78.71,97.68c-.68-.14-.61.39-.61.39a1.58,1.58,0,0,1-1,1.57c-.44.08-.22.42-.36.73l-1.83-.09c-2.9,1.57-6.55,2.13-10.91,1.63,0,0-.92.69-1.72,1.39s-1.4.93-1.55,1.49.42.89,1.17.92a3.61,3.61,0,0,0,1.74-.67.93.93,0,0,0,.82.64,6.15,6.15,0,0,0,2-.42,4.15,4.15,0,0,0,1.89.36,3.86,3.86,0,0,0,1.48-.61s.21.92,1,.95,2-1,2-1a1.69,1.69,0,0,0,1.34.59,3.67,3.67,0,0,0,1.64-1,2.75,2.75,0,0,0,1.77.14,4.74,4.74,0,0,0,1.71-1.12,1.71,1.71,0,0,0,1.45.39c.69-.22,1.16-1.2,1.16-1.2a4.35,4.35,0,0,0,3.09.14c.86-.39.65-1.76.65-1.76s5.09.73,4.88-2.6c0-.37-8.23-.25-11.82-.9Z" transform="translate(59.38 3.19)"/><path class="cls-5" d="M70.85,106.13h0a1.34,1.34,0,0,1-1.12-1,2,2,0,0,1-1.37.64,8.13,8.13,0,0,1-2-.36,5.56,5.56,0,0,1-1.76.42,1.08,1.08,0,0,1-1.06-.73,2.25,2.25,0,0,1-1.58.76,1.71,1.71,0,0,1-1.26-.45.78.78,0,0,1-.1-.67,1.86,1.86,0,0,1,.87-.92c.19-.17.43-.34.72-.59.83-.7,1.75-1.43,1.75-1.43,1.11.09,2.09.14,3,.14a16.2,16.2,0,0,0,7.88-1.79l1.89.09c-.07-.39-.06-.62.34-.73a1.48,1.48,0,0,0,.9-1.43.45.45,0,0,1,.09-.39.61.61,0,0,1,.45-.19,60.53,60.53,0,0,0,8.25.64c3.63.14,3.87.2,3.9.42a2.32,2.32,0,0,1-.59,1.82,4.71,4.71,0,0,1-3.31,1h0a6.34,6.34,0,0,1-1.11-.08,1.41,1.41,0,0,1-.6,1.76c-1,.5-2.94-.06-3.17-.14a1.78,1.78,0,0,1-1.11,1.2,2,2,0,0,1-1.55-.42,2.79,2.79,0,0,1-1.58,1.15,3.84,3.84,0,0,1-1.89-.14,2.75,2.75,0,0,1-1.57,1h0a2,2,0,0,1-1.43-.67,3,3,0,0,1-1.9,1.06Zm-1.16-1.23c.24.14.44.92,1.12.92l0,.14v-.11c.73,0,1.9-1,1.92-1,.19,0,.67.56,1.29.56a4.07,4.07,0,0,0,1.69-.92,7.61,7.61,0,0,0,1.23.16,1.32,1.32,0,0,0,.57-.08,4.68,4.68,0,0,0,1.64-1.06,3.56,3.56,0,0,0,1.24.42,2.39,2.39,0,0,0,1.34-1.21c.23,0,1.12.31,2.06.31a2.53,2.53,0,0,0,1.1-.22c.77-.34.56-1.62.56-1.65a3.54,3.54,0,0,1,1.28-.09h0a4.36,4.36,0,0,0,3.11-.92,2,2,0,0,0,.49-1.59c-.15,0-1.91-.09-3.62-.17a70.81,70.81,0,0,1-8.08-.59l-.38,0a1.83,1.83,0,0,1-1.14,1.9c-.19.06-.2.11-.2.31a.87.87,0,0,1-.08.36l-2,0c-2.81,1.6-6.52,2.13-10.94,1.68,0,0-.82.67-1.59,1.37a7.61,7.61,0,0,1-.78.59c-.41.31-.65.45-.74.78a.4.4,0,0,0,0,.4,1.46,1.46,0,0,0,1,.36h0a3.38,3.38,0,0,0,1.65-.67c.22.11.33.56.91.61h0a7.44,7.44,0,0,0,1.88-.39,7.2,7.2,0,0,0,1.69.36,3.34,3.34,0,0,0,1.63-.58Z" transform="translate(59.38 3.19)"/><path class="cls-5" d="M67.85,94.13A24.69,24.69,0,0,1,71.94,93c4.94-1,6.65-.7,7-1,3.91-4.33,6.77-4.67,9.6-5.78,2.26-1.91,3-4.62,5.39-7.39s3.81-3,3.81-3l.3.62s1.29-1,1.22-.14c-.1,1.23-1.12,2.4-1.06,3.24,0,.56,1.75-.22,1.59.25-.4,1.32-1.79,2.1-2.16,2.63-.62.84,1.56-.28,1.11.56s-2.62,1.73-3.48,2.26c-.53.31.58.4.46.76s-2.35,1.23-2.32,1.51.6.42.34.7c-.48.53-2.34.59-2.37.92s.4.64,0,1.18c-.66.83-1.16,0-1.44.67-.14.39,1.09,1.14.25,1.31a8.28,8.28,0,0,0-3,1.29,25.34,25.34,0,0,1-3,.81c-.64.14-4.12.59-4,.87s2.35.25,7-.56a41,41,0,0,0,6.31-1.6c3.59-1.14-.93-1.23-.19-1.7s3.85-.26,4-1-1.74-.56-1.7-1,3.79-.42,4-1.43c.11-.56-2.13-.14-1.6-.81s3.53-.84,3.64-2.15c0-.76-2.45.19-2.13-.45.14-.25,1.15-.56,2.14-1.23,1.58-1.12,4.07-3,3.92-4.06-.13-1.34-5.18,3.08-4.73,1.4.14-.61,8.18-6.93,6.88-8.5-.91-1-6.64,5.79-6.84,4.42,0-.45,8.94-10.57,7.3-13.76-.43-.84-7.2,12.14-8.14,11-.25-.31,5.76-12.81,4.8-14-.45-.64-1.41,1.45-2.43,3.72s-2.16,4.84-2.39,5.17.26-4.89,0-6.48c-.09-.68-.82-.4-.82-.4-1,16.25-16.65,28.3-29.1,30.09-3.21.45-4.23,2-7.79,4-1.17.65-3,1-4.58,1.85a9.38,9.38,0,0,0-3.23,3.05,1.84,1.84,0,0,0,.43,1.73c.35.11.32-.87.69-1.09s.36.39.82.36a1.93,1.93,0,0,0,.92-.44s8.78,0,12.53-.12a3.74,3.74,0,0,0,2.28-.81c-.14-.42-1.16-.19-1.8-.17-2.65-.16-6.13,0-8.6-.13a.41.41,0,0,1-.37-.45A17.86,17.86,0,0,1,63.06,98H61.82a4.07,4.07,0,0,1-1.12.45c-.36.06-.52-.2-.36-.31a60.5,60.5,0,0,1,7.51-4Z" transform="translate(59.38 3.19)"/><path class="cls-5" d="M55.08,102.77H55c-.27-.08-.43-.56-.49-.72a1.51,1.51,0,0,1,0-1.18,9.1,9.1,0,0,1,3.27-3.1,14.72,14.72,0,0,1,2.61-1.09,13.67,13.67,0,0,0,2-.79c1.12-.64,2-1.23,2.76-1.76a11,11,0,0,1,5.07-2.24c13.17-1.87,27.95-14.37,29-29.95a.68.68,0,0,1,1.1.37,34.13,34.13,0,0,1,0,4.3c-.06,1-.11,2-.08,2.13A43.23,43.23,0,0,1,102,64.35l.32-.76c1.2-2.65,1.83-3.94,2.41-3.94h0l.24.2c.61.81-1.18,5.23-3.39,10.54a26.67,26.67,0,0,0-1.4,3.52c.67,0,3-3.86,4.76-6.65,2-3.27,2.81-4.48,3.17-4.48,1.47,2.6-3.48,9.15-5.9,12.34a18,18,0,0,0-1.17,1.59,11.56,11.56,0,0,0,2.68-2c1.46-1.31,3-2.65,3.71-2.65h.05l.34.14c.91,1.09-2.07,4-5.2,7A15.47,15.47,0,0,0,101,80.82c.35.22,1.17-.25,2-.7,1.43-.89,2.72-1.45,2.8-.75.1.86-1.22,2.29-4,4.22a12,12,0,0,1-1.47.78,1.85,1.85,0,0,0-.63.39,2.61,2.61,0,0,0,.71,0c.59,0,1.12,0,1.32.15l.11.27c-.09.9-1.26,1.26-2.32,1.6a3.4,3.4,0,0,0-1.36.61c0,.17.41.23.63.26a1.36,1.36,0,0,1,.95.27c-.1.93-1.5,1.18-2.71,1.35a7.48,7.48,0,0,0-1.26.3,2.45,2.45,0,0,0,.57.14c.52.09,1.22.26,1.14.84s-1.07.59-2.2.7a5.89,5.89,0,0,0-1.85.34,2.87,2.87,0,0,0,.59.19c.56.14,1.06.31,1.08.65,0,.19-.2.47-1.51.89a45.16,45.16,0,0,1-6.32,1.62,42.58,42.58,0,0,1-6.08.7c-.83,0-1-.14-1.08-.25.11-.36.68-.47,2.85-.84.53-.08,1-.17,1.23-.22s.67-.17,1-.25a13,13,0,0,0,1.9-.53,8.34,8.34,0,0,1,3-1.32c.19-.14,0-.36-.07-.5s-.37-.48-.28-.73a.46.46,0,0,1,.51-.36l.32.14v-.14a.65.65,0,0,0,.6-.37.57.57,0,0,0,.09-.67,1.83,1.83,0,0,1-.09-.39c0-.28.39-.36,1-.5a2.83,2.83,0,0,0,1.39-.51c-.19-.22-.35-.36-.38-.58s.26-.39,1.15-.84A4.18,4.18,0,0,0,95.57,86c0-.08-.15-.14-.26-.22s-.34-.2-.34-.34v-.08l.21-.23c.24-.14.6-.33,1-.55A6.53,6.53,0,0,0,98.61,83a.59.59,0,0,0-.52-.08,2.19,2.19,0,0,1-.39.06l-.34-.17c0-.11,0-.25.13-.39a6.79,6.79,0,0,1,.6-.59,4.62,4.62,0,0,0,1.57-2c-.21,0-.38,0-.52.06-.69.14-1.08-.06-1.08-.25a3.6,3.6,0,0,1,.46-1.57,5.43,5.43,0,0,0,.61-1.73c-.31-.17-.77.11-1,.28L97.6,76A11.12,11.12,0,0,0,94,79a26,26,0,0,0-2.47,3.58,14.78,14.78,0,0,1-2.93,3.8c-.53.25-1,.39-1.55.59a16.64,16.64,0,0,0-8,5.2c-.18.17-.5.19-1.21.25a37.68,37.68,0,0,0-5.85.78,22.7,22.7,0,0,0-4.07,1.12,59.94,59.94,0,0,0-7.49,3.94,3.2,3.2,0,0,0,1.33-.36l1.32,0c-.62,1-1.41,1.88-1.43,2l.22.42v-.17c2.49.17,5.95,0,8.61.19l.45,0c.54-.06,1.27-.25,1.47.31a3.44,3.44,0,0,1-2.41.95c-3.7.11-12.29.14-12.51.14a1.68,1.68,0,0,1-.94.44h0a.61.61,0,0,1-.52-.28c-.3,0-.46.26-.51.45s-.17.53-.41.53ZM99.6,62.06a1,1,0,0,0-.28,0c-.91,15.55-15.83,28.13-29.11,30a10.61,10.61,0,0,0-4.95,2.2,26.94,26.94,0,0,1-2.78,1.77,10.33,10.33,0,0,1-2,.81A12.39,12.39,0,0,0,57.88,98a9.15,9.15,0,0,0-3.18,3,1.19,1.19,0,0,0,0,.92,1.12,1.12,0,0,0,.33.59h0c.06,0,.11-.25.14-.36.1-.28.18-.59.43-.73s.47.08.55.17.17.19.29.19a1.78,1.78,0,0,0,.86-.39c.09-.05,8.87-.05,12.62-.19a3.41,3.41,0,0,0,2.17-.73,5.07,5.07,0,0,1-.53,0,5.21,5.21,0,0,0-.67.06l-.49,0c-2.67-.19-6.13,0-8.63-.19a.52.52,0,0,1-.49-.59A12.43,12.43,0,0,1,63,97.85l-1.13.25h0a3.28,3.28,0,0,1-1.1.45c-.33,0-.52-.08-.58-.25l0-.11.13-.17c1.9-1.46,7.34-3.89,7.57-4a24.7,24.7,0,0,1,4.12-1.12,37,37,0,0,1,5.87-.84,2.81,2.81,0,0,0,1.06-.14A16.78,16.78,0,0,1,87,86.64c.5-.17,1-.34,1.49-.54a14,14,0,0,0,2.84-3.74,27.27,27.27,0,0,1,2.49-3.58c2.41-2.77,3.82-3,3.89-3l.45.67c0-.17.51-.53.86-.53l.3.11a.58.58,0,0,1,.08.37,5,5,0,0,1-.6,1.84,3.13,3.13,0,0,0-.46,1.4,1.33,1.33,0,0,0,.75,0,3.41,3.41,0,0,1,.49-.06l.34.14A4.32,4.32,0,0,1,98.29,82a4.85,4.85,0,0,0-.56.56c0,.12.17.09.33.06a3.23,3.23,0,0,1,.46-.06h.09l.28.14a.4.4,0,0,1,0,.4,6.07,6.07,0,0,1-2.52,1.76c-.4.19-.77.39-1,.53.29.28.6.45.51.72s-.47.48-1.35.9a5.06,5.06,0,0,0-1,.59.53.53,0,0,0,.21.22l.19.28A2.37,2.37,0,0,1,92.3,89a5.25,5.25,0,0,0-.82.25c.18.5.29.84,0,1.23a1,1,0,0,1-.83.48l-.32,0c-.1,0-.17,0-.27.19s.16.31.27.48.35.47.26.67-.18.2-.37.22a8.35,8.35,0,0,0-2.9,1.32,12.86,12.86,0,0,1-2,.56c-.36.08-.74.16-1,.25L83,94.8a19,19,0,0,0-2.56.48c.32,0,1.24.28,6.75-.67A44.14,44.14,0,0,0,93.5,93c1.29-.45,1.32-.64,1.32-.64s-.64-.34-.9-.37c-.49-.16-.75-.28-.79-.44l0-.09.16-.17a4.82,4.82,0,0,1,2-.36c.75-.08,1.9-.22,2-.5s-.34-.39-.93-.51c-.4-.08-.79-.16-.77-.47S96,89.15,97,89s2.42-.4,2.55-.9c-.07-.14-.49-.17-.74-.22-.44,0-.84-.09-.93-.31l0-.08.13-.31a3.23,3.23,0,0,1,1.51-.67c1-.31,2-.67,2.11-1.37-.09-.2-.59-.17-1.12-.12s-.85.14-1-.11c.09-.42.35-.58.78-.78a12.83,12.83,0,0,0,1.41-.76c3.5-2.46,3.93-3.52,3.86-3.94-.6-.14-1.55.42-2.38.92a6.41,6.41,0,0,1-2.05,1l-.29-.11a.62.62,0,0,1,0-.47c0-.17.47-.59,1.71-1.77,2.12-2,6-5.59,5.16-6.57-.75,0-2.39,1.37-3.67,2.52-1.47,1.29-2.39,2.12-2.84,2.12H101l-.21-.3c0-.17.17-.42,1.26-1.82,2.36-3.1,7.27-9.56,6.06-11.89a39.34,39.34,0,0,0-2.88,4.37c-2.52,4.08-4.23,6.76-5,6.76-.36-.28-.26-.55,1.12-3.88,1.5-3.58,4-9.54,3.43-10.29-.46,0-1.48,2.12-2.2,3.72l-.32.75c-1,2.15-1.86,4.14-2.08,4.45-.34-.09-.34-.39-.25-2.3a34.22,34.22,0,0,0,0-4.25c0-.25-.16-.3-.38-.3Z" transform="translate(59.38 3.19)"/><path class="cls-4" d="M59.15,99.44c0-.16-.43,0-.73,0s-.5.2-.47.4.4.11.7,0,.51-.22.5-.42Z" transform="translate(59.38 3.19)"/><path class="cls-4" d="M58.14,100.09H58l-.21-.23c0-.25.2-.47.59-.56a3.58,3.58,0,0,1,.59-.08h.14l.18.22c0,.23-.21.48-.6.56a2,2,0,0,1-.55.09Z" transform="translate(59.38 3.19)"/><path class="cls-5" d="M70.38,35.77a1.34,1.34,0,0,0,1.75-1.15,51.93,51.93,0,0,0-.24-6.4A52.88,52.88,0,0,0,69.23,34a1.33,1.33,0,0,0,1.15,1.76Z" transform="translate(59.38 3.19)"/><path class="cls-5" d="M74.25,36.94a1.33,1.33,0,0,0,1.94-.81,53.48,53.48,0,0,0,1-6.29A54,54,0,0,0,73.44,35a1.36,1.36,0,0,0,.81,1.93Z" transform="translate(59.38 3.19)"/><path class="cls-5" d="M77.82,38.87a1.38,1.38,0,0,0,2.07-.44,56.42,56.42,0,0,0,2.19-6A55.87,55.87,0,0,0,77.4,36.8a1.37,1.37,0,0,0,.42,2.07Z" transform="translate(59.38 3.19)"/><path class="cls-5" d="M80.93,41.42a1.33,1.33,0,0,0,2.1,0A48.94,48.94,0,0,0,86.37,36,54,54,0,0,0,81,39.32a1.34,1.34,0,0,0,0,2.1Z" transform="translate(59.38 3.19)"/><path class="cls-5" d="M83.49,44.55a1.32,1.32,0,0,0,2.06.39,52.74,52.74,0,0,0,4.33-4.67,55.27,55.27,0,0,0-6,2.21,1.38,1.38,0,0,0-.42,2.07Z" transform="translate(59.38 3.19)"/><path class="cls-5" d="M85.4,48.1a1.35,1.35,0,0,0,1.94.81,55.75,55.75,0,0,0,5.17-3.74,58.52,58.52,0,0,0-6.3,1,1.34,1.34,0,0,0-.81,1.93Z" transform="translate(59.38 3.19)"/><path class="cls-5" d="M86.57,52a1.35,1.35,0,0,0,1.75,1.15,57.43,57.43,0,0,0,5.8-2.66,55.43,55.43,0,0,0-6.36-.25A1.37,1.37,0,0,0,86.57,52Z" transform="translate(59.38 3.19)"/><path class="cls-5" d="M87,56a1.36,1.36,0,0,0,1.5,1.48A52.49,52.49,0,0,0,94.65,56a52.49,52.49,0,0,0-6.19-1.48A1.35,1.35,0,0,0,87,56Z" transform="translate(59.38 3.19)"/><path class="cls-5" d="M86.57,60a1.35,1.35,0,0,0,1.19,1.74,51.8,51.8,0,0,0,6.36-.23,54.76,54.76,0,0,0-5.8-2.68A1.34,1.34,0,0,0,86.57,60Z" transform="translate(59.38 3.19)"/><path class="cls-5" d="M85.4,63.87a1.33,1.33,0,0,0,.81,1.93,46.76,46.76,0,0,0,6.3,1,55.54,55.54,0,0,0-5.17-3.75,1.37,1.37,0,0,0-1.94.81Z" transform="translate(59.38 3.19)"/><path class="cls-5" d="M83.49,67.45a1.4,1.4,0,0,0,.42,2.07,62.59,62.59,0,0,0,6,2.21A53.81,53.81,0,0,0,85.55,67a1.38,1.38,0,0,0-2.06.42Z" transform="translate(59.38 3.19)"/><path class="cls-5" d="M80.93,70.56a1.37,1.37,0,0,0,0,2.12A58,58,0,0,0,86.37,76,48,48,0,0,0,83,70.59a1.34,1.34,0,0,0-2.1,0Z" transform="translate(59.38 3.19)"/><path class="cls-5" d="M77.82,73.1a1.38,1.38,0,0,0-.42,2.07,51.49,51.49,0,0,0,4.68,4.34,58.1,58.1,0,0,0-2.19-6,1.36,1.36,0,0,0-2.07-.45Z" transform="translate(59.38 3.19)"/><path class="cls-5" d="M74.25,75A1.37,1.37,0,0,0,73.44,77a52.76,52.76,0,0,0,3.76,5.17,54.47,54.47,0,0,0-1-6.29A1.36,1.36,0,0,0,74.25,75Z" transform="translate(59.38 3.19)"/><path class="cls-5" d="M54.93,73.1a1.37,1.37,0,0,0-2.07.45,53.21,53.21,0,0,0-2.23,6,50.09,50.09,0,0,0,4.69-4.34,1.34,1.34,0,0,0-.39-2.07Z" transform="translate(59.38 3.19)"/><path class="cls-5" d="M51.81,70.56a1.34,1.34,0,0,0-2.1,0A46.86,46.86,0,0,0,46.36,76a58,58,0,0,0,5.42-3.33,1.38,1.38,0,0,0,0-2.12Z" transform="translate(59.38 3.19)"/><path class="cls-5" d="M49.24,67.45A1.38,1.38,0,0,0,47.18,67a54.58,54.58,0,0,0-4.35,4.7,62.63,62.63,0,0,0,6-2.21,1.37,1.37,0,0,0,.42-2.07Z" transform="translate(59.38 3.19)"/><path class="cls-5" d="M47.34,63.87a1.39,1.39,0,0,0-2-.81,54.57,54.57,0,0,0-5.18,3.75,47,47,0,0,0,6.32-1,1.34,1.34,0,0,0,.82-1.93Z" transform="translate(59.38 3.19)"/><path class="cls-5" d="M46.16,60a1.36,1.36,0,0,0-1.78-1.17,57.82,57.82,0,0,0-5.77,2.68,51.81,51.81,0,0,0,6.38.23A1.35,1.35,0,0,0,46.16,60Z" transform="translate(59.38 3.19)"/><path class="cls-5" d="M45.77,56a1.35,1.35,0,0,0-1.48-1.48A53.71,53.71,0,0,0,38.05,56a53.71,53.71,0,0,0,6.24,1.48A1.34,1.34,0,0,0,45.77,56Z" transform="translate(59.38 3.19)"/><path class="cls-5" d="M46.16,52A1.38,1.38,0,0,0,45,50.23a55.39,55.39,0,0,0-6.38.25,60.82,60.82,0,0,0,5.77,2.66A1.36,1.36,0,0,0,46.16,52Z" transform="translate(59.38 3.19)"/><path class="cls-5" d="M47.34,48.1a1.36,1.36,0,0,0-.82-1.93,58.76,58.76,0,0,0-6.32-1,54.76,54.76,0,0,0,5.18,3.74,1.36,1.36,0,0,0,2-.81Z" transform="translate(59.38 3.19)"/><path class="cls-5" d="M49.24,44.55a1.36,1.36,0,0,0-.42-2.07,55.34,55.34,0,0,0-6-2.21,53.48,53.48,0,0,0,4.35,4.67,1.31,1.31,0,0,0,2.06-.39Z" transform="translate(59.38 3.19)"/><path class="cls-5" d="M51.81,41.42a1.36,1.36,0,0,0,0-2.1A54,54,0,0,0,46.36,36a47.76,47.76,0,0,0,3.35,5.4,1.33,1.33,0,0,0,2.1,0Z" transform="translate(59.38 3.19)"/><path class="cls-5" d="M66.35,37.89A18.14,18.14,0,1,1,48.2,56,18.12,18.12,0,0,1,66.35,37.89Z" transform="translate(59.38 3.19)"/><path class="cls-5" d="M66.35,35.41a1.39,1.39,0,0,0,1.5-1.51,53.39,53.39,0,0,0-1.5-6.21A54.93,54.93,0,0,0,64.9,33.9a1.35,1.35,0,0,0,1.45,1.51Z" transform="translate(59.38 3.19)"/><path class="cls-5" d="M70.38,76.18A1.38,1.38,0,0,0,69.23,78a53.78,53.78,0,0,0,2.66,5.79,51.84,51.84,0,0,0,.24-6.38,1.39,1.39,0,0,0-1.75-1.2Z" transform="translate(59.38 3.19)"/><path class="cls-5" d="M66.35,76.57a1.36,1.36,0,0,0-1.45,1.51,53.89,53.89,0,0,0,1.45,6.21,52.39,52.39,0,0,0,1.5-6.21,1.37,1.37,0,0,0-1.5-1.51Z" transform="translate(59.38 3.19)"/><path class="cls-5" d="M62.35,76.18a1.38,1.38,0,0,0-1.75,1.2,53.92,53.92,0,0,0,.24,6.38A60.38,60.38,0,0,0,63.5,78a1.37,1.37,0,0,0-1.15-1.79Z" transform="translate(59.38 3.19)"/><path class="cls-5" d="M58.48,75a1.36,1.36,0,0,0-1.94.81,52.36,52.36,0,0,0-1,6.29A52.76,52.76,0,0,0,59.29,77,1.36,1.36,0,0,0,58.48,75Z" transform="translate(59.38 3.19)"/><path class="cls-5" d="M54.93,38.87a1.36,1.36,0,0,0,.39-2.07,54.22,54.22,0,0,0-4.69-4.33,51.79,51.79,0,0,0,2.23,6,1.37,1.37,0,0,0,2.07.44Z" transform="translate(59.38 3.19)"/><path class="cls-5" d="M58.48,36.94A1.36,1.36,0,0,0,59.29,35a54,54,0,0,0-3.76-5.17,51.44,51.44,0,0,0,1,6.29,1.34,1.34,0,0,0,1.94.81Z" transform="translate(59.38 3.19)"/><path class="cls-5" d="M62.35,35.77A1.34,1.34,0,0,0,63.5,34a59.24,59.24,0,0,0-2.66-5.79,54,54,0,0,0-.24,6.4,1.32,1.32,0,0,0,1.75,1.15Z" transform="translate(59.38 3.19)"/></g></g></g></g></g></g></svg>