<svg xmlns="http://www.w3.org/2000/svg" xmlns:xlink="http://www.w3.org/1999/xlink" viewBox="0 0 229.45 133.85"><defs><style>.cls-1{fill:none;}.cls-2{clip-path:url(#clip-path);}.cls-3{clip-path:url(#clip-path-2);}.cls-4{fill:#efda2b;}.cls-5{fill:#26358c;}.cls-6{fill:#d11227;}.cls-7{fill:#010101;}.cls-8{fill:#efe534;}.cls-9{fill:#806433;}.cls-10{fill:#c21d2e;}.cls-11{fill:#2a6038;}.cls-12{fill:#305aa1;}</style><clipPath id="clip-path" transform="translate(47.78 0.07)"><circle class="cls-1" cx="66.89" cy="66.89" r="66.89"/></clipPath><clipPath id="clip-path-2" transform="translate(47.78 0.07)"><rect class="cls-1" x="-47.78" y="-0.07" width="229.45" height="133.85"/></clipPath></defs><g id="Слой_2" data-name="Слой 2"><g id="Слой_1-2" data-name="Слой 1"><g class="cls-2"><g id="MOLDOVA"><g class="cls-3"><rect class="cls-4" width="229.45" height="133.85"/><rect class="cls-5" width="76.48" height="133.85"/><rect class="cls-6" x="152.97" width="76.48" height="133.85"/><g class="cls-3"><path class="cls-7" d="M59.26,29.9a1.77,1.77,0,0,0-1.11.32.91.91,0,0,1,.64.89v1.08H57.72a.94.94,0,0,1-.91-.66,2,2,0,0,0-.3,1.14,2,2,0,0,0,.3,1.13.94.94,0,0,1,.91-.66h1.07v5.23a.9.9,0,0,1-.59.87c.51.09,1,.77,1.08,1.15.13-.38.58-1.06,1.07-1.15a.94.94,0,0,1-.62-.87V33.14h1.09a.94.94,0,0,1,.92.64,1.89,1.89,0,0,0,.3-1.12,2,2,0,0,0-.3-1.13.93.93,0,0,1-.92.66H59.73V31.11a.91.91,0,0,1,.68-.89,1.94,1.94,0,0,0-1.15-.32" transform="translate(47.78 0.07)"/><path class="cls-8" d="M59.26,30.13a1.75,1.75,0,0,0-.64.11,1.14,1.14,0,0,1,.4.87v1.3h-1.3a1.09,1.09,0,0,1-.87-.41,2.16,2.16,0,0,0-.12.66,2.09,2.09,0,0,0,.12.65,1.12,1.12,0,0,1,.87-.41H59v5.46a1.1,1.1,0,0,1-.4.81,2,2,0,0,1,.44.38,2.23,2.23,0,0,1,.22.39,1.8,1.8,0,0,1,.23-.39,1.31,1.31,0,0,1,.43-.36,1.07,1.07,0,0,1-.4-.83V32.92h1.28a1.29,1.29,0,0,1,.9.39,2.38,2.38,0,0,0,.08-.64,2.46,2.46,0,0,0-.08-.65,1.19,1.19,0,0,1-.9.41H59.54v-1.3a1.24,1.24,0,0,1,.37-.87,1.91,1.91,0,0,0-.65-.11" transform="translate(47.78 0.07)"/><polygon class="cls-9" points="107.88 49.22 106.07 48.81 102.28 46.81 99.9 46.67 99.76 42.05 95.16 38.38 90.48 43.4 89.84 44.88 90.06 90.72 93.05 87.08 93.71 87.24 96.81 83.87 99.45 77.17 100.25 74.41 103.82 78.63 102.45 81.12 103.69 81.03 103.82 82.07 104.94 81.6 105.23 83.03 107.73 80.52 111.17 82.22 104.63 93.92 102.28 95.64 106.49 97.23 110.83 92.18 110.21 95.49 108.89 98.7 114.18 101.73 119.91 98.36 117.05 92.46 118 92.05 121.68 97.4 125.73 95.41 120.49 89.28 117.02 81.91 120.67 80.7 123.15 83.08 123.52 81.54 124.83 82.16 124.66 80.87 125.99 81.16 124.38 78.61 128.45 75.19 131.03 83.25 134.85 87.59 135.63 87.49 138.38 90.9 138.37 43.68 133.28 38.31 128.3 42.35 128.52 46.69 126.3 46.77 123 48.47 121.15 49.08 120.25 49.25 119.13 48.01 117.62 44.97 117.52 41.97 118.46 40 118.29 38.16 119.1 38.17 118.58 36.93 119.33 36.62 118.21 35.65 118.58 35.19 114.39 33.39 111.2 33.17 110.33 33.56 109.92 34.32 110.76 36.72 109.84 37.63 110.76 39.39 110.79 43.24 110.06 46.47 108.62 48.93 107.88 49.22"/><polygon class="cls-10" points="103.03 81.19 99.85 86.04 98.31 86 96.73 86.74 96.2 88.45 96.46 89.25 98.17 91.12 99.58 90.33 100.69 89.11 100.96 88.03 104.98 82.83 104.78 81.52 103.92 82.08 103.58 81.01 103.03 81.19"/><polygon class="cls-10" points="123.27 82.64 127.53 88.36 127.93 89.48 129.79 91.17 130.36 91.02 132.39 88.65 131.95 87.02 130.01 85.85 128.57 86 125.38 81.19 124.81 80.96 124.59 81.89 123.64 81.61 123.27 82.64"/><path class="cls-7" d="M64.41,32.86a3.52,3.52,0,0,0-1.75.31c-.42.29-.37.64-.52.76a2,2,0,0,1-1.21.29,2,2,0,0,0-1.91,2,1.74,1.74,0,0,1,1.31-.7c1.36,0,2.4.74,2.4,1,0,.12-.15.13-.15.13-.89,0-2.25-.51-3-.53v.28l0,0h0v0c1.61.57,3.24,1.36,3.24,4.84a11.81,11.81,0,0,1-1.36,6.19,6.15,6.15,0,0,1-1.6,1.62A14.87,14.87,0,0,1,57.23,48c-1.74-.95-2.63-1.91-4.66-2V44.45c0-.83.27-1.57.27-2.37-.83-.22-3.24-3.15-5.45-4.45-3.25,2.1-5.74,5.55-5.74,7.14,0,0,.09,34.11,0,46a5.13,5.13,0,0,1-.43,1.66c1.19-.51,3.35-3.48,3.82-4.6v.53c1.79-.81,3.12-3,3.68-4.06,0,.16,0,.56,0,.56,1.62-1.4,3.65-9.68,3.65-9.68l-.1-1.75s-1.41,6.77-3,8.16V52.44l1.27,1.18,1.94-1.79V50.45L50.77,52V47.93a6.52,6.52,0,0,0,.54-.91,13.31,13.31,0,0,0,2.22,2.86c.19-.7,1.32-1.38,1.32-1.38s.4,1.11,1,1.39a8.22,8.22,0,0,1,1.51-1.25,3.88,3.88,0,0,0-1.54.6c-.39-.08-.49-1.62-.49-1.62s-1.63.8-1.94,1.37c-.32-.08-.79-1.31-1-1.82a11.5,11.5,0,0,1,1.22-.07,4.61,4.61,0,0,1,1.71.52c.69.32,1.41.74,2,1a7.28,7.28,0,0,0,2.45.47,13.6,13.6,0,0,1-1.36.82,9,9,0,0,0,3.34-.72,9.08,9.08,0,0,0,1.44-1,4.74,4.74,0,0,1-.93,1.69,4.37,4.37,0,0,0,3.31-1.73,6.13,6.13,0,0,0,.75,1.41,4.77,4.77,0,0,0,.77-1.41,4.43,4.43,0,0,0,3.34,1.73,4.84,4.84,0,0,1-1-1.69,11.93,11.93,0,0,0,1.42,1,9,9,0,0,0,3.36.72,13.78,13.78,0,0,1-1.37-.82,7.06,7.06,0,0,0,2.43-.47c.65-.28,1.39-.7,2.09-1a4.38,4.38,0,0,1,1.68-.52,10.94,10.94,0,0,1,1.21.07c-.17.51-.66,1.74-1,1.82-.28-.57-1.91-1.37-1.91-1.37s-.14,1.54-.51,1.62a4,4,0,0,0-1.58-.6,8.55,8.55,0,0,1,1.54,1.25c.61-.28,1-1.39,1-1.39s1.13.68,1.3,1.38A12.21,12.21,0,0,0,81.46,47c.14.24.31.54.55.91V52L80.3,50.45v1.38l1.94,1.79,1.25-1.18V81.57c-1.57-1.39-3-8.16-3-8.16l-.12,1.75s2,8.28,3.65,9.68c0,0,0-.4,0-.56.57,1.1,1.88,3.25,3.67,4.06v-.53c.47,1.12,2.63,4.09,3.82,4.6a5.13,5.13,0,0,1-.43-1.66c-.09-11.87,0-46,0-46,0-1.59-2.5-5-5.74-7.14-2.22,1.3-4.62,4.23-5.48,4.45,0,.8.33,1.54.33,2.37V46c-2,.09-2.94,1.05-4.67,2a14.53,14.53,0,0,1-2.68,1.07,5.82,5.82,0,0,1-1.59-1.62A10,10,0,0,1,70,42.24c0-.8.89-1.67.89-2.32a9.85,9.85,0,0,0-.1-1.54c.33,0,.88.6.88.6s0-1.6-.54-1.88c0,0,.2-.22,1-.24a4.07,4.07,0,0,0-1.24-1.17.52.52,0,0,1,.28-.24,3.34,3.34,0,0,1,.89-.3,10,10,0,0,1-1-.27,23.82,23.82,0,0,1-2.79-1.14,8.19,8.19,0,0,0-3.75-.88m0,.47h.43c1.71,0,2.87.76,4.46,1.47a9.48,9.48,0,0,0,1.16.45,1.39,1.39,0,0,0-.44.53,1.66,1.66,0,0,1,1,.74s-.68.08-.8.47a1,1,0,0,1,.77,1l-1-.32a13.1,13.1,0,0,1,.22,2.26c0,.61-.86,1.31-.86,2.32a9.26,9.26,0,0,0,1.36,5.4,5.28,5.28,0,0,0,.8,1.17c-1.64-.88-2.86-2-2.86-3V42h-.44v3.85a2.29,2.29,0,0,0,.2,1.08,13.84,13.84,0,0,0,1.08,2.59c-1.51-.82-2.28-1.85-2.28-2.22V42H66.9v5.37l.06.37a2.73,2.73,0,0,1-.58.71,4.93,4.93,0,0,1-.58-.71l.11-.37V42h-.46v5.3c0,.37-.73,1.4-2.28,2.22a14.45,14.45,0,0,0,1.12-2.59,2.5,2.5,0,0,0,.18-1.08V42h-.42v3.85c0,1-1.24,2.11-2.86,3A5.19,5.19,0,0,0,62,47.64c.61-1.08,1.39-2.45,1.39-6.35a6.74,6.74,0,0,0-.6-3.15c-.12-.23-.28-.84.6-.84a4.42,4.42,0,0,1,1.51.8,1.51,1.51,0,0,0-.58-1,.61.61,0,0,1-.24-.43.86.86,0,0,1,.42-.53c.12-.06-1.81-.39-1.81-1.26,0-.19.12-.31.51-.31s1.38.63,2.14.63c.54,0,.77-.14,1.33-.14s2.17,1.33,2.63,1.27c-.54-.34-1.43-1.67-2.79-1.67-.48,0-.89.12-1.35.12s-1.1-.52-1.73-.52c-.39,0-.84,0-.92-.08s0-.31.1-.44c.2-.3.78-.38,1.37-.4h.49m-17,5.79h0s3,2.76,4,3.11l0,.94v2.74a6.26,6.26,0,0,1-2.11-2.11v-.38a1.09,1.09,0,0,1,.37-.74l-.45-.16a1.3,1.3,0,0,0-.35.84v.23l-.14.15-.08.08L47.59,45l-1.3-2v-.48a1.62,1.62,0,0,1,.48-.93l-.45-.16a1.9,1.9,0,0,0-.44,1v.38L44.4,44.43s-.6-1.28-.78-1.63a18.33,18.33,0,0,1,3.77-3.68m38,0a19,19,0,0,1,3.79,3.68l-.77,1.63L86.9,42.88V42.5a2,2,0,0,0-.43-1l-.44.16a1.68,1.68,0,0,1,.44.93V43l-1.28,2-1.12-1.19L84,43.74l-.13-.15v-.23a1.23,1.23,0,0,0-.38-.84l-.44.16a1,1,0,0,1,.38.74v.38a6.08,6.08,0,0,1-2.14,2.11V43.17l0-.94c1-.35,4-3.11,4-3.11ZM43.1,43.64l.7,1.25v2.27l-1.07,1V44.77a2.52,2.52,0,0,1,.37-1.13m46.58,0a2.4,2.4,0,0,1,.37,1.13v3.35l-1-1V44.89Zm-43.83.3L47,45.76v1.41L45.85,48.3Zm41.09,0V48.3l-1.2-1.13V45.76Zm-41.5.32v4l-1.22-1.12V45.52Zm41.9,0,1.21,1.26v1.65l-1.21,1.12Zm-38.22.28a6.33,6.33,0,0,0,1.82,2.06,6.17,6.17,0,0,1-1.82,1.78Zm34.53,0v3.84a6.24,6.24,0,0,1-1.81-1.78,5.94,5.94,0,0,0,1.81-2.06m-34.95.2v3.55l-1.21-1.12V45.91Zm35.37,0,1.21,1.17v1.26l-1.21,1.12ZM43.8,48.52v3.54l-1.07-1V49.51Zm45.21,0,1,1v1.57l-1,1Zm-44.79,0,.7.65.52.48v1.26l-.52.49-.7.63Zm2.82,0V52l-.67-.63-.52-.5V49.67l.52-.49Zm.45,0,1.21,1.14v1.24l-.51.51-.7.62Zm2.85,0v3.53l-.7-.64-.52-.5V49.75a5,5,0,0,0,1.22-1.22m32.1,0a5,5,0,0,0,1.21,1.22v1.17l-.52.5-.69.64V48.53Zm2.84,0V52l-.67-.62-.54-.51V49.67Zm.46,0,.69.65.51.49v1.24l-.51.5-.69.63Zm2.81,0V52l-.69-.63-.52-.49V49.66l.52-.48ZM46,52.42l1.27,1.2,1.29-1.19V81.57s.1,1.44.14,2.38L46,86.69Zm40.78,0V86.69L84.07,84c.08-.94.17-2.38.17-2.38V52.43l1.27,1.19Zm-41.5,0V85.6c0,.93-1.71,3.12-2.55,3.62V52.44L44,53.62Zm42.23,0,1.27,1.19,1.27-1.18V89.22c-.83-.5-2.54-2.69-2.54-3.62ZM55.8,78.48a21.84,21.84,0,0,1-1.7,2.94,4.72,4.72,0,0,0,.67,0c-.21.32-1.93,2.77-2.44,3.69s-.87.48-1.64.48a4.49,4.49,0,0,0-2.33,1.43,3,3,0,0,0-.42,1.39,2.5,2.5,0,0,0,.49,1.12.55.55,0,0,1,.15-.3s1.35,1.65,1.5,1.86a1.15,1.15,0,0,0,1.1.06,8.28,8.28,0,0,0,1.68-1.71c.28-.41.31-.86.63-1.29,1-1.45,3.12-4.22,3.62-4.87a3.12,3.12,0,0,1,.07.51c.54-1.1,3.15-3.18,3.15-3.18l-.72-.48a21.35,21.35,0,0,1-2.09,2.17s-.21-.9-.34-1.23a2.45,2.45,0,0,1-.91.47s-.11-.63-.2-1a1.9,1.9,0,0,1-1.07.22c.59-.28,1.31-2,1.31-2l-.51-.25Zm21.18,0-.5.25s.72,1.77,1.32,2a2,2,0,0,1-1.09-.22c-.08.4-.17,1-.17,1a2.46,2.46,0,0,1-1-.47c-.12.33-.35,1.23-.35,1.23a22.18,22.18,0,0,1-2.08-2.17l-.71.48s2.6,2.08,3.14,3.18a3.34,3.34,0,0,1,.11-.51c.46.65,2.55,3.42,3.61,4.87.3.43.32.88.6,1.29a8.39,8.39,0,0,0,1.71,1.71,1.08,1.08,0,0,0,1.06-.06c.2-.21,1.51-1.86,1.51-1.86a.59.59,0,0,1,.16.3,2.5,2.5,0,0,0,.49-1.12,2.72,2.72,0,0,0-.45-1.39,4.25,4.25,0,0,0-2.3-1.43c-.77,0-1.12.39-1.61-.48S78.25,81.79,78,81.47a4.91,4.91,0,0,0,.67,0A21,21,0,0,1,77,78.48M55.61,81.29a2.34,2.34,0,0,0,.26,1.14l.94-.63a7,7,0,0,0,.15.73c-.43.54-2.71,3.67-3.84,5.19a5.45,5.45,0,0,0-.52,1.35s-.41-.19-.41-.55a6.21,6.21,0,0,1,.06-.76,1.19,1.19,0,0,1-.87.35c0-.43.84-.88.87-1.49-.62.46-1.16.22-1.88.45s-1,.58-1.27.56a.36.36,0,0,1-.22-.4,3.25,3.25,0,0,1,1.75-1.12c.18,0,1.44.28,1.72-.12,1.06-1.65,2.8-4.33,3-4.58a.6.6,0,0,0,.29-.12m21.55,0a.65.65,0,0,0,.3.12c.17.25,1.91,2.93,3,4.58.28.4,1.56.09,1.71.12a3.29,3.29,0,0,1,1.76,1.12c.06.15-.06.39-.21.4s-.45-.32-1.24-.56-1.27,0-1.91-.45c0,.61.84,1.06.84,1.49a1.22,1.22,0,0,1-.84-.35,7.43,7.43,0,0,1,0,.76.7.7,0,0,1-.4.55,5.91,5.91,0,0,0-.52-1.35c-1.13-1.52-3.42-4.65-3.84-5.19L76,81.8l.92.63c.27-.29.25-1.14.25-1.14m-14.11.62S58,93.6,53.46,95.41c0,0,2,.82,4.37,2.09.37.17.72.38,1.08.57.31-.36.63-.77,1-1.2,1.44-1.93,2.84-4.16,2.84-4.16.11.58-.66,2.38-2,4.59L60,98.66c.32.17.66.36,1,.56,2.37,1.43,4.63,3.09,5.45,4.61.84-1.52,3.09-3.18,5.47-4.61a10.56,10.56,0,0,1,1-.56c-.32-.47-.56-.93-.82-1.36-1.28-2.21-2-4-2-4.59,0,0,1.42,2.23,2.86,4.16.32.43.64.84.93,1.2.38-.19.72-.4,1.07-.57,2.43-1.27,4.39-2.09,4.39-2.09-4.51-1.81-9.61-13.5-9.61-13.5l-.72.22s4,10.1,8,13.16c-.88.28-2,.66-3,1.13a49.59,49.59,0,0,1-3.82-5.51A29,29,0,0,1,68,85.38c-.57,1.35.62,8.15,3,12.46a18.81,18.81,0,0,0-4.6,3,18.24,18.24,0,0,0-4.58-3c2.4-4.31,3.59-11.11,3-12.46a27.53,27.53,0,0,1-2.17,5.53,43.57,43.57,0,0,1-3.8,5.51c-1.09-.47-2.16-.85-3-1.13,4-3.06,8-13.16,8-13.16ZM49.79,87.52s.06,0,.08.07a.11.11,0,0,1,0,.18l-.43.37a.11.11,0,0,1-.18,0,.12.12,0,0,1,0-.2l.41-.37a.27.27,0,0,1,.12,0m33.22,0a.17.17,0,0,1,.1,0l.41.37a.13.13,0,0,1,0,.2.09.09,0,0,1-.16,0l-.43-.37a.1.1,0,0,1,0-.18s.08-.06.1-.07m-32.79.38a.35.35,0,0,1,.27.6l-1,.87a.32.32,0,0,1-.47-.05.34.34,0,0,1,0-.46l1-.89s.11-.07.17-.07m32.26,0s0,0,.08,0a.27.27,0,0,1,.2.07l1,.89a.29.29,0,0,1,0,.46.31.31,0,0,1-.46.05l-1-.87a.31.31,0,0,1,0-.47.25.25,0,0,1,.19-.13m-31.7.7a.4.4,0,0,1,.33.12.34.34,0,0,1,0,.46l-1,.89a.31.31,0,0,1-.45,0,.33.33,0,0,1,0-.47l1-.89a.27.27,0,0,1,.16-.06m31.14,0s0,0,.06,0a.28.28,0,0,1,.18.06l1,.89a.31.31,0,0,1,0,.47.34.34,0,0,1-.47,0l-1-.89a.31.31,0,0,1,0-.46.23.23,0,0,1,.23-.12m-30.49.67a.41.41,0,0,1,.32.1.36.36,0,0,1,0,.48l-1,.9a.3.3,0,0,1-.44-.06.31.31,0,0,1,0-.47l1-.9a.2.2,0,0,1,.14,0m29.82,0h.09a.23.23,0,0,1,.15,0l1,.9a.3.3,0,0,1,0,.47.3.3,0,0,1-.44.06l-1-.9a.36.36,0,0,1,0-.48.42.42,0,0,1,.2-.1" transform="translate(47.78 0.07)"/><polygon class="cls-7" points="100.25 89.87 102.63 91.17 102.05 93.81 99.68 92.51 100.25 89.87"/><path class="cls-7" d="M41.42,64.44l-.87.4L50.22,86h1Zm11.4,25-.69.73.41,1,.87-.4Z" transform="translate(47.78 0.07)"/><polygon class="cls-8" points="100.6 90.62 102.05 91.42 101.71 93.07 100.22 92.26 100.6 90.62"/><path class="cls-7" d="M44.42,81.14s.82,1.69,1.43,1.91a4.36,4.36,0,0,0-1.36.29,7.25,7.25,0,0,0,3.39,1.76,2.52,2.52,0,0,0,1.94-.57l-.24-1.4a5.58,5.58,0,0,0-2.11-1.42,14.32,14.32,0,0,0-3-.57" transform="translate(47.78 0.07)"/><path class="cls-7" d="M50.54,78.13a5.11,5.11,0,0,0-1.42,2.07,4.25,4.25,0,0,0,.2,2.4l1,1.76a5.12,5.12,0,0,0,1.86-1.74,4.45,4.45,0,0,0,.36-2.44,5.83,5.83,0,0,0-1.18.54,4.29,4.29,0,0,0-.77-2.59" transform="translate(47.78 0.07)"/><path class="cls-7" d="M46.92,77.69a7.47,7.47,0,0,1-2.5.35A3.74,3.74,0,0,1,42.26,77s1-.66,1.47-.57c-.55-.2-1.32-1.53-1.32-1.53a3.58,3.58,0,0,1,2.05,0,4.94,4.94,0,0,1,1.83,1.42Z" transform="translate(47.78 0.07)"/><path class="cls-7" d="M47.36,71.44s.66,1.32.51,1.78a4.43,4.43,0,0,1,.93-.77,8.53,8.53,0,0,1,.06,3.45,3.28,3.28,0,0,1-1.79,1.83L45.63,74.9A3.2,3.2,0,0,1,45.85,73a6.06,6.06,0,0,1,1.51-1.57Z" transform="translate(47.78 0.07)"/><path class="cls-7" d="M39.06,67.93a6.13,6.13,0,0,1,2.63.38,2.54,2.54,0,0,1,1.38,1.24l.53,1.39a4.56,4.56,0,0,1-2.7.13,5,5,0,0,1-2-1.86s.81-.32,1.13-.2c-.46-.2-.94-1.08-.94-1.08" transform="translate(47.78 0.07)"/><path class="cls-7" d="M43.4,65.34A3.45,3.45,0,0,1,44.05,67a2.65,2.65,0,0,1,.88-1,7.87,7.87,0,0,1,.63,3.22,3.46,3.46,0,0,1-1.3,2.14l-1.41-2.66a4.61,4.61,0,0,1-.32-1.93,2.78,2.78,0,0,1,.87-1.44" transform="translate(47.78 0.07)"/><path class="cls-7" d="M38.62,60.26a4.45,4.45,0,0,0,.17,2.28,3.4,3.4,0,0,0,.61.91,4.15,4.15,0,0,0-1.83-.53,4.8,4.8,0,0,0,1.35,2.29,3.77,3.77,0,0,0,2.38.56,4.79,4.79,0,0,0,.88-2.63A6.21,6.21,0,0,0,41,60.33a4.93,4.93,0,0,0-.44,1.54C40.28,61.19,38.62,60.26,38.62,60.26Z" transform="translate(47.78 0.07)"/><path class="cls-11" d="M39,61.14a4.16,4.16,0,0,0,.3,1.65,2.34,2.34,0,0,0,1.13.85A3.54,3.54,0,0,0,40.15,62,2.08,2.08,0,0,0,39,61.14" transform="translate(47.78 0.07)"/><path class="cls-11" d="M38.32,63.53a3,3,0,0,1,1.43.46,2.68,2.68,0,0,1,.75,1.26,1.88,1.88,0,0,1-1.16-.35,5.24,5.24,0,0,1-1-1.37" transform="translate(47.78 0.07)"/><path class="cls-11" d="M41.19,61.39a3.37,3.37,0,0,0-.26,1.46,4.27,4.27,0,0,0,.46,1.59,4.54,4.54,0,0,0,.38-1.65,2.86,2.86,0,0,0-.58-1.4" transform="translate(47.78 0.07)"/><path class="cls-11" d="M39.63,68.19a3.29,3.29,0,0,0,1.16,1,4.64,4.64,0,0,0,1.71.36,3.93,3.93,0,0,0-1.2-1,4.29,4.29,0,0,0-1.67-.32" transform="translate(47.78 0.07)"/><path class="cls-11" d="M39.86,69.66a2.43,2.43,0,0,0,.93.93,5.88,5.88,0,0,0,1.84.25A3.22,3.22,0,0,0,41.57,70a5.39,5.39,0,0,0-1.71-.3" transform="translate(47.78 0.07)"/><path class="cls-11" d="M43.36,66.2A2.61,2.61,0,0,0,43,67.47a3.35,3.35,0,0,0,.46,1.4,4.81,4.81,0,0,0,.27-1.51,2.29,2.29,0,0,0-.41-1.16" transform="translate(47.78 0.07)"/><path class="cls-11" d="M44.69,67.05a4.43,4.43,0,0,0-.72,1.7,3.8,3.8,0,0,0,.37,1.77,3.26,3.26,0,0,0,.84-1.63,3.49,3.49,0,0,0-.49-1.84" transform="translate(47.78 0.07)"/><path class="cls-11" d="M43,75a1.86,1.86,0,0,0,.32.63,5.39,5.39,0,0,0,.72.68,2.16,2.16,0,0,1,1,0,4.47,4.47,0,0,1,1.27.6,6.25,6.25,0,0,0-1.59-1.6A2.76,2.76,0,0,0,43,75" transform="translate(47.78 0.07)"/><path class="cls-11" d="M42.9,77a4.26,4.26,0,0,1,1.82-.32,3.57,3.57,0,0,1,1.56.75,4.78,4.78,0,0,1-1.94.27A2.88,2.88,0,0,1,42.9,77" transform="translate(47.78 0.07)"/><path class="cls-11" d="M47.09,72.38a3.82,3.82,0,0,0-.94,1.73,2.3,2.3,0,0,0,.69,1.57,2.63,2.63,0,0,1,.13-.86,2.93,2.93,0,0,1,.42-.71,2,2,0,0,0,.08-.74,3.44,3.44,0,0,0-.38-1" transform="translate(47.78 0.07)"/><path class="cls-11" d="M48.36,73.45a4.49,4.49,0,0,0-1,1.75,3.35,3.35,0,0,0,.17,1.85,2.9,2.9,0,0,0,1-1.49,5.16,5.16,0,0,0-.1-2.11" transform="translate(47.78 0.07)"/><path class="cls-11" d="M50.46,78.88a6.78,6.78,0,0,1,.48,1.45,2.61,2.61,0,0,1,0,.88,6.62,6.62,0,0,0-.57.61,1.68,1.68,0,0,0-.26.81,3.7,3.7,0,0,1-.67-2,4.06,4.06,0,0,1,1-1.74" transform="translate(47.78 0.07)"/><path class="cls-11" d="M52.07,80.7A5.66,5.66,0,0,0,50.69,82a1.94,1.94,0,0,0-.18,1.37,1.56,1.56,0,0,0,1.12-.73,5.44,5.44,0,0,0,.44-2" transform="translate(47.78 0.07)"/><path class="cls-11" d="M45.53,83.48a11.14,11.14,0,0,1,2.31.19,2,2,0,0,1,1.2.68,3.15,3.15,0,0,1-1.87.24,3.75,3.75,0,0,1-1.64-1.11" transform="translate(47.78 0.07)"/><path class="cls-11" d="M45.28,81.78a4.11,4.11,0,0,0,1.49,1.37,4.77,4.77,0,0,0,2.5.25,5,5,0,0,0-1.74-1.27,6.31,6.31,0,0,0-2.25-.35" transform="translate(47.78 0.07)"/><path class="cls-7" d="M49.93,84.47V85c.87,0,1-.09,1.21.18a.77.77,0,0,0,.87.18.69.69,0,0,0,.33-.93.67.67,0,0,0-.8-.37c-.2,0-.32.19-.49.28a3.31,3.31,0,0,1-1.13.13" transform="translate(47.78 0.07)"/><path class="cls-8" d="M52.05,84.56h0a.4.4,0,0,1-.2.51.39.39,0,0,1-.52-.19h0a.4.4,0,0,1,.2-.5.36.36,0,0,1,.5.18Z" transform="translate(47.78 0.07)"/><path class="cls-7" d="M49.82,84.08l.43.3c-.46.74-.58.8-.46,1.14a.77.77,0,0,1-.32.81.68.68,0,0,1-1-.21.64.64,0,0,1,.09-.87,1.67,1.67,0,0,1,.5-.25,3.93,3.93,0,0,0,.72-.92" transform="translate(47.78 0.07)"/><path class="cls-8" d="M48.75,86h0a.43.43,0,0,0,.55.11.39.39,0,0,0,.09-.54h0a.36.36,0,0,0-.51-.11.42.42,0,0,0-.13.54Z" transform="translate(47.78 0.07)"/><path class="cls-7" d="M46.92,77.93l0,.51c.87,0,1-.09,1.21.19a.74.74,0,0,0,.84.18.69.69,0,0,0,.35-.94.65.65,0,0,0-.79-.37c-.2,0-.33.19-.48.27a3.26,3.26,0,0,1-1.16.16" transform="translate(47.78 0.07)"/><path class="cls-8" d="M49,78h0a.37.37,0,0,1-.16.5.4.4,0,0,1-.52-.19h0a.4.4,0,0,1,.2-.51A.35.35,0,0,1,49,78Z" transform="translate(47.78 0.07)"/><path class="cls-7" d="M47.09,78.1l.38.37c-.58.65-.72.69-.64,1a.77.77,0,0,1-.46.76.68.68,0,0,1-.91-.35.63.63,0,0,1,.25-.84,1.3,1.3,0,0,1,.52-.19,3.43,3.43,0,0,0,.86-.79" transform="translate(47.78 0.07)"/><path class="cls-8" d="M45.76,79.79h0a.36.36,0,0,0,.49.19.39.39,0,0,0,.2-.5h0a.4.4,0,0,0-.52-.2.37.37,0,0,0-.17.5Z" transform="translate(47.78 0.07)"/><path class="cls-7" d="M44,71.77l0,.53c.87,0,1-.08,1.2.19a.76.76,0,0,0,.86.18.69.69,0,0,0-.46-1.3c-.19,0-.32.19-.47.27a3.54,3.54,0,0,1-1.16.13" transform="translate(47.78 0.07)"/><path class="cls-8" d="M46.15,71.87h0a.37.37,0,0,1-.18.51.4.4,0,0,1-.51-.2h0a.4.4,0,0,1,.19-.51.38.38,0,0,1,.5.19Z" transform="translate(47.78 0.07)"/><path class="cls-7" d="M44.24,71.67l.37.38c-.53.65-.69.68-.64,1a.72.72,0,0,1-.43.74.7.7,0,0,1-.93-.35.65.65,0,0,1,.24-.84,3.83,3.83,0,0,1,.53-.19,3,3,0,0,0,.86-.78" transform="translate(47.78 0.07)"/><path class="cls-8" d="M42.9,73.36h0a.39.39,0,0,0,.52.18.34.34,0,0,0,.18-.49h0a.37.37,0,0,0-.5-.2.4.4,0,0,0-.2.51Z" transform="translate(47.78 0.07)"/><path class="cls-7" d="M40.93,65.3l0,.52c.85,0,1-.09,1.2.19a.74.74,0,0,0,.86.17.7.7,0,0,0-.49-1.3c-.18,0-.29.2-.46.28a3.62,3.62,0,0,1-1.16.14" transform="translate(47.78 0.07)"/><path class="cls-8" d="M43.07,65.38h0a.36.36,0,0,1-.2.5.38.38,0,0,1-.49-.19h0a.38.38,0,1,1,.69-.32Z" transform="translate(47.78 0.07)"/><path class="cls-7" d="M41.17,65.2l.37.36c-.56.65-.75.68-.67,1a.73.73,0,0,1-.4.76.69.69,0,0,1-.93-.35.64.64,0,0,1,.24-.85A1.89,1.89,0,0,1,40.3,66a3.19,3.19,0,0,0,.87-.78" transform="translate(47.78 0.07)"/><path class="cls-8" d="M39.83,66.87h0a.35.35,0,0,0,.49.19.38.38,0,0,0,.2-.51h0a.38.38,0,0,0-.52-.17.37.37,0,0,0-.17.49h0" transform="translate(47.78 0.07)"/><path class="cls-8" d="M46.37,76.37c-.32.13-.77-1.21-1.12-1.94s-1-1.93-.83-2,.5.51.86,1.29,1.39,2.56,1.09,2.67" transform="translate(47.78 0.07)"/><path class="cls-8" d="M43.18,69.29c-.31.14-.65-.75-1-1.48s-.67-1.3-.47-1.39.55.57.81,1.19.93,1.56.63,1.68" transform="translate(47.78 0.07)"/><path class="cls-8" d="M50.54,85.36c-.25.06-1.31-2.15-2.16-4S46.87,78,47.09,77.85s.9,1.67,1.77,3.54,1.85,3.91,1.68,4" transform="translate(47.78 0.07)"/><polygon class="cls-12" points="100.17 64.19 100.22 75.6 101.06 76.97 106.37 79.89 113.19 83.02 114.04 83.94 119.92 80.73 126.81 77.47 128.13 75.47 128.13 64.25 100.17 64.19"/><path class="cls-10" d="M52.07,50.39l.35,1-.07,13.1.49.54,4,.47,4.37-.63,4.29.66s0,.26,0,.26.64-.1.84-.11.82.11.82.11,0-.25,0-.26l4.29-.66,4.36.63,4-.47.46-.54-.07-13.1.35-1-4.8,0-9.5.1-9.49-.1-4.84,0Z" transform="translate(47.78 0.07)"/><polygon class="cls-8" points="101.27 65.07 103.44 64.21 104.95 63.02 105.99 64.15 108.1 65.01 106.39 65.98 104.88 67.31 103.55 66.31 101.27 65.07"/><polygon class="cls-8" points="123.36 63.09 122.38 64.15 120.27 65.01 122.26 66.24 123.52 67.38 124.91 66.24 127.14 65.13 124.83 64.21 123.36 63.09"/><polygon class="cls-8" points="114.15 52.29 113.51 54.26 111.6 53.34 112.47 55.25 110.6 55.97 112.47 56.64 111.67 58.54 113.43 57.62 114.15 59.59 114.87 57.62 116.67 58.41 115.86 56.64 117.72 55.97 115.94 55.19 116.73 53.28 114.87 54.2 114.15 52.29"/><polygon class="cls-8" points="119.22 51.95 119.83 54.07 120.75 56.77 120.87 59.33 119.83 61.18 117.92 61.98 116.88 62.3 115.62 61.64 114.23 62.48 112.71 61.58 111.45 62.43 110.68 61.91 109.29 61.72 107.72 60.05 107.37 57.09 109.29 51.83 106.91 53.74 104.88 56.49 104.88 60.13 106.33 62.56 108.97 64.28 109.66 64.47 108.42 66.78 110.6 67.43 111.72 68.55 112.32 70.8 112.19 75.6 111.52 76.72 110.09 77.72 110.01 78.63 111.6 79.62 112.96 80.74 115.02 80.8 116.81 79.56 118.32 78.7 117.92 77.39 116.33 76.13 116.01 72.3 116.46 68.48 118.76 67.04 119.95 66.64 118.72 64.28 120.61 63.62 122.72 61.76 123.71 58.08 123.12 55.84 121.66 53.99 119.22 51.95"/><polygon class="cls-8" points="110.21 68.45 111.13 69.37 110.28 70.24 109.4 69.35 110.21 68.45"/><polygon class="cls-8" points="118.14 68.36 117.22 69.31 118.05 70.21 119.04 69.35 118.14 68.36"/><polygon class="cls-8" points="118.81 70.8 117.14 71.19 116.73 72.14 116.7 74.78 117.39 76.26 118.32 76.65 118.18 73.2 118.81 70.8"/><polygon class="cls-8" points="109.54 70.82 110.13 73.75 110.13 76.59 110.97 76 111.52 74.72 111.63 72.48 111.2 71.12 109.54 70.82"/><polygon class="cls-8" points="124.66 73.16 122.75 72.24 120.92 72.64 119.95 73.75 119.85 75.56 121.21 77.16 121.53 77.25 121.51 75.54 122.95 73.55 124.66 73.16"/><polygon class="cls-8" points="106.49 72.54 106.3 71.75 105.26 71.15 104.4 71.49 103.99 72.38 104.22 73.16 103.32 73.06 102.6 73.75 102.51 74.67 103 75.26 103.69 75.51 104.08 75.48 103.74 76.29 104.02 77.12 104.83 77.58 105.78 77.34 106.27 76.42 107.03 76.94 108.01 76.75 108.62 75.8 108.19 74.91 107.73 74.54 108.39 74.19 108.68 73.11 107.78 72.08 106.91 72.21 106.49 72.54"/><path class="cls-7" d="M61.59,51.14c-.14,1-5,3-5,7a6.61,6.61,0,0,0,4.83,6.4l-.2.36-1.16,2.15a6.2,6.2,0,0,1,3.07,1c1.27,1.1,1.14,3.41,1.14,5.09,0,1.33-.18,2.73-.85,3.31-.92.78-1.56.84-1.56,1.74s.62.92,1.56,1.41c1.22.64,1.17,1.5,3,1.5s1.76-.86,3-1.5c1-.49,1.54-.65,1.54-1.41s-.6-1-1.54-1.74c-.66-.58-.84-2-.84-3.31,0-1.68-.11-4,1.16-5.09a6.09,6.09,0,0,1,3-1l-1.16-2.15-.2-.36a6.61,6.61,0,0,0,4.83-6.4c0-4-4.86-6-5-7-.47,1.66,1.61,4,1.61,6.7,0,3.53-2.6,3.7-2.6,3.7-.63,0-.87.44-1.09.44-.52,0-.78-.71-1.27-.71S67,62,66.38,62s-1-.75-1.47-.75-.74.66-1.23.71c-.26,0-.51-.44-1.12-.44,0,0-2.61-.17-2.61-3.7,0-2.73,2.11-5,1.64-6.7m10,13.77s3.27,1.43,4.11,2.66A24.44,24.44,0,0,1,80,65.07a11.24,11.24,0,0,1-4.29-2.36c-1.14,1.48-4.11,2.2-4.11,2.2m-10.34,0s-3-.72-4.08-2.2a11.54,11.54,0,0,1-4.3,2.36,26,26,0,0,1,4.3,2.5c.86-1.23,4.08-2.66,4.08-2.66m5.16-13.43-.85,2.4-2.28-1.09,1.1,2.3L62,55.93l2.38.85-1.1,2.29L65.53,58l.85,2.39L67.24,58l2.29,1.1-1.1-2.29,2.38-.85-2.38-.84,1.1-2.3-2.29,1.09ZM60.87,52.6c.2.42-1.61,3.07-1.61,5.24,0,2.66,1.41,4.23,3.3,4.23.37,0,.77.48,1.12.48.53,0,.91-.61,1.23-.61s.72.68,1.47.68,1.06-.68,1.48-.68.69.61,1.27.61c.34,0,.74-.48,1.09-.48,1.91,0,3.31-1.57,3.31-4.23,0-2.17-1.83-4.82-1.63-5.24,0,0,3.57,2.53,3.57,5.55,0,4.83-4.9,6-4.9,6l1.08,2.48a5.84,5.84,0,0,0-2.42,1C68,68.63,68,71.34,68,73.15c0,2.16.07,3.07.85,3.65s1.44.75,1.44,1.36-.63.78-1.47,1.14-1,1.14-2.4,1.14S64.93,79.72,64,79.3s-1.47-.58-1.47-1.14.63-.75,1.44-1.36.84-1.49.84-3.65c0-1.81,0-4.52-1.24-5.51a6,6,0,0,0-2.46-1l1.13-2.48s-4.93-1.2-4.93-6c0-3,3.56-5.55,3.56-5.55m5.53.5L67,54.62l1.45-.69-.69,1.46,1.52.54-1.52.54.69,1.46L67,57.24l-.57,1.51-.53-1.51-1.45.69.69-1.46-1.52-.54,1.52-.54-.69-1.46,1.45.69ZM57.08,63.44A5.91,5.91,0,0,0,59.63,65a10.22,10.22,0,0,0-2.49,1.86v.06s0,0,0,0-.06,0-.06.06v-.11a16,16,0,0,0-2.8-1.73,8.37,8.37,0,0,0,2.83-1.68m18.62,0a8.56,8.56,0,0,0,2.83,1.68,16.12,16.12,0,0,0-2.78,1.73V67s0,0,0-.06l0,0v-.06A11,11,0,0,0,73.15,65a5.91,5.91,0,0,0,2.55-1.56M62.46,68.09,61.3,69.25l1.16,1.17,1.16-1.17Zm7.85,0-1.13,1.16,1.13,1.17,1.19-1.17Zm-7.85.56.59.6-.59.62-.62-.62Zm7.85,0,.63.6-.63.62-.6-.62Zm-8.92,1.77a13.2,13.2,0,0,1,.77,4.47A13,13,0,0,1,62,77.13,3,3,0,0,0,64,75c.12-.78.32-3.65-.48-4.15Zm10,0-2.14.42c-.79.5-.61,3.37-.46,4.15a2.94,2.94,0,0,0,2,2.14,15,15,0,0,1-.13-2.24,13.13,13.13,0,0,1,.78-4.47m-14,.48a.72.72,0,0,0-.24,0,1.36,1.36,0,0,0-1,1.68,1.57,1.57,0,0,0,.12.3,1.8,1.8,0,0,0-.32-.06h-.15a1.38,1.38,0,0,0-.05,2.75,1.67,1.67,0,0,0,.32,0,2.67,2.67,0,0,0-.17.3,1.38,1.38,0,0,0,2.57,1,.66.66,0,0,0,.08-.32l.24.25a1.38,1.38,0,0,0,1.77-2.12,1.59,1.59,0,0,0-.27-.18l.29-.14A1.4,1.4,0,0,0,61,72.49a1.36,1.36,0,0,0-1.26-.64,1.33,1.33,0,0,0-.65.22,1.64,1.64,0,0,0-.26.2,1.27,1.27,0,0,0,0-.33,1.37,1.37,0,0,0-1.41-1m4.76.16,1.14.25c.42.58.34,1.53.34,2.85a2.09,2.09,0,0,1-1,1.84,18.2,18.2,0,0,0-.5-4.94m8.52,0A18.27,18.27,0,0,0,70.14,76a2.09,2.09,0,0,1-1-1.84c0-1.32-.05-2.27.35-2.85Zm-13.18.41a1,1,0,0,1,1.08.81,1.34,1.34,0,0,1,0,.35c0,.1,0,.19-.07.26a1.82,1.82,0,0,0-.52-.08,1.56,1.56,0,0,0-1.19.53,1.5,1.5,0,0,1-.2-.23,1.12,1.12,0,0,1-.12-.32,1,1,0,0,1,.77-1.29.73.73,0,0,1,.22,0m17.15.44a2.74,2.74,0,0,0-2.87,3,3.52,3.52,0,0,0,2.69,2.93A3,3,0,0,1,74,76.56a2.75,2.75,0,0,1,2.87-3,3.76,3.76,0,0,1,.82.11,3.63,3.63,0,0,0-3.07-1.73m-15,.38a1.09,1.09,0,0,1,.52,2,1,1,0,0,1-.32.13,1.46,1.46,0,0,1-.29,0v-.05A1.57,1.57,0,0,0,58.62,73a.73.73,0,0,1,.14-.26.87.87,0,0,1,.26-.24,1.21,1.21,0,0,1,.61-.16m15,.24a2.91,2.91,0,0,1,1.53.45,3.36,3.36,0,0,0-2.77,3.63,2.74,2.74,0,0,1-1-1.74,2.11,2.11,0,0,1,2.26-2.34m-18.47.65a2.21,2.21,0,0,1,.35.08.94.94,0,0,1,.22.15,1.61,1.61,0,0,0-.32,1,1.64,1.64,0,0,0,.2.78.8.8,0,0,1-.28.13,1.09,1.09,0,0,1-.32,0,1.05,1.05,0,0,1-1-1.15,1,1,0,0,1,1.13-1m1.84.16a1,1,0,1,1-1.06,1,1,1,0,0,1,1.06-1m1.54,1.18.29.08a1.28,1.28,0,0,1,.3.17,1.08,1.08,0,0,1,.13,1.5,1.06,1.06,0,0,1-1.52.14,1.13,1.13,0,0,1-.22-.27.93.93,0,0,1-.1-.26,1.6,1.6,0,0,0,1.12-1.36m-2.86.73a1.58,1.58,0,0,0,1.32.69l.32,0c0,.1,0,.2,0,.3a2,2,0,0,1-.08.33,1.07,1.07,0,0,1-1.39.6,1.09,1.09,0,0,1-.61-1.4.84.84,0,0,1,.2-.29.56.56,0,0,1,.21-.19m7.87,2.55c-1,0-1.59.21-1.59.49s.61.5,1.59.5a.5.5,0,1,0,0-1m3.71,0a.5.5,0,1,0,0,1c1,0,1.56-.2,1.56-.5s-.59-.49-1.56-.49" transform="translate(47.78 0.07)"/><path class="cls-8" d="M50.81,50S52.1,51,52.1,52V75.12a2,2,0,0,0,.5,1.41A6.11,6.11,0,0,0,54.21,78a69.12,69.12,0,0,0,8,3.9c2.16,1,3,1.38,4.14,2.77,1.13-1.39,2-1.78,4.19-2.77a69,69,0,0,0,8-3.9,6.91,6.91,0,0,0,1.62-1.42,2.17,2.17,0,0,0,.47-1.41V52c0-1,1.26-1.93,1.26-1.93H50.81Zm1.64.75H80.33a1.85,1.85,0,0,0-.4,1.18V75.12c0,.52-.5,1.7-3.54,3.21-5,2.49-8.85,3.66-10,5.07-1.14-1.41-5-2.58-10-5.07-3-1.51-3.55-2.69-3.55-3.21V52a1.88,1.88,0,0,0-.39-1.18" transform="translate(47.78 0.07)"/><path class="cls-7" d="M65.68,35.88a1,1,0,0,1-1.07.82c-.58,0-1.09-.37-1.09-.82s.51-.83,1.09-.83a1,1,0,0,1,1.07.83Z" transform="translate(47.78 0.07)"/><path class="cls-10" d="M59.41,35.4a1.45,1.45,0,0,1,1.26-.68l1.62,0c.17.44.91,1.15.91,1.9a3.24,3.24,0,0,0-2.9-1.37,2.22,2.22,0,0,0-.89.18" transform="translate(47.78 0.07)"/><path class="cls-7" d="M62.16,35.58s-.51-.16-.51-.33.24-.24.39-.06a.66.66,0,0,1,.12.39" transform="translate(47.78 0.07)"/><path class="cls-10" d="M62.88,36.86a3.54,3.54,0,0,0-.54.73,4.84,4.84,0,0,1-1.24-1,3.11,3.11,0,0,0,1.78.25" transform="translate(47.78 0.07)"/><path class="cls-7" d="M96.28,60.78,94.63,62l.17.39a1,1,0,0,0-.44.37.84.84,0,0,0,.1.66,7.05,7.05,0,0,0-1.83,0c-.23.14.09,1.25-.06,2.17-.2,1.29-.72,1.18-.74,1.43a1.8,1.8,0,0,0,.2.63.81.81,0,0,0-.35.22c-.1.19.08.56-.06.81-.68,1.35-1.7,3.36-2.37,4.67-.1.17-.35.25-.5.51a1.08,1.08,0,0,0,0,.56.76.76,0,0,0-.61.33,1.25,1.25,0,0,0,0,.75.57.57,0,0,0-.43.31c-.15.29.11.44,0,.57-.91,1.77-2,3.88-2.64,5.15-.23.47-1.07.55-1.58,1.51a1.45,1.45,0,0,0,.23,1.61s-.71.06-.89.42a1,1,0,0,0,.48,1.2A.9.9,0,0,0,84.53,86c.19-.36-.18-1-.18-1a1.46,1.46,0,0,0,1.43-.8c.48-1,0-1.67.3-2.14.67-1.28,1.74-3.37,2.65-5.15,0-.12.32,0,.45-.31a.47.47,0,0,0,0-.52,1.36,1.36,0,0,0,.59-.5.8.8,0,0,0-.09-.68,1,1,0,0,0,.46-.34c.11-.25,0-.5.11-.69.69-1.32,1.71-3.31,2.38-4.67.14-.24.53-.31.61-.51s0-.43,0-.43a1.57,1.57,0,0,0,.65-.21c.18-.15-.19-.51.72-1.43.66-.67,1.7-1.06,1.7-1.33s-1-1.48-1-1.48a.81.81,0,0,0,.58-.32.9.9,0,0,0,.05-.59l.41-.07ZM80.62,90.51a.46.46,0,0,0-.38.24.51.51,0,0,0,0,.45s-.53-.16-.7-.07a12.78,12.78,0,0,0,0,2.55,13.19,13.19,0,0,0,2.06-1.51c-.06-.19-.48-.53-.48-.53a.51.51,0,0,0,.37-.26.63.63,0,0,0-.4-.76.85.85,0,0,0-.47-.11" transform="translate(47.78 0.07)"/><path class="cls-8" d="M96,61.38l-1,.69.47.25.49.25Zm-.93,1.14a.55.55,0,0,0-.43.27.56.56,0,0,0,.27.71.54.54,0,0,0,.74-.19.57.57,0,0,0-.26-.72.93.93,0,0,0-.32-.07m-1.85,1.15c-.14,0-.26,0-.26,0s0,1,0,1.72a2,2,0,0,1-.43,1.16c-.07.23-.52.5-.52.5l.35.34s.22-.36.6-1A15.92,15.92,0,0,0,93.47,64a8.19,8.19,0,0,1,1-.28s-.82-.05-1.25,0m1.53.22a3.82,3.82,0,0,0-1,.29,17.45,17.45,0,0,1-.57,2.31,10.66,10.66,0,0,1-.6,1.08l.25.13.24.11s.14-.31.52-1.1c.48-1,1.53-1.65,1.54-1.82a4.31,4.31,0,0,0-.33-1M95,64a8.48,8.48,0,0,1,.32,1c0,.14-1.19,1-1.62,1.82s-.49,1.09-.49,1.09l.47.07a2.21,2.21,0,0,1,.08-.72,2,2,0,0,1,.73-1,15.56,15.56,0,0,0,1.39-1A10.91,10.91,0,0,0,95,64m-2.72,3.95a.43.43,0,0,0-.35.22A7.7,7.7,0,0,1,91.21,70c-.32.63-.45.88-.8,1.54l-.85,1.68a.34.34,0,0,0,.16.49.31.31,0,0,0,.45-.18s.52-1,.87-1.67.46-.92.79-1.56a9.53,9.53,0,0,1,1-1.69.4.4,0,0,0-.21-.61.53.53,0,0,0-.32-.06m-3.13,5.92a.34.34,0,0,0-.28.13c-.09.18.08.44.35.6s.6.11.69-.07-.06-.44-.37-.57a.57.57,0,0,0-.39-.09m-.43.86a.46.46,0,0,0-.44.2c-.13.24,0,.55.42.72a.61.61,0,0,0,.83-.1c.09-.22-.09-.54-.43-.72a1.07,1.07,0,0,0-.38-.1m-.57,1.08a.33.33,0,0,0-.27.14c-.08.18.07.43.35.58s.6.11.67-.06-.06-.44-.32-.58a.86.86,0,0,0-.43-.08m-.24.91a.49.49,0,0,0-.28.2s-1.83,3.59-2.44,4.87c-.2.4-1.07.65-1.42,1.31a1,1,0,1,0,1.78.93c.33-.68,0-1.51.25-1.93l2.46-4.85a.33.33,0,0,0-.15-.49.38.38,0,0,0-.2,0M83.52,85a.51.51,0,0,0-.47.25.62.62,0,0,0,.38.8.6.6,0,0,0,.84-.18.65.65,0,0,0-.35-.79.67.67,0,0,0-.4-.08m-2.9,5.75c-.09,0-.2,0-.22.12s.08.33.33.47.52.11.56,0-.07-.34-.32-.47a.68.68,0,0,0-.35-.09m-.87.68V93.2l1.47-1a1.68,1.68,0,0,0-.64-.58,1.61,1.61,0,0,0-.83-.16" transform="translate(47.78 0.07)"/><path class="cls-8" d="M65.36,35.88a.75.75,0,1,1-.75-.75.74.74,0,0,1,.75.75Z" transform="translate(47.78 0.07)"/><path class="cls-7" d="M64.93,35.88a.34.34,0,0,1-.32.34.34.34,0,0,1-.34-.34.33.33,0,1,1,.66,0" transform="translate(47.78 0.07)"/></g></g></g></g></g></g></svg>