<svg xmlns="http://www.w3.org/2000/svg" xmlns:xlink="http://www.w3.org/1999/xlink" viewBox="0 0 235.39 137.34"><defs><style>.cls-1{fill:none;}.cls-2{clip-path:url(#clip-path);}.cls-3{clip-path:url(#clip-path-2);}.cls-4{fill:#d0122a;}.cls-5{fill:#fff;}</style><clipPath id="clip-path" transform="translate(12.02 1.77)"><circle class="cls-1" cx="66.89" cy="66.89" r="66.89"/></clipPath><clipPath id="clip-path-2" transform="translate(12.02 1.77)"><rect class="cls-1" x="-12.02" y="-1.77" width="235.39" height="137.34"/></clipPath></defs><g id="Слой_2" data-name="Слой 2"><g id="Слой_1-2" data-name="Слой 1"><g class="cls-2"><g id="TURKEY"><g class="cls-3"><rect class="cls-4" width="235.39" height="137.34"/><g class="cls-3"><path class="cls-5" d="M56.63,32.55A34.33,34.33,0,1,1,22.32,66.88,34.35,34.35,0,0,1,56.63,32.55" transform="translate(12.02 1.77)"/><path class="cls-4" d="M65.22,39.4A27.48,27.48,0,1,1,37.75,66.88,27.48,27.48,0,0,1,65.22,39.4" transform="translate(12.02 1.77)"/><polygon class="cls-5" points="97.67 68.65 113.97 73.97 116.63 65.78 97.67 68.65"/><polygon class="cls-5" points="97.67 68.65 113.97 63.37 116.63 71.53 97.67 68.65"/><polygon class="cls-5" points="109.52 52.33 109.52 69.5 118.1 69.5 109.52 52.33"/><polygon class="cls-5" points="109.52 52.33 119.6 66.22 112.68 71.26 109.52 52.33"/><polygon class="cls-5" points="109.52 85.01 119.6 71.09 112.68 66.05 109.52 85.01"/><polygon class="cls-5" points="109.52 85.01 109.52 67.8 118.1 67.8 109.52 85.01"/><polygon class="cls-5" points="128.71 58.6 112.41 63.86 115.06 72.02 128.71 58.6"/><polygon class="cls-5" points="128.71 58.6 118.63 72.46 111.67 67.42 128.71 58.6"/><polygon class="cls-5" points="128.71 78.76 118.63 64.87 111.67 69.91 128.71 78.76"/><polygon class="cls-5" points="128.71 78.76 112.41 73.45 115.06 65.28 128.71 78.76"/></g></g></g></g></g></g></svg>