<svg xmlns="http://www.w3.org/2000/svg" xmlns:xlink="http://www.w3.org/1999/xlink" viewBox="0 0 229.36 133.79"><defs><style>.cls-1{fill:none;}.cls-2{clip-path:url(#clip-path);}.cls-3{clip-path:url(#clip-path-2);}.cls-4{fill:#cb1520;}.cls-5{fill:#fff;}.cls-6{fill:#2b3560;}</style><clipPath id="clip-path" transform="translate(37.95)"><circle class="cls-1" cx="66.89" cy="66.89" r="66.89"/></clipPath><clipPath id="clip-path-2" transform="translate(37.95)"><rect class="cls-1" x="-37.95" width="229.36" height="133.79"/></clipPath></defs><g id="Слой_2" data-name="Слой 2"><g id="Слой_1-2" data-name="Слой 1"><g class="cls-2"><g id="USA"><g class="cls-3"><rect class="cls-4" y="123.5" width="229.36" height="10.29"/><rect class="cls-5" y="113.21" width="229.36" height="10.29"/><rect class="cls-4" y="102.92" width="229.36" height="10.28"/><rect class="cls-5" y="92.63" width="229.36" height="10.29"/><rect class="cls-4" y="82.34" width="229.36" height="10.3"/><rect class="cls-5" y="72.05" width="229.36" height="10.28"/><rect class="cls-4" y="61.75" width="229.36" height="10.3"/><rect class="cls-5" y="51.47" width="229.36" height="10.28"/><rect class="cls-4" y="41.17" width="229.36" height="10.29"/><rect class="cls-5" y="30.88" width="229.36" height="10.3"/><rect class="cls-4" y="20.59" width="229.36" height="10.29"/><rect class="cls-5" y="10.3" width="229.36" height="10.29"/><rect class="cls-4" width="229.36" height="10.3"/><rect class="cls-6" width="104.75" height="72.05"/><polygon class="cls-5" points="9.46 7.94 10.36 10.67 13.23 10.67 10.9 12.35 11.79 15.07 9.46 13.39 7.14 15.07 8.05 12.35 5.73 10.67 8.57 10.67 9.46 7.94"/><polygon class="cls-5" points="9.46 19.97 10.36 22.69 13.23 22.69 10.9 24.36 11.79 27.1 9.46 25.41 7.14 27.1 8.05 24.36 5.73 22.69 8.57 22.69 9.46 19.97"/><polygon class="cls-5" points="9.46 32 10.36 34.72 13.23 34.72 10.9 36.4 11.79 39.13 9.46 37.44 7.14 39.13 8.05 36.4 5.73 34.72 8.57 34.72 9.46 32"/><polygon class="cls-5" points="9.46 44.02 10.36 46.75 13.23 46.75 10.9 48.43 11.79 51.15 9.46 49.47 7.14 51.15 8.05 48.43 5.73 46.75 8.57 46.75 9.46 44.02"/><polygon class="cls-5" points="9.46 56.04 10.36 58.78 13.23 58.78 10.9 60.45 11.79 63.17 9.46 61.49 7.14 63.17 8.05 60.45 5.73 58.78 8.57 58.78 9.46 56.04"/><polygon class="cls-5" points="17.84 14.28 18.7 17 21.58 17 19.27 18.69 20.14 21.41 17.84 19.73 15.54 21.41 16.4 18.69 14.09 17 16.96 17 17.84 14.28"/><polygon class="cls-5" points="17.84 26.31 18.7 29.02 21.58 29.02 19.27 30.71 20.14 33.43 17.84 31.76 15.54 33.43 16.4 30.71 14.09 29.02 16.96 29.02 17.84 26.31"/><polygon class="cls-5" points="17.84 38.33 18.7 41.05 21.58 41.05 19.27 42.74 20.14 45.46 17.84 43.78 15.54 45.46 16.4 42.74 14.09 41.05 16.96 41.05 17.84 38.33"/><polygon class="cls-5" points="17.84 50.36 18.7 53.08 21.58 53.08 19.27 54.76 20.14 57.48 17.84 55.79 15.54 57.48 16.4 54.76 14.09 53.08 16.96 53.08 17.84 50.36"/><polygon class="cls-5" points="26.31 7.94 27.2 10.67 30.07 10.67 27.75 12.35 28.64 15.07 26.31 13.39 24.01 15.07 24.89 12.35 22.57 10.67 25.43 10.67 26.31 7.94"/><polygon class="cls-5" points="26.31 19.97 27.2 22.69 30.07 22.69 27.75 24.36 28.64 27.1 26.31 25.41 24.01 27.1 24.89 24.36 22.57 22.69 25.43 22.69 26.31 19.97"/><polygon class="cls-5" points="26.31 32 27.2 34.72 30.07 34.72 27.75 36.4 28.64 39.13 26.31 37.44 24.01 39.13 24.89 36.4 22.57 34.72 25.43 34.72 26.31 32"/><polygon class="cls-5" points="26.31 44.02 27.2 46.75 30.07 46.75 27.75 48.43 28.64 51.15 26.31 49.47 24.01 51.15 24.89 48.43 22.57 46.75 25.43 46.75 26.31 44.02"/><polygon class="cls-5" points="26.31 56.04 27.2 58.78 30.07 58.78 27.75 60.45 28.64 63.17 26.31 61.49 24.01 63.17 24.89 60.45 22.57 58.78 25.43 58.78 26.31 56.04"/><polygon class="cls-5" points="34.69 14.28 35.57 17 38.45 17 36.12 18.69 37.01 21.41 34.69 19.73 32.38 21.41 33.27 18.69 30.94 17 33.81 17 34.69 14.28"/><polygon class="cls-5" points="34.69 26.31 35.57 29.02 38.45 29.02 36.12 30.71 37.01 33.43 34.69 31.76 32.38 33.43 33.27 30.71 30.94 29.02 33.81 29.02 34.69 26.31"/><polygon class="cls-5" points="34.69 38.33 35.57 41.05 38.45 41.05 36.12 42.74 37.01 45.46 34.69 43.78 32.38 45.46 33.27 42.74 30.94 41.05 33.81 41.05 34.69 38.33"/><polygon class="cls-5" points="34.69 50.36 35.57 53.08 38.45 53.08 36.12 54.76 37.01 57.48 34.69 55.79 32.38 57.48 33.27 54.76 30.94 53.08 33.81 53.08 34.69 50.36"/><polygon class="cls-5" points="43.18 7.94 44.07 10.67 46.91 10.67 44.59 12.35 45.51 15.07 43.18 13.39 40.85 15.07 41.74 12.35 39.44 10.67 42.3 10.67 43.18 7.94"/><polygon class="cls-5" points="43.18 19.97 44.07 22.69 46.91 22.69 44.59 24.36 45.51 27.1 43.18 25.41 40.85 27.1 41.74 24.36 39.44 22.69 42.3 22.69 43.18 19.97"/><polygon class="cls-5" points="43.18 32 44.07 34.72 46.91 34.72 44.59 36.4 45.51 39.13 43.18 37.44 40.85 39.13 41.74 36.4 39.44 34.72 42.3 34.72 43.18 32"/><polygon class="cls-5" points="43.18 44.02 44.07 46.75 46.91 46.75 44.59 48.43 45.51 51.15 43.18 49.47 40.85 51.15 41.74 48.43 39.44 46.75 42.3 46.75 43.18 44.02"/><polygon class="cls-5" points="43.18 56.04 44.07 58.78 46.91 58.78 44.59 60.45 45.51 63.17 43.18 61.49 40.85 63.17 41.74 60.45 39.44 58.78 42.3 58.78 43.18 56.04"/><polygon class="cls-5" points="51.56 14.28 52.44 17 55.3 17 52.99 18.69 53.85 21.41 51.56 19.73 49.25 21.41 50.12 18.69 47.81 17 50.66 17 51.56 14.28"/><polygon class="cls-5" points="51.56 26.31 52.44 29.02 55.3 29.02 52.99 30.71 53.85 33.43 51.56 31.76 49.25 33.43 50.12 30.71 47.81 29.02 50.66 29.02 51.56 26.31"/><polygon class="cls-5" points="51.56 38.33 52.44 41.05 55.3 41.05 52.99 42.74 53.85 45.46 51.56 43.78 49.25 45.46 50.12 42.74 47.81 41.05 50.66 41.05 51.56 38.33"/><polygon class="cls-5" points="51.56 50.36 52.44 53.08 55.3 53.08 52.99 54.76 53.85 57.48 51.56 55.79 49.25 57.48 50.12 54.76 47.81 53.08 50.66 53.08 51.56 50.36"/><polygon class="cls-5" points="60.02 7.94 60.91 10.67 63.77 10.67 61.46 12.35 62.36 15.07 60.02 13.39 57.73 15.07 58.59 12.35 56.28 10.67 59.14 10.67 60.02 7.94"/><polygon class="cls-5" points="60.02 19.97 60.91 22.69 63.77 22.69 61.46 24.36 62.36 27.1 60.02 25.41 57.73 27.1 58.59 24.36 56.28 22.69 59.14 22.69 60.02 19.97"/><polygon class="cls-5" points="60.02 32 60.91 34.72 63.77 34.72 61.46 36.4 62.36 39.13 60.02 37.44 57.73 39.13 58.59 36.4 56.28 34.72 59.14 34.72 60.02 32"/><polygon class="cls-5" points="60.02 44.02 60.91 46.75 63.77 46.75 61.46 48.43 62.36 51.15 60.02 49.47 57.73 51.15 58.59 48.43 56.28 46.75 59.14 46.75 60.02 44.02"/><polygon class="cls-5" points="60.02 56.04 60.91 58.78 63.77 58.78 61.46 60.45 62.36 63.17 60.02 61.49 57.73 63.17 58.59 60.45 56.28 58.78 59.14 58.78 60.02 56.04"/><polygon class="cls-5" points="68.4 14.28 69.28 17 72.17 17 69.84 18.69 70.72 21.41 68.4 19.73 66.09 21.41 66.99 18.69 64.67 17 67.53 17 68.4 14.28"/><polygon class="cls-5" points="68.4 26.31 69.28 29.02 72.17 29.02 69.84 30.71 70.72 33.43 68.4 31.76 66.09 33.43 66.99 30.71 64.67 29.02 67.53 29.02 68.4 26.31"/><polygon class="cls-5" points="68.4 38.33 69.28 41.05 72.17 41.05 69.84 42.74 70.72 45.46 68.4 43.78 66.09 45.46 66.99 42.74 64.67 41.05 67.53 41.05 68.4 38.33"/><polygon class="cls-5" points="68.4 50.36 69.28 53.08 72.17 53.08 69.84 54.76 70.72 57.48 68.4 55.79 66.09 57.48 66.99 54.76 64.67 53.08 67.53 53.08 68.4 50.36"/><polygon class="cls-5" points="76.89 7.94 77.78 10.67 80.64 10.67 78.33 12.35 79.2 15.07 76.89 13.39 74.59 15.07 75.46 12.35 73.15 10.67 76.01 10.67 76.89 7.94"/><polygon class="cls-5" points="76.89 19.97 77.78 22.69 80.64 22.69 78.33 24.36 79.2 27.1 76.89 25.41 74.59 27.1 75.46 24.36 73.15 22.69 76.01 22.69 76.89 19.97"/><polygon class="cls-5" points="76.89 32 77.78 34.72 80.64 34.72 78.33 36.4 79.2 39.13 76.89 37.44 74.59 39.13 75.46 36.4 73.15 34.72 76.01 34.72 76.89 32"/><polygon class="cls-5" points="76.89 44.02 77.78 46.75 80.64 46.75 78.33 48.43 79.2 51.15 76.89 49.47 74.59 51.15 75.46 48.43 73.15 46.75 76.01 46.75 76.89 44.02"/><polygon class="cls-5" points="76.89 56.04 77.78 58.78 80.64 58.78 78.33 60.45 79.2 63.17 76.89 61.49 74.59 63.17 75.46 60.45 73.15 58.78 76.01 58.78 76.89 56.04"/><polygon class="cls-5" points="85.27 14.28 86.14 17 89.01 17 86.71 18.69 87.57 21.41 85.27 19.73 82.94 21.41 83.83 18.69 81.53 17 84.38 17 85.27 14.28"/><polygon class="cls-5" points="85.27 26.31 86.14 29.02 89.01 29.02 86.71 30.71 87.57 33.43 85.27 31.76 82.94 33.43 83.83 30.71 81.53 29.02 84.38 29.02 85.27 26.31"/><polygon class="cls-5" points="85.27 38.33 86.14 41.05 89.01 41.05 86.71 42.74 87.57 45.46 85.27 43.78 82.94 45.46 83.83 42.74 81.53 41.05 84.38 41.05 85.27 38.33"/><polygon class="cls-5" points="85.27 50.36 86.14 53.08 89.01 53.08 86.71 54.76 87.57 57.48 85.27 55.79 82.94 57.48 83.83 54.76 81.53 53.08 84.38 53.08 85.27 50.36"/><polygon class="cls-5" points="93.73 7.94 94.64 10.67 97.48 10.67 95.18 12.35 96.07 15.07 93.73 13.39 91.44 15.07 92.31 12.35 90 10.67 92.85 10.67 93.73 7.94"/><polygon class="cls-5" points="93.73 19.97 94.64 22.69 97.48 22.69 95.18 24.36 96.07 27.1 93.73 25.41 91.44 27.1 92.31 24.36 90 22.69 92.85 22.69 93.73 19.97"/><polygon class="cls-5" points="93.73 32 94.64 34.72 97.48 34.72 95.18 36.4 96.07 39.13 93.73 37.44 91.44 39.13 92.31 36.4 90 34.72 92.85 34.72 93.73 32"/><polygon class="cls-5" points="93.73 44.02 94.64 46.75 97.48 46.75 95.18 48.43 96.07 51.15 93.73 49.47 91.44 51.15 92.31 48.43 90 46.75 92.85 46.75 93.73 44.02"/><polygon class="cls-5" points="93.73 56.04 94.64 58.78 97.48 58.78 95.18 60.45 96.07 63.17 93.73 61.49 91.44 63.17 92.31 60.45 90 58.78 92.85 58.78 93.73 56.04"/></g></g></g></g></g></svg>