<svg xmlns="http://www.w3.org/2000/svg" xmlns:xlink="http://www.w3.org/1999/xlink" viewBox="0 0 195.15 133.76"><defs><style>.cls-1{fill:none;}.cls-2{clip-path:url(#clip-path);}.cls-3{fill:#4597b1;}.cls-4{fill:#bc1733;}.cls-5{fill:#fff;}.cls-6{fill:#57b141;}.cls-7{clip-path:url(#clip-path-2);}</style><clipPath id="clip-path" transform="translate(3.45 -0.03)"><circle class="cls-1" cx="66.89" cy="66.89" r="66.89"/></clipPath><clipPath id="clip-path-2" transform="translate(3.45 -0.03)"><rect class="cls-1" x="12.95" y="15.61" width="178.75" height="104.37"/></clipPath></defs><g id="Слой_2" data-name="Слой 2"><g id="Слой_1-2" data-name="Слой 1"><g class="cls-2"><rect class="cls-3" width="195.15" height="49"/><rect class="cls-4" y="49" width="195.15" height="2.08"/><rect class="cls-5" y="51.08" width="195.15" height="33.39"/><rect class="cls-4" y="84.48" width="195.15" height="2.08"/><rect class="cls-6" y="86.56" width="195.15" height="47.2"/><g class="cls-7"><path class="cls-5" d="M54.66,32.33A12.51,12.51,0,1,1,42.15,19.8,12.51,12.51,0,0,1,54.66,32.33" transform="translate(3.45 -0.03)"/><path class="cls-3" d="M58.2,32.33A10.42,10.42,0,1,1,47.79,21.88,10.41,10.41,0,0,1,58.2,32.33" transform="translate(3.45 -0.03)"/><polygon class="cls-5" points="77.29 19.77 76.52 22.16 77.71 22.54 77.29 19.77"/><polygon class="cls-5" points="77.29 19.77 78.07 22.16 76.88 22.54 77.29 19.77"/><polygon class="cls-5" points="79.68 21.5 77.17 21.5 77.17 22.77 79.68 21.5"/><polygon class="cls-5" points="79.68 21.5 77.64 22.98 76.92 21.96 79.68 21.5"/><polygon class="cls-5" points="74.92 21.5 76.94 22.98 77.68 21.96 74.92 21.5"/><polygon class="cls-5" points="74.92 21.5 77.43 21.5 77.43 22.77 74.92 21.5"/><polygon class="cls-5" points="78.76 24.31 78 21.91 76.8 22.29 78.76 24.31"/><polygon class="cls-5" points="78.76 24.31 76.75 22.83 77.47 21.81 78.76 24.31"/><polygon class="cls-5" points="75.81 24.31 77.85 22.83 77.11 21.81 75.81 24.31"/><polygon class="cls-5" points="75.81 24.31 76.59 21.91 77.78 22.29 75.81 24.31"/><polygon class="cls-5" points="87.31 19.77 86.53 22.16 87.72 22.54 87.31 19.77"/><polygon class="cls-5" points="87.31 19.77 88.07 22.16 86.88 22.54 87.31 19.77"/><polygon class="cls-5" points="89.68 21.5 87.17 21.5 87.17 22.77 89.68 21.5"/><polygon class="cls-5" points="89.68 21.5 87.65 22.98 86.91 21.96 89.68 21.5"/><polygon class="cls-5" points="84.93 21.5 86.94 22.98 87.68 21.96 84.93 21.5"/><polygon class="cls-5" points="84.93 21.5 87.41 21.5 87.41 22.77 84.93 21.5"/><polygon class="cls-5" points="88.77 24.31 88 21.91 86.82 22.29 88.77 24.31"/><polygon class="cls-5" points="88.77 24.31 86.75 22.83 87.48 21.81 88.77 24.31"/><polygon class="cls-5" points="85.82 24.31 87.86 22.83 87.11 21.81 85.82 24.31"/><polygon class="cls-5" points="85.82 24.31 86.6 21.91 87.8 22.29 85.82 24.31"/><polygon class="cls-5" points="97.33 19.77 96.55 22.16 97.72 22.54 97.33 19.77"/><polygon class="cls-5" points="97.33 19.77 98.09 22.16 96.89 22.54 97.33 19.77"/><polygon class="cls-5" points="99.7 21.5 97.2 21.5 97.2 22.77 99.7 21.5"/><polygon class="cls-5" points="99.7 21.5 97.67 22.98 96.93 21.96 99.7 21.5"/><polygon class="cls-5" points="94.93 21.5 96.95 22.98 97.7 21.96 94.93 21.5"/><polygon class="cls-5" points="94.93 21.5 97.43 21.5 97.43 22.77 94.93 21.5"/><polygon class="cls-5" points="98.78 24.31 98 21.91 96.82 22.29 98.78 24.31"/><polygon class="cls-5" points="98.78 24.31 96.76 22.83 97.48 21.81 98.78 24.31"/><polygon class="cls-5" points="95.85 24.31 97.87 22.83 97.14 21.81 95.85 24.31"/><polygon class="cls-5" points="95.85 24.31 96.62 21.91 97.81 22.29 95.85 24.31"/><polygon class="cls-5" points="67.28 29.78 66.5 32.16 67.69 32.55 67.28 29.78"/><polygon class="cls-5" points="67.28 29.78 68.05 32.16 66.87 32.55 67.28 29.78"/><polygon class="cls-5" points="69.66 31.51 67.16 31.51 67.16 32.76 69.66 31.51"/><polygon class="cls-5" points="69.66 31.51 67.64 32.97 66.9 31.97 69.66 31.51"/><polygon class="cls-5" points="64.9 31.51 66.93 32.97 67.66 31.97 64.9 31.51"/><polygon class="cls-5" points="64.9 31.51 67.41 31.51 67.41 32.76 64.9 31.51"/><polygon class="cls-5" points="68.74 34.3 67.98 31.93 66.8 32.33 68.74 34.3"/><polygon class="cls-5" points="68.74 34.3 66.73 32.84 67.46 31.84 68.74 34.3"/><polygon class="cls-5" points="65.81 34.3 67.84 32.84 67.1 31.84 65.81 34.3"/><polygon class="cls-5" points="65.81 34.3 66.58 31.93 67.77 32.33 65.81 34.3"/><polygon class="cls-5" points="77.29 29.78 76.52 32.16 77.71 32.55 77.29 29.78"/><polygon class="cls-5" points="77.29 29.78 78.07 32.16 76.88 32.55 77.29 29.78"/><polygon class="cls-5" points="79.68 31.51 77.17 31.51 77.17 32.76 79.68 31.51"/><polygon class="cls-5" points="79.68 31.51 77.64 32.97 76.92 31.97 79.68 31.51"/><polygon class="cls-5" points="74.92 31.51 76.94 32.97 77.68 31.97 74.92 31.51"/><polygon class="cls-5" points="74.92 31.51 77.43 31.51 77.43 32.76 74.92 31.51"/><polygon class="cls-5" points="78.76 34.3 78 31.93 76.8 32.33 78.76 34.3"/><polygon class="cls-5" points="78.76 34.3 76.75 32.84 77.47 31.84 78.76 34.3"/><polygon class="cls-5" points="75.81 34.3 77.85 32.84 77.11 31.84 75.81 34.3"/><polygon class="cls-5" points="75.81 34.3 76.59 31.93 77.78 32.33 75.81 34.3"/><polygon class="cls-5" points="87.31 29.78 86.53 32.16 87.72 32.55 87.31 29.78"/><polygon class="cls-5" points="87.31 29.78 88.07 32.16 86.88 32.55 87.31 29.78"/><polygon class="cls-5" points="89.68 31.51 87.17 31.51 87.17 32.76 89.68 31.51"/><polygon class="cls-5" points="89.68 31.51 87.65 32.97 86.91 31.97 89.68 31.51"/><polygon class="cls-5" points="84.93 31.51 86.94 32.97 87.68 31.97 84.93 31.51"/><polygon class="cls-5" points="84.93 31.51 87.41 31.51 87.41 32.76 84.93 31.51"/><polygon class="cls-5" points="88.77 34.3 88 31.93 86.82 32.33 88.77 34.3"/><polygon class="cls-5" points="88.77 34.3 86.75 32.84 87.48 31.84 88.77 34.3"/><polygon class="cls-5" points="85.82 34.3 87.86 32.84 87.11 31.84 85.82 34.3"/><polygon class="cls-5" points="85.82 34.3 86.6 31.93 87.8 32.33 85.82 34.3"/><polygon class="cls-5" points="97.33 29.78 96.55 32.16 97.72 32.55 97.33 29.78"/><polygon class="cls-5" points="97.33 29.78 98.09 32.16 96.89 32.55 97.33 29.78"/><polygon class="cls-5" points="99.7 31.51 97.2 31.51 97.2 32.76 99.7 31.51"/><polygon class="cls-5" points="99.7 31.51 97.67 32.97 96.93 31.97 99.7 31.51"/><polygon class="cls-5" points="94.93 31.51 96.95 32.97 97.7 31.97 94.93 31.51"/><polygon class="cls-5" points="94.93 31.51 97.43 31.51 97.43 32.76 94.93 31.51"/><polygon class="cls-5" points="98.78 34.3 98 31.93 96.82 32.33 98.78 34.3"/><polygon class="cls-5" points="98.78 34.3 96.76 32.84 97.48 31.84 98.78 34.3"/><polygon class="cls-5" points="95.85 34.3 97.87 32.84 97.14 31.84 95.85 34.3"/><polygon class="cls-5" points="95.85 34.3 96.62 31.93 97.81 32.33 95.85 34.3"/><polygon class="cls-5" points="57.28 39.8 56.51 42.19 57.69 42.57 57.28 39.8"/><polygon class="cls-5" points="57.28 39.8 58.05 42.19 56.86 42.57 57.28 39.8"/><polygon class="cls-5" points="59.65 41.55 57.14 41.55 57.14 42.78 59.65 41.55"/><polygon class="cls-5" points="59.65 41.55 57.62 43.01 56.89 41.98 59.65 41.55"/><polygon class="cls-5" points="54.89 41.55 56.92 43.01 57.66 41.98 54.89 41.55"/><polygon class="cls-5" points="54.89 41.55 57.39 41.55 57.39 42.78 54.89 41.55"/><polygon class="cls-5" points="58.74 44.34 57.98 41.96 56.78 42.34 58.74 44.34"/><polygon class="cls-5" points="58.74 44.34 56.73 42.88 57.47 41.84 58.74 44.34"/><polygon class="cls-5" points="55.8 44.34 57.83 42.88 57.08 41.84 55.8 44.34"/><polygon class="cls-5" points="55.8 44.34 56.57 41.96 57.76 42.34 55.8 44.34"/><polygon class="cls-5" points="67.28 39.8 66.5 42.19 67.69 42.57 67.28 39.8"/><polygon class="cls-5" points="67.28 39.8 68.05 42.19 66.87 42.57 67.28 39.8"/><polygon class="cls-5" points="69.66 41.55 67.16 41.55 67.16 42.78 69.66 41.55"/><polygon class="cls-5" points="69.66 41.55 67.64 43.01 66.9 41.98 69.66 41.55"/><polygon class="cls-5" points="64.9 41.55 66.93 43.01 67.66 41.98 64.9 41.55"/><polygon class="cls-5" points="64.9 41.55 67.41 41.55 67.41 42.78 64.9 41.55"/><polygon class="cls-5" points="68.74 44.34 67.98 41.96 66.8 42.34 68.74 44.34"/><polygon class="cls-5" points="68.74 44.34 66.73 42.88 67.46 41.84 68.74 44.34"/><polygon class="cls-5" points="65.81 44.34 67.84 42.88 67.1 41.84 65.81 44.34"/><polygon class="cls-5" points="65.81 44.34 66.58 41.96 67.77 42.34 65.81 44.34"/><polygon class="cls-5" points="77.29 39.8 76.52 42.19 77.71 42.57 77.29 39.8"/><polygon class="cls-5" points="77.29 39.8 78.07 42.19 76.88 42.57 77.29 39.8"/><polygon class="cls-5" points="79.68 41.55 77.17 41.55 77.17 42.78 79.68 41.55"/><polygon class="cls-5" points="79.68 41.55 77.64 43.01 76.92 41.98 79.68 41.55"/><polygon class="cls-5" points="74.92 41.55 76.94 43.01 77.68 41.98 74.92 41.55"/><polygon class="cls-5" points="74.92 41.55 77.43 41.55 77.43 42.78 74.92 41.55"/><polygon class="cls-5" points="78.76 44.34 78 41.96 76.8 42.34 78.76 44.34"/><polygon class="cls-5" points="78.76 44.34 76.75 42.88 77.47 41.84 78.76 44.34"/><polygon class="cls-5" points="75.81 44.34 77.85 42.88 77.11 41.84 75.81 44.34"/><polygon class="cls-5" points="75.81 44.34 76.59 41.96 77.78 42.34 75.81 44.34"/><polygon class="cls-5" points="87.31 39.8 86.53 42.19 87.72 42.57 87.31 39.8"/><polygon class="cls-5" points="87.31 39.8 88.07 42.19 86.88 42.57 87.31 39.8"/><polygon class="cls-5" points="89.68 41.55 87.17 41.55 87.17 42.78 89.68 41.55"/><polygon class="cls-5" points="89.68 41.55 87.65 43.01 86.91 41.98 89.68 41.55"/><polygon class="cls-5" points="84.93 41.55 86.94 43.01 87.68 41.98 84.93 41.55"/><polygon class="cls-5" points="84.93 41.55 87.41 41.55 87.41 42.78 84.93 41.55"/><polygon class="cls-5" points="88.77 44.34 88 41.96 86.82 42.34 88.77 44.34"/><polygon class="cls-5" points="88.77 44.34 86.75 42.88 87.48 41.84 88.77 44.34"/><polygon class="cls-5" points="85.82 44.34 87.86 42.88 87.11 41.84 85.82 44.34"/><polygon class="cls-5" points="85.82 44.34 86.6 41.96 87.8 42.34 85.82 44.34"/><polygon class="cls-5" points="97.33 39.8 96.55 42.19 97.72 42.57 97.33 39.8"/><polygon class="cls-5" points="97.33 39.8 98.09 42.19 96.89 42.57 97.33 39.8"/><polygon class="cls-5" points="99.7 41.55 97.2 41.55 97.2 42.78 99.7 41.55"/><polygon class="cls-5" points="99.7 41.55 97.67 43.01 96.93 41.98 99.7 41.55"/><polygon class="cls-5" points="94.93 41.55 96.95 43.01 97.7 41.98 94.93 41.55"/><polygon class="cls-5" points="94.93 41.55 97.43 41.55 97.43 42.78 94.93 41.55"/><polygon class="cls-5" points="98.78 44.34 98 41.96 96.82 42.34 98.78 44.34"/><polygon class="cls-5" points="98.78 44.34 96.76 42.88 97.48 41.84 98.78 44.34"/><polygon class="cls-5" points="95.85 44.34 97.87 42.88 97.14 41.84 95.85 44.34"/><polygon class="cls-5" points="95.85 44.34 96.62 41.96 97.81 42.34 95.85 44.34"/></g><rect class="cls-1" y="15.59" width="195.15" height="104.37"/></g></g></g></svg>